<svg xmlns="http://www.w3.org/2000/svg" xmlns:xlink="http://www.w3.org/1999/xlink" viewBox="0 0 210 292.19"><g id="Layer_2" data-name="Layer 2"><ellipse id="Ellipse_16" data-name="Ellipse 16" cx="105" cy="267.19" rx="105" ry="25" style="fill:#d2e4f5"/><g id="Group_44" data-name="Group 44"><g id="Group_42" data-name="Group 42" style="opacity:0.699999988079071"><rect id="Rectangle_172" data-name="Rectangle 172" x="6.39" width="196.96" height="271.06" rx="62.36" style="fill:#d1e4f6"/></g><g id="Group_43" data-name="Group 43"><rect id="Rectangle_173" data-name="Rectangle 173" x="6.64" y="113.28" width="196.96" height="157.88" rx="62.36" style="fill:#ffc629"/></g><rect id="Rectangle_174" data-name="Rectangle 174" x="6.55" y="113.17" width="196.67" height="66.67" style="fill:#ffc629"/><path id="Path_123" data-name="Path 123" d="M226.13,94.49S286,103.33,339,93.92C339,93.92,288.24,127.26,226.13,94.49Z" transform="translate(-180.36 -84.76)" style="fill:#b4d8f2"/><path id="Path_126" data-name="Path 126" d="M230.83,349s59.84-8.83,112.84.57C343.67,349.58,293,316.24,230.83,349Z" transform="translate(-180.36 -84.76)" style="fill:#c7902b"/><path id="Path_127" data-name="Path 127" d="M250.2,347.73" transform="translate(-180.36 -84.76)" style="fill:#050706"/><image width="808" height="926" transform="translate(33.58 63.76) scale(0.17)" xlink:href="FooBar/images/elhefe.png"/><path id="Path_124" data-name="Path 124" d="M339.09,342.11c28-12.54,31.79-41,31.79-43.88V142.08c0-31.91-33.06-41-33.06-41A94.68,94.68,0,0,1,327,106.52V337.8Z" transform="translate(-180.36 -84.76)" style="fill:#fff;opacity:0.550000011920929;isolation:isolate"/><path id="Path_125" data-name="Path 125" d="M226.36,346.09c-14-6.27-24-18.51-28.45-27.56s-5.4-16.88-5.4-18.31V144.07c0-15.95,10.09-31,18.35-37.23s14.61-7.44,14.61-7.44a114.66,114.66,0,0,0,26.26,10.5V335.64A130.18,130.18,0,0,0,226.36,346.09Z" transform="translate(-180.36 -84.76)" style="fill:#050706;opacity:0.070000000298023;isolation:isolate"/></g></g><g id="Layer_5" data-name="Layer 5"><circle cx="106.48" cy="252.28" r="16.39" style="fill:#c4c4c4"/><path d="M296.09,324.6l-4.86,6.1,3,5.6,8,.42A17.29,17.29,0,0,0,296.09,324.6Z" transform="translate(-180.36 -84.76)" style="fill:#fff;opacity:0.85"/><path d="M301.16,343.61A15.23,15.23,0,0,1,294,351l.83-7.58.25-2.09Z" transform="translate(-180.36 -84.76)" style="fill:#fff;opacity:0.85"/><path d="M278.1,324.35l4.86,6.1-3,5.6-8.5.35A18.9,18.9,0,0,1,278.1,324.35Z" transform="translate(-180.36 -84.76)" style="fill:#fff;opacity:0.85"/><path d="M272.79,344.29a17,17,0,0,0,7.13,7l1.67-7.35-3.09-2.38Z" transform="translate(-180.36 -84.76)" style="opacity:0.53"/><circle cx="106.48" cy="252.28" r="13.35" style="fill:#c4c4c4"/><circle cx="106.41" cy="142.77" r="4.56" style="fill:#abcaea"/><path d="M276.45,236.88s.54-8.38,10.45-8.38,10.18,8.2,10.18,8.2L293.28,300H279.91Z" transform="translate(-180.36 -84.76)" style="fill:#302f2e"/><rect x="99.62" y="142.8" width="13.57" height="3.2" rx="1.3" style="fill:#302f2e"/><path d="M280.08,300a3.57,3.57,0,0,1,2.2,3h8.79a3.05,3.05,0,0,1,2.38-3Z" transform="translate(-180.36 -84.76)" style="fill:#302f2e"/><rect x="98.41" y="217.49" width="15.99" height="4.94" rx="2.02" style="fill:#302f2e"/><path d="M281.14,307.2h11.31l-.55,6s-.11.82,1.24,1.39H280.39s1.34-.54,1.5-1.5A41.11,41.11,0,0,0,281.14,307.2Z" transform="translate(-180.36 -84.76)" style="fill:#abcaea"/><rect x="97.05" y="229.55" width="18.71" height="8.61" style="fill:#abcaea"/><rect x="99.76" y="238.14" width="13.3" height="3.51" style="fill:#ddd"/><rect x="96.86" y="241.65" width="19.1" height="15.35" style="fill:#ddd"/><rect x="97.42" y="242.01" width="3.59" height="6.67" style="opacity:0.53"/><rect x="104.41" y="242.04" width="11.08" height="7.04" style="fill:#fff;opacity:0.85"/><path d="M292.5,358.45s.67-12.75,2.53-17.08l-16.53.24S281.69,353,281,358.18" transform="translate(-180.36 -84.76)" style="fill:#ddd"/><ellipse cx="106.41" cy="273.61" rx="5.73" ry="3.36" style="fill:#666766"/><ellipse cx="106.37" cy="273.69" rx="4.76" ry="2.57"/><circle cx="106.41" cy="253.69" r="10.45" style="fill:#e0e0e0"/><path d="M288.06,328.42s6.51,1.33,8.15,7.59-3.55,10.3-3.55,10.3S298.28,336.07,288.06,328.42Z" transform="translate(-180.36 -84.76)" style="fill:#fff;opacity:0.85"/><path d="M277.42,341s1,4.14,4.3,6a10.48,10.48,0,0,0,6.48,1.27S280.92,346.15,277.42,341Z" transform="translate(-180.36 -84.76)" style="opacity:0.48"/><path d="M290.84,227.35h-2.72a3.72,3.72,0,0,0-2.19-3.78S289.81,222.77,290.84,227.35Z" transform="translate(-180.36 -84.76)" style="fill:#fff;opacity:0.34"/><path d="M281,230.28h11.53A24.68,24.68,0,0,1,281,230.28Z" transform="translate(-180.36 -84.76)" style="fill:#020202"/><path d="M292.85,229.92s.7-1.6-.67-2H283.7S292.74,228.53,292.85,229.92Z" transform="translate(-180.36 -84.76)" style="fill:#fff;opacity:0.75"/><path d="M295.66,237.29c0,3.8-3.59,61.6-3.59,61.6h-2.84s4.36-56.73,3.86-62a8.76,8.76,0,0,0-3.2-5.55,17,17,0,0,0,3-.52S295.62,232.65,295.66,237.29Z" transform="translate(-180.36 -84.76)" style="fill:#fff;opacity:0.47000000000000003"/><path d="M277.89,237.52c0,3.81,3.59,61.61,3.59,61.61h2.84s-4.37-56.74-3.87-62a8.77,8.77,0,0,1,3.2-5.54,17.13,17.13,0,0,1-3-.52S277.92,232.88,277.89,237.52Z" transform="translate(-180.36 -84.76)" style="opacity:0.53"/><path d="M280.52,300h12.29S286.4,302,280.52,300Z" transform="translate(-180.36 -84.76)"/><path d="M287.34,302.78h4.75a2.13,2.13,0,0,1,2,2.09c0,1.93-1.55,1.85-1.55,1.85S293.48,303.71,287.34,302.78Z" transform="translate(-180.36 -84.76)" style="fill:#fff;opacity:0.47000000000000003"/><path d="M280.26,303.17a1.91,1.91,0,0,0-.94,1.68c0,1.2,1.62,1.88,1.62,1.88h5S280.61,306.35,280.26,303.17Z" transform="translate(-180.36 -84.76)" style="opacity:0.53"/><polygon points="111.39 222.59 110.86 228.57 111.62 229.61 107.62 229.61 107.34 228.62 107.93 222.59 111.39 222.59" style="fill:#fff;opacity:0.85"/><polygon points="101.54 222.64 102.06 228.61 101.3 229.66 103.67 229.66 103.96 228.66 103.36 222.64 101.54 222.64" style="opacity:0.53"/><rect x="107.29" y="230.12" width="7.57" height="7.61" style="fill:#fff;opacity:0.85"/><rect x="97.39" y="230.12" width="3.67" height="7.61" style="opacity:0.53"/><rect x="104.95" y="238.68" width="7.16" height="2.78" style="fill:#fff;opacity:0.85"/><rect x="100.57" y="238.72" width="1.87" height="2.78" style="opacity:0.53"/><circle cx="106.25" cy="253.28" r="6.09" style="fill:#f0efef;opacity:0.85"/><path d="M284.71,339.94s3.59-.09,4.82-3c0,0,.49-1.63-1.56-3.1a3.3,3.3,0,0,0-4,.24s-2.12,1.8-1.06,3.93S284.71,339.94,284.71,339.94Z" transform="translate(-180.36 -84.76)" style="fill:#fff"/><path d="M289.28,334s2.94.64,2.56,4.22c0,0-1.15,1.79-2,2C289.86,340.2,291.77,337.71,289.28,334Z" transform="translate(-180.36 -84.76)" style="fill:#fff"/><ellipse cx="286.5" cy="341.02" rx="1.21" ry="0.45" transform="translate(-312.49 104.18) rotate(-30)" style="fill:#fff"/><path d="M281.51,340.74s2,3.32,5.41,2.93a6.16,6.16,0,0,0,5.15-4.1,6.88,6.88,0,0,1-5.08,3.06A10.27,10.27,0,0,1,281.51,340.74Z" transform="translate(-180.36 -84.76)" style="opacity:0.76"/><path d="M292.82,347.67c.21-.14-.79,8.56-.79,8.56a8.78,8.78,0,0,0-4.95-1.76v-5.12A9.26,9.26,0,0,0,292.82,347.67Z" transform="translate(-180.36 -84.76)" style="fill:#fff;opacity:0.8200000000000001"/><path d="M280.81,347.71c-.16-.19.94,8.5.94,8.5a3.62,3.62,0,0,1,2.45-1.31v-5.54A5.91,5.91,0,0,1,280.81,347.71Z" transform="translate(-180.36 -84.76)" style="opacity:0.48"/><path d="M283,356.35a7.19,7.19,0,0,1,3.45-.89,11.09,11.09,0,0,1,3.71.69" transform="translate(-180.36 -84.76)" style="fill:none;stroke:#fff;stroke-miterlimit:10;stroke-width:0.400000005960465px"/><path d="M283.16,360.51a7.07,7.07,0,0,0,3.44.9,11,11,0,0,0,3.72-.7" transform="translate(-180.36 -84.76)" style="fill:none;stroke:#fff;stroke-miterlimit:10;stroke-width:0.400000005960465px"/></g></svg>