<svg id="Layer_2" data-name="Layer 2" xmlns="http://www.w3.org/2000/svg" viewBox="0 0 397.19 374.74"><path d="M107.46,224.77l68.42,28.88-6.89-9,12.36,66.95L201,417.82l4.53,24.53c1.18,6.39,8.3,11,14.47,11H429.77c6.83,0,12.42-4.7,14.46-11l46-142.07,6.43-19.86c3.13-9.66-5.17-18.6-14.47-19l-79.63-3.35-126.28-5.31-29-1.22c-7.85-.33-15.35,7.14-15,15a15.32,15.32,0,0,0,15,15L327,284.9l126.28,5.31,29,1.22-14.46-19-46,142.07-6.44,19.85,14.47-11H220l14.46,11L214,323.79l-12.55-68c-1.06-5.75-2-11.54-3.19-17.27-1.58-7.66-6.83-10.61-13.26-13.32L122.6,198.86c-7.45-3.15-16.06-2.24-20.52,5.38-3.67,6.29-2.12,17.36,5.38,20.53Z" transform="translate(-100.17 -197.16)" style="fill:#fff"/><path d="M227,434.11,205,485.81c-2.18,5.1-3,10.06,0,15.14a15.13,15.13,0,0,0,13,7.43H430.77c7.84,0,15.36-6.9,15-15s-6.59-15-15-15H217.9l13,22.57,22-51.7c3.18-7.44,2.23-16.07-5.38-20.52-6.3-3.69-17.33-2.11-20.52,5.38Z" transform="translate(-100.17 -197.16)" style="fill:#fff"/><circle cx="158.72" cy="334.71" r="30.03" style="fill:none;stroke:#fff;stroke-miterlimit:10;stroke-width:20px"/><circle cx="292.34" cy="334.71" r="30.03" style="fill:none;stroke:#fff;stroke-miterlimit:10;stroke-width:20px"/></svg>