<?xml version="1.0" encoding="utf-8"?>
<!-- Generator: Adobe Illustrator 24.1.0, SVG Export Plug-In . SVG Version: 6.00 Build 0)  -->
<svg version="1.1" id="Layer_1" xmlns="http://www.w3.org/2000/svg" xmlns:xlink="http://www.w3.org/1999/xlink" x="0px" y="0px"
	 viewBox="0 0 200 200" style="enable-background:new 0 0 200 200;" xml:space="preserve">
<style type="text/css">
	.st0{fill:#FDD13D;}
	.st1{font-family:'Futura-Bold';}
	.st2{font-size:53.9688px;}
	.st3{fill:#F16A38;}
	.st4{letter-spacing:1;}
	.st5{fill:#F5F8FC;}
	.st6{fill:#FFFFFF;}
</style>
<text transform="matrix(1 0 0 1 35.8904 114.0115)" class="st0 st1 st2">FOO</text>
<text transform="matrix(1.0382 0 0 1 35.9665 161.0818)" class="st3 st1 st2 st4">BAR</text>
<path class="st5" d="M39,167.1l123.8,0v17.2c0,0-26.2,7.2-62.5,7.2s-61.3-7.9-61.3-7.9L39,167.1z"/>
<path class="st6" d="M145.4,96.5l0.2-21.2v-7.3c0,0-0.3-3.1,7.3-3.1c7.6,0,12.7,0,12.7,0s2.7-26.5-20.9-25.5c0,0-5.1-19.9-25.7-15.7
	c0,0-7.6-20.2-29.9-14.3S68.5,37.2,68.5,37.2S40.4,26.4,39.8,65.5l52.9,0.4c0,0,7.9,0.3,7.6,15.7c-0.4,18.1,0,30.7,0,30.7
	s-0.6,9.4,10,9.4s9.1-9.1,9.1-9.1v-29c0,0,0-8,7.8-8s7.5,7.5,7.5,7.5v13.2c0,0-0.6,6.7,5.4,6.7S145.4,96.5,145.4,96.5z"/>
</svg>
