<svg xmlns="http://www.w3.org/2000/svg" xmlns:xlink="http://www.w3.org/1999/xlink" viewBox="0 0 1024 768">
  <defs>
    <style>
      .cls-1 {
        fill: url(#linear-gradient);
      }

      .cls-2 {
        fill: url(#linear-gradient-2);
      }

      .cls-3 {
        fill: url(#linear-gradient-3);
      }

      .cls-4 {
        fill: #f1f5ff;
      }

      .cls-5 {
        fill: #f98962;
      }

      .cls-6 {
        isolation: isolate;
      }

      .cls-7 {
        fill: #3d395f;
      }

      .cls-8 {
        fill: #4157ab;
      }

      .cls-9 {
        fill: #a9cefc;
      }

      .cls-10 {
        fill: #3c3249;
      }

      .cls-11 {
        fill: #655773;
      }

      .cls-12 {
        fill: #c4c4c4;
      }

      .cls-13 {
        fill: #b4b4d1;
      }

      .cls-14 {
        fill: #a3a3bf;
      }

      .cls-15 {
        fill: #e3e4e5;
      }

      .cls-101, .cls-16, .cls-17, .cls-18, .cls-19, .cls-84 {
        opacity: 0.5;
      }

      .cls-16, .cls-17, .cls-18, .cls-19, .cls-78, .cls-79, .cls-80, .cls-81, .cls-95, .cls-96, .cls-97, .cls-98 {
        mix-blend-mode: multiply;
      }

      .cls-16 {
        fill: url(#_ÂÁ_Ï_ÌÌ_È_ËÂÌÚ_56);
      }

      .cls-17 {
        fill: url(#_ÂÁ_Ï_ÌÌ_È_ËÂÌÚ_56-2);
      }

      .cls-18 {
        fill: url(#_ÂÁ_Ï_ÌÌ_È_ËÂÌÚ_56-3);
      }

      .cls-19 {
        fill: url(#_ÂÁ_Ï_ÌÌ_È_ËÂÌÚ_56-4);
      }

      .cls-20 {
        fill: #b6b6cc;
      }

      .cls-21, .cls-32 {
        fill: #fff;
      }

      .cls-22 {
        fill: #7e7ea3;
      }

      .cls-23 {
        opacity: 0.47;
      }

      .cls-24 {
        fill: #5b5b5b;
      }

      .cls-25 {
        fill: #674300;
      }

      .cls-26 {
        fill: #4c3300;
      }

      .cls-27 {
        fill: #614800;
      }

      .cls-28 {
        fill: #f9b63e;
      }

      .cls-29 {
        fill: #364f38;
      }

      .cls-30 {
        fill: #718e55;
      }

      .cls-31 {
        fill: #d1c5a6;
        opacity: 0.54;
      }

      .cls-32 {
        opacity: 0.34;
      }

      .cls-33 {
        fill: url(#linear-gradient-4);
      }

      .cls-34 {
        fill: url(#linear-gradient-5);
      }

      .cls-35 {
        clip-path: url(#clip-path);
      }

      .cls-36, .cls-38 {
        fill: #7f391b;
      }

      .cls-36 {
        opacity: 0.06;
      }

      .cls-37 {
        clip-path: url(#clip-path-2);
      }

      .cls-38 {
        opacity: 0.09;
      }

      .cls-39 {
        fill: #5d3419;
      }

      .cls-40 {
        fill: #3a1f10;
      }

      .cls-41 {
        fill: none;
        stroke: #5d3419;
        stroke-miterlimit: 10;
        stroke-width: 0.5px;
      }

      .cls-42 {
        fill: #723f24;
      }

      .cls-43 {
        fill: #4c1f00;
      }

      .cls-44 {
        fill: #a8ccfe;
      }

      .cls-45 {
        clip-path: url(#clip-path-3);
      }

      .cls-46 {
        opacity: 0.71;
        fill: url(#linear-gradient-9);
      }

      .cls-47 {
        fill: url(#linear-gradient-10);
      }

      .cls-48 {
        clip-path: url(#clip-path-4);
      }

      .cls-49 {
        clip-path: url(#clip-path-5);
      }

      .cls-50 {
        fill: #ce5738;
        opacity: 0.26;
      }

      .cls-51 {
        fill: url(#_ÂÁ_Ï_ÌÌ_È_ËÂÌÚ_154);
      }

      .cls-52 {
        fill: url(#_ÂÁ_Ï_ÌÌ_È_ËÂÌÚ_224);
      }

      .cls-53 {
        fill: url(#_ÂÁ_Ï_ÌÌ_È_ËÂÌÚ_181);
      }

      .cls-54 {
        fill: #553e77;
      }

      .cls-55 {
        fill: url(#_ÂÁ_Ï_ÌÌ_È_ËÂÌÚ_154-2);
      }

      .cls-56 {
        fill: url(#_ÂÁ_Ï_ÌÌ_È_ËÂÌÚ_224-2);
      }

      .cls-57 {
        fill: url(#_ÂÁ_Ï_ÌÌ_È_ËÂÌÚ_181-2);
      }

      .cls-58 {
        fill: #fda787;
      }

      .cls-59 {
        fill: #cf6b5f;
      }

      .cls-60 {
        fill: #9e6654;
      }

      .cls-61 {
        fill: #7c2b29;
      }

      .cls-62 {
        fill: #4f1310;
      }

      .cls-63 {
        fill: #fedb50;
      }

      .cls-64 {
        fill: #ed918a;
      }

      .cls-65 {
        fill: #9b3d38;
      }

      .cls-66 {
        fill: #b24d4b;
      }

      .cls-67 {
        fill: #993a3a;
      }

      .cls-68 {
        fill: url(#_ÂÁ_Ï_ÌÌ_È_ËÂÌÚ_211);
      }

      .cls-69 {
        fill: url(#_ÂÁ_Ï_ÌÌ_È_ËÂÌÚ_207);
      }

      .cls-70 {
        fill: url(#_ÂÁ_Ï_ÌÌ_È_ËÂÌÚ_207-2);
      }

      .cls-71 {
        fill: url(#_ÂÁ_Ï_ÌÌ_È_ËÂÌÚ_211-2);
      }

      .cls-72 {
        fill: url(#_ÂÁ_Ï_ÌÌ_È_ËÂÌÚ_207-3);
      }

      .cls-73 {
        fill: url(#_ÂÁ_Ï_ÌÌ_È_ËÂÌÚ_211-3);
      }

      .cls-74 {
        fill: url(#_ÂÁ_Ï_ÌÌ_È_ËÂÌÚ_207-4);
      }

      .cls-75 {
        fill: url(#_ÂÁ_Ï_ÌÌ_È_ËÂÌÚ_179);
      }

      .cls-76 {
        fill: url(#_ÂÁ_Ï_ÌÌ_È_ËÂÌÚ_211-4);
      }

      .cls-77 {
        fill: url(#_ÂÁ_Ï_ÌÌ_È_ËÂÌÚ_207-5);
      }

      .cls-78 {
        fill: url(#_ÂÁ_Ï_ÌÌ_È_ËÂÌÚ_140);
      }

      .cls-79 {
        fill: url(#_ÂÁ_Ï_ÌÌ_È_ËÂÌÚ_140-2);
      }

      .cls-80 {
        fill: url(#_ÂÁ_Ï_ÌÌ_È_ËÂÌÚ_140-3);
      }

      .cls-81 {
        fill: url(#_ÂÁ_Ï_ÌÌ_È_ËÂÌÚ_140-4);
      }

      .cls-82 {
        fill: url(#_ÂÁ_Ï_ÌÌ_È_ËÂÌÚ_211-5);
      }

      .cls-83 {
        fill: url(#_ÂÁ_Ï_ÌÌ_È_ËÂÌÚ_207-6);
      }

      .cls-101, .cls-84 {
        mix-blend-mode: screen;
      }

      .cls-84 {
        fill: url(#_ÂÁ_Ï_ÌÌ_È_ËÂÌÚ_233);
      }

      .cls-85 {
        fill: url(#_ÂÁ_Ï_ÌÌ_È_ËÂÌÚ_211-6);
      }

      .cls-86 {
        fill: url(#_ÂÁ_Ï_ÌÌ_È_ËÂÌÚ_207-7);
      }

      .cls-87 {
        fill: url(#_ÂÁ_Ï_ÌÌ_È_ËÂÌÚ_207-8);
      }

      .cls-88 {
        fill: url(#_ÂÁ_Ï_ÌÌ_È_ËÂÌÚ_211-7);
      }

      .cls-89 {
        fill: url(#_ÂÁ_Ï_ÌÌ_È_ËÂÌÚ_207-9);
      }

      .cls-90 {
        fill: url(#_ÂÁ_Ï_ÌÌ_È_ËÂÌÚ_211-8);
      }

      .cls-91 {
        fill: url(#_ÂÁ_Ï_ÌÌ_È_ËÂÌÚ_207-10);
      }

      .cls-92 {
        fill: url(#_ÂÁ_Ï_ÌÌ_È_ËÂÌÚ_179-2);
      }

      .cls-93 {
        fill: url(#_ÂÁ_Ï_ÌÌ_È_ËÂÌÚ_211-9);
      }

      .cls-94 {
        fill: url(#_ÂÁ_Ï_ÌÌ_È_ËÂÌÚ_207-11);
      }

      .cls-95 {
        fill: url(#_ÂÁ_Ï_ÌÌ_È_ËÂÌÚ_140-5);
      }

      .cls-96 {
        fill: url(#_ÂÁ_Ï_ÌÌ_È_ËÂÌÚ_140-6);
      }

      .cls-97 {
        fill: url(#_ÂÁ_Ï_ÌÌ_È_ËÂÌÚ_140-7);
      }

      .cls-98 {
        fill: url(#_ÂÁ_Ï_ÌÌ_È_ËÂÌÚ_140-8);
      }

      .cls-99 {
        fill: url(#_ÂÁ_Ï_ÌÌ_È_ËÂÌÚ_211-10);
      }

      .cls-100 {
        fill: url(#_ÂÁ_Ï_ÌÌ_È_ËÂÌÚ_207-12);
      }

      .cls-101 {
        fill: url(#_ÂÁ_Ï_ÌÌ_È_ËÂÌÚ_233-2);
      }

      .cls-102 {
        fill: #dfd9e4;
      }

      .cls-103 {
        fill: #e6e3e9;
      }

      .cls-104 {
        fill: #d5cddc;
      }

      .cls-105 {
        fill: #edecee;
      }

      .cls-106 {
        fill: #f4692f;
      }

      .cls-107 {
        fill: #961d23;
      }

      .cls-108 {
        fill: #aa3939;
      }
    </style>
    <linearGradient id="linear-gradient" x1="565.52" y1="359.46" x2="587.75" y2="359.46" gradientTransform="translate(-53.24 -30.3) rotate(-3.75)" gradientUnits="userSpaceOnUse">
      <stop offset="0" stop-color="#f0c7a5"/>
      <stop offset="1" stop-color="#eea98e"/>
    </linearGradient>
    <linearGradient id="linear-gradient-2" x1="-378.74" y1="540.64" x2="-312.63" y2="540.64" gradientTransform="matrix(-0.86, 0.51, 0.51, 0.86, -25.7, -39.67)" xlink:href="#linear-gradient"/>
    <linearGradient id="linear-gradient-3" x1="507" y1="344.16" x2="594.79" y2="344.16" gradientUnits="userSpaceOnUse">
      <stop offset="0" stop-color="#161730"/>
      <stop offset="1" stop-color="#3f2a48"/>
    </linearGradient>
    <linearGradient id="_ÂÁ_Ï_ÌÌ_È_ËÂÌÚ_56" data-name="¡ÂÁ˚ÏˇÌÌ˚È „‡‰ËÂÌÚ 56" x1="98" y1="252.62" x2="277" y2="252.62" gradientUnits="userSpaceOnUse">
      <stop offset="0.01" stop-color="#fdd9d6"/>
      <stop offset="0.22" stop-color="#efd3dd"/>
      <stop offset="0.71" stop-color="#d3c7ea"/>
      <stop offset="1" stop-color="#c9c2ef"/>
    </linearGradient>
    <linearGradient id="_ÂÁ_Ï_ÌÌ_È_ËÂÌÚ_56-2" y1="347" y2="347" xlink:href="#_ÂÁ_Ï_ÌÌ_È_ËÂÌÚ_56"/>
    <linearGradient id="_ÂÁ_Ï_ÌÌ_È_ËÂÌÚ_56-3" y1="445.5" y2="445.5" xlink:href="#_ÂÁ_Ï_ÌÌ_È_ËÂÌÚ_56"/>
    <linearGradient id="_ÂÁ_Ï_ÌÌ_È_ËÂÌÚ_56-4" y1="544" y2="544" xlink:href="#_ÂÁ_Ï_ÌÌ_È_ËÂÌÚ_56"/>
    <linearGradient id="linear-gradient-4" x1="-1509.01" y1="-474.2" x2="-1476.95" y2="-474.2" gradientTransform="matrix(0.59, -0.17, -0.11, -0.4, 1429.92, -56.7)" xlink:href="#linear-gradient"/>
    <linearGradient id="linear-gradient-5" x1="425.82" y1="207.48" x2="451.14" y2="207.48" gradientTransform="translate(512.9 -228.51) rotate(64.29)" gradientUnits="userSpaceOnUse">
      <stop offset="0" stop-color="#eea98e"/>
      <stop offset="1" stop-color="#f0c7a5"/>
    </linearGradient>
    <clipPath id="clip-path">
      <path class="cls-1" d="M552.1,306l-10.42-.12a3.89,3.89,0,0,1-3.79-3.21l-4-22.62a3.89,3.89,0,0,1,3.58-4.57l14.41-.94a3.89,3.89,0,0,1,4.15,3.87l0,23.69A3.9,3.9,0,0,1,552.1,306Z"/>
    </clipPath>
    <clipPath id="clip-path-2">
      <path class="cls-2" d="M556.36,290.14l1.89-.37a8.1,8.1,0,0,0,3.22-1.41c7.59-5.61,9.77-13.3,12.43-19.83a52.25,52.25,0,0,0,3-29.88h0a34.5,34.5,0,0,0-40.4-27.13h0C518.75,215,506.77,226,509,248.71a1.28,1.28,0,0,0,2.3.63h0c2.32,11.79,2.47,4.81,15,29,1.76,3.4,2.92,8.1,9,9C549,289.35,549.14,291.56,556.36,290.14Z"/>
    </clipPath>
    <clipPath id="clip-path-3">
      <path class="cls-3" d="M551,351.33c5.06,8.08,15-51,15-51L580,304h0a34,34,0,0,1,6,2.81l7,4.19c2.15,1.05,2,5.16,1.41,7.67L579.05,384a4.91,4.91,0,0,1-4.65,4H523.27a5,5,0,0,1-4.73-4.41l-11.47-73.66a5.26,5.26,0,0,1,4-6.15l12.25-2"/>
    </clipPath>
    <linearGradient id="linear-gradient-9" x1="465" y1="357" x2="556.98" y2="357" gradientUnits="userSpaceOnUse">
      <stop offset="0.81" stop-color="#161730"/>
      <stop offset="1" stop-color="#3f2a48"/>
    </linearGradient>
    <linearGradient id="linear-gradient-10" x1="70.41" y1="4193.81" x2="106.83" y2="4193.81" gradientTransform="matrix(0.19, -0.66, 0.46, 0.13, -1430.17, -115.01)" xlink:href="#linear-gradient"/>
    <clipPath id="clip-path-4">
      <path class="cls-4" d="M514.35,303.17C495,303,490.3,308.7,488.57,319.86l-7.47,48c-1.36,8.76,5.49,17.1,15.31,18.63h0c6.72,1.05,7.06-3.45,8-9.45Z"/>
    </clipPath>
    <clipPath id="clip-path-5">
      <path class="cls-5" d="M566.81,310.93a5.24,5.24,0,0,1-8.08,4l-5.61-3.67a7.7,7.7,0,0,1-6.8-.21,6.74,6.74,0,0,1-.62.42l-4.44,2.65A6.19,6.19,0,0,1,531.9,309c-.61-16.78-.92-16.84,13.26-8.51a7.48,7.48,0,0,1,9.07-.34C569,292.31,568.21,292.67,566.81,310.93Z"/>
    </clipPath>
    <linearGradient id="_ÂÁ_Ï_ÌÌ_È_ËÂÌÚ_154" data-name="¡ÂÁ˚ÏˇÌÌ˚È „‡‰ËÂÌÚ 154" x1="203.12" y1="104.47" x2="373.4" y2="104.47" gradientUnits="userSpaceOnUse">
      <stop offset="0" stop-color="#9b97bd"/>
      <stop offset="1" stop-color="#aeadcd"/>
    </linearGradient>
    <linearGradient id="_ÂÁ_Ï_ÌÌ_È_ËÂÌÚ_224" data-name="¡ÂÁ˚ÏˇÌÌ˚È „‡‰ËÂÌÚ 224" x1="-1456.22" y1="-347.92" x2="-1456.22" y2="-371.63" gradientTransform="translate(-71.72 1540.98) rotate(90)" gradientUnits="userSpaceOnUse">
      <stop offset="0" stop-color="#65032c"/>
      <stop offset="1" stop-color="#a52413"/>
    </linearGradient>
    <linearGradient id="_ÂÁ_Ï_ÌÌ_È_ËÂÌÚ_181" data-name="¡ÂÁ˚ÏˇÌÌ˚È „‡‰ËÂÌÚ 181" x1="-1449.16" y1="-344.39" x2="-1449.16" y2="-375.16" gradientTransform="translate(-71.72 1540.98) rotate(90)" gradientUnits="userSpaceOnUse">
      <stop offset="0" stop-color="#cec5d9"/>
      <stop offset="1" stop-color="#fdebcf"/>
    </linearGradient>
    <linearGradient id="_ÂÁ_Ï_ÌÌ_È_ËÂÌÚ_154-2" x1="621.12" y1="105.47" x2="791.4" y2="105.47" xlink:href="#_ÂÁ_Ï_ÌÌ_È_ËÂÌÚ_154"/>
    <linearGradient id="_ÂÁ_Ï_ÌÌ_È_ËÂÌÚ_224-2" x1="-1455.22" y1="-765.92" x2="-1455.22" y2="-789.63" xlink:href="#_ÂÁ_Ï_ÌÌ_È_ËÂÌÚ_224"/>
    <linearGradient id="_ÂÁ_Ï_ÌÌ_È_ËÂÌÚ_181-2" x1="-1448.16" y1="-762.39" x2="-1448.16" y2="-793.16" xlink:href="#_ÂÁ_Ï_ÌÌ_È_ËÂÌÚ_181"/>
    <linearGradient id="_ÂÁ_Ï_ÌÌ_È_ËÂÌÚ_211" data-name="¡ÂÁ˚ÏˇÌÌ˚È „‡‰ËÂÌÚ 211" x1="441.78" y1="653" x2="441.78" y2="442.52" gradientUnits="userSpaceOnUse">
      <stop offset="0" stop-color="#5e5278"/>
      <stop offset="0.29" stop-color="#5c4c71"/>
      <stop offset="0.72" stop-color="#563b5c"/>
      <stop offset="1" stop-color="#512d4b"/>
    </linearGradient>
    <linearGradient id="_ÂÁ_Ï_ÌÌ_È_ËÂÌÚ_207" data-name="¡ÂÁ˚ÏˇÌÌ˚È „‡‰ËÂÌÚ 207" x1="437.72" y1="653" x2="437.72" y2="442.52" gradientUnits="userSpaceOnUse">
      <stop offset="0" stop-color="#3f2a48"/>
      <stop offset="0.23" stop-color="#322440"/>
      <stop offset="0.69" stop-color="#1d1a34"/>
      <stop offset="1" stop-color="#161730"/>
    </linearGradient>
    <linearGradient id="_ÂÁ_Ï_ÌÌ_È_ËÂÌÚ_207-2" x1="-978.41" x2="-978.41" y2="442.52" gradientTransform="matrix(-1, 0, 0, 1, -423.86, 0)" xlink:href="#_ÂÁ_Ï_ÌÌ_È_ËÂÌÚ_207"/>
    <linearGradient id="_ÂÁ_Ï_ÌÌ_È_ËÂÌÚ_211-2" x1="-982.47" x2="-982.47" y2="442.52" gradientTransform="matrix(-1, 0, 0, 1, -423.86, 0)" xlink:href="#_ÂÁ_Ï_ÌÌ_È_ËÂÌÚ_211"/>
    <linearGradient id="_ÂÁ_Ï_ÌÌ_È_ËÂÌÚ_207-3" x1="-944.5" x2="-944.5" y2="442.52" gradientTransform="matrix(-1, 0, 0, 1, -423.86, 0)" xlink:href="#_ÂÁ_Ï_ÌÌ_È_ËÂÌÚ_207"/>
    <linearGradient id="_ÂÁ_Ï_ÌÌ_È_ËÂÌÚ_211-3" x1="-948.56" x2="-948.56" y2="442.52" gradientTransform="matrix(-1, 0, 0, 1, -423.86, 0)" xlink:href="#_ÂÁ_Ï_ÌÌ_È_ËÂÌÚ_211"/>
    <linearGradient id="_ÂÁ_Ï_ÌÌ_È_ËÂÌÚ_207-4" x1="499.7" y1="613.86" x2="499.7" y2="607.95" xlink:href="#_ÂÁ_Ï_ÌÌ_È_ËÂÌÚ_207"/>
    <linearGradient id="_ÂÁ_Ï_ÌÌ_È_ËÂÌÚ_179" data-name="¡ÂÁ˚ÏˇÌÌ˚È „‡‰ËÂÌÚ 179" x1="471.55" y1="610.23" x2="564" y2="610.23" gradientUnits="userSpaceOnUse">
      <stop offset="0" stop-color="#5b3955"/>
      <stop offset="0.15" stop-color="#593e5c"/>
      <stop offset="0.66" stop-color="#534d71"/>
      <stop offset="1" stop-color="#515278"/>
    </linearGradient>
    <linearGradient id="_ÂÁ_Ï_ÌÌ_È_ËÂÌÚ_211-4" x1="478.64" x2="478.64" y2="442.52" xlink:href="#_ÂÁ_Ï_ÌÌ_È_ËÂÌÚ_211"/>
    <linearGradient id="_ÂÁ_Ï_ÌÌ_È_ËÂÌÚ_207-5" x1="474.57" x2="474.57" y2="442.52" xlink:href="#_ÂÁ_Ï_ÌÌ_È_ËÂÌÚ_207"/>
    <linearGradient id="_ÂÁ_Ï_ÌÌ_È_ËÂÌÚ_140" data-name="¡ÂÁ˚ÏˇÌÌ˚È „‡‰ËÂÌÚ 140" x1="545.82" y1="468.22" x2="545.82" y2="450.4" gradientUnits="userSpaceOnUse">
      <stop offset="0" stop-color="#b3708f"/>
      <stop offset="1" stop-color="#857082"/>
    </linearGradient>
    <linearGradient id="_ÂÁ_Ï_ÌÌ_È_ËÂÌÚ_140-2" x1="518.79" y1="466.43" x2="518.79" y2="450.4" xlink:href="#_ÂÁ_Ï_ÌÌ_È_ËÂÌÚ_140"/>
    <linearGradient id="_ÂÁ_Ï_ÌÌ_È_ËÂÌÚ_140-3" x1="477.81" y1="467.26" x2="477.81" y2="450.4" xlink:href="#_ÂÁ_Ï_ÌÌ_È_ËÂÌÚ_140"/>
    <linearGradient id="_ÂÁ_Ï_ÌÌ_È_ËÂÌÚ_140-4" x1="446.1" y1="465.45" x2="446.1" y2="450.4" xlink:href="#_ÂÁ_Ï_ÌÌ_È_ËÂÌÚ_140"/>
    <linearGradient id="_ÂÁ_Ï_ÌÌ_È_ËÂÌÚ_211-5" x1="486.7" y1="450.13" x2="554.35" y2="450.13" xlink:href="#_ÂÁ_Ï_ÌÌ_È_ËÂÌÚ_211"/>
    <linearGradient id="_ÂÁ_Ï_ÌÌ_È_ËÂÌÚ_207-6" x1="436.75" y1="449.88" x2="486.7" y2="449.88" xlink:href="#_ÂÁ_Ï_ÌÌ_È_ËÂÌÚ_207"/>
    <linearGradient id="_ÂÁ_Ï_ÌÌ_È_ËÂÌÚ_233" data-name="¡ÂÁ˚ÏˇÌÌ˚È „‡‰ËÂÌÚ 233" x1="517.78" y1="453.89" x2="517.78" y2="446.7" gradientUnits="userSpaceOnUse">
      <stop offset="0" stop-color="#00011f"/>
      <stop offset="1" stop-color="#6c4b68"/>
    </linearGradient>
    <linearGradient id="_ÂÁ_Ï_ÌÌ_È_ËÂÌÚ_211-6" x1="683.96" y1="652.88" x2="683.96" y2="442.4" xlink:href="#_ÂÁ_Ï_ÌÌ_È_ËÂÌÚ_211"/>
    <linearGradient id="_ÂÁ_Ï_ÌÌ_È_ËÂÌÚ_207-7" x1="679.9" y1="652.88" x2="679.9" y2="442.4" xlink:href="#_ÂÁ_Ï_ÌÌ_È_ËÂÌÚ_207"/>
    <linearGradient id="_ÂÁ_Ï_ÌÌ_È_ËÂÌÚ_207-8" x1="-1220.58" y1="652.88" x2="-1220.58" y2="442.4" gradientTransform="matrix(-1, 0, 0, 1, -423.86, 0)" xlink:href="#_ÂÁ_Ï_ÌÌ_È_ËÂÌÚ_207"/>
    <linearGradient id="_ÂÁ_Ï_ÌÌ_È_ËÂÌÚ_211-7" x1="-1224.64" y1="652.88" x2="-1224.64" y2="442.4" gradientTransform="matrix(-1, 0, 0, 1, -423.86, 0)" xlink:href="#_ÂÁ_Ï_ÌÌ_È_ËÂÌÚ_211"/>
    <linearGradient id="_ÂÁ_Ï_ÌÌ_È_ËÂÌÚ_207-9" x1="-1186.68" y1="652.88" x2="-1186.68" y2="442.4" gradientTransform="matrix(-1, 0, 0, 1, -423.86, 0)" xlink:href="#_ÂÁ_Ï_ÌÌ_È_ËÂÌÚ_207"/>
    <linearGradient id="_ÂÁ_Ï_ÌÌ_È_ËÂÌÚ_211-8" x1="-1190.74" y1="652.88" x2="-1190.74" y2="442.4" gradientTransform="matrix(-1, 0, 0, 1, -423.86, 0)" xlink:href="#_ÂÁ_Ï_ÌÌ_È_ËÂÌÚ_211"/>
    <linearGradient id="_ÂÁ_Ï_ÌÌ_È_ËÂÌÚ_207-10" x1="741.88" y1="613.74" x2="741.88" y2="607.83" xlink:href="#_ÂÁ_Ï_ÌÌ_È_ËÂÌÚ_207"/>
    <linearGradient id="_ÂÁ_Ï_ÌÌ_È_ËÂÌÚ_179-2" x1="713.72" y1="610.11" x2="806.17" y2="610.11" xlink:href="#_ÂÁ_Ï_ÌÌ_È_ËÂÌÚ_179"/>
    <linearGradient id="_ÂÁ_Ï_ÌÌ_È_ËÂÌÚ_211-9" x1="720.81" y1="652.88" x2="720.81" y2="442.4" xlink:href="#_ÂÁ_Ï_ÌÌ_È_ËÂÌÚ_211"/>
    <linearGradient id="_ÂÁ_Ï_ÌÌ_È_ËÂÌÚ_207-11" x1="716.75" y1="652.88" x2="716.75" y2="442.4" xlink:href="#_ÂÁ_Ï_ÌÌ_È_ËÂÌÚ_207"/>
    <linearGradient id="_ÂÁ_Ï_ÌÌ_È_ËÂÌÚ_140-5" x1="788" y1="468.09" x2="788" y2="450.28" xlink:href="#_ÂÁ_Ï_ÌÌ_È_ËÂÌÚ_140"/>
    <linearGradient id="_ÂÁ_Ï_ÌÌ_È_ËÂÌÚ_140-6" x1="760.96" y1="466.31" x2="760.96" y2="450.28" xlink:href="#_ÂÁ_Ï_ÌÌ_È_ËÂÌÚ_140"/>
    <linearGradient id="_ÂÁ_Ï_ÌÌ_È_ËÂÌÚ_140-7" x1="719.99" y1="467.13" x2="719.99" y2="450.28" xlink:href="#_ÂÁ_Ï_ÌÌ_È_ËÂÌÚ_140"/>
    <linearGradient id="_ÂÁ_Ï_ÌÌ_È_ËÂÌÚ_140-8" x1="688.27" y1="465.32" x2="688.27" y2="450.28" xlink:href="#_ÂÁ_Ï_ÌÌ_È_ËÂÌÚ_140"/>
    <linearGradient id="_ÂÁ_Ï_ÌÌ_È_ËÂÌÚ_211-10" x1="728.88" y1="450.01" x2="796.52" y2="450.01" xlink:href="#_ÂÁ_Ï_ÌÌ_È_ËÂÌÚ_211"/>
    <linearGradient id="_ÂÁ_Ï_ÌÌ_È_ËÂÌÚ_207-12" x1="678.92" y1="449.76" x2="728.88" y2="449.76" xlink:href="#_ÂÁ_Ï_ÌÌ_È_ËÂÌÚ_207"/>
    <linearGradient id="_ÂÁ_Ï_ÌÌ_È_ËÂÌÚ_233-2" x1="759.96" y1="453.77" x2="759.96" y2="446.58" xlink:href="#_ÂÁ_Ï_ÌÌ_È_ËÂÌÚ_233"/>
  </defs>
  <g class="cls-6">
    <g id="Layer_2" data-name="Layer 2">
      <rect class="cls-7" y="634" width="1025" height="134"/>
      <rect class="cls-8" y="48" width="1025" height="587"/>
      <rect class="cls-9" width="1026" height="48"/>
    </g>
    <g id="Layer_7" data-name="Layer 7">
      <rect class="cls-4" x="74" y="222" width="224" height="421"/>
      <rect class="cls-10" x="81" y="231" width="206" height="400"/>
      <rect class="cls-11" x="89" y="231" width="198" height="400"/>
      <polygon class="cls-12" points="74 643 28 636 28 228 74 222 74 643"/>
      <polygon class="cls-13" points="277 623 98 623 98 492.8 98 236 277 236 277 623"/>
      <rect class="cls-14" x="224" y="236" width="53" height="387"/>
      <rect class="cls-15" x="98" y="317" width="179" height="9"/>
      <rect class="cls-15" x="98" y="422" width="179" height="9"/>
      <rect class="cls-15" x="98" y="523" width="179" height="9"/>
      <polygon class="cls-16" points="277 236 224 258 98 269.25 98 236 277 236"/>
      <polygon class="cls-17" points="277 326 224 349 98 368 98 326 277 326"/>
      <polygon class="cls-18" points="277 431 224 454 98 460 98 431 277 431"/>
      <polygon class="cls-19" points="277 532 224 555 98 556 98 532 277 532"/>
      <polygon class="cls-20" points="97.61 390 86 390 86 393 94.44 393 94.44 460 86 460 86 463 105 463 105 390 97.61 390"/>
      <polygon class="cls-21" points="105 463 97 461 97 390 105 390 105 463"/>
      <path class="cls-22" d="M105,463l-8-2H86v2Z"/>
      <g class="cls-23">
        <rect class="cls-24" x="118.02" y="263.04" width="7.42" height="20.4"/>
        <polygon class="cls-24" points="112.45 284.37 118.02 276.02 125.44 276.02 131 284.37 112.45 284.37"/>
        <rect class="cls-24" x="112.45" y="284.37" width="18.55" height="32.45"/>
        <polygon class="cls-24" points="117.86 260.43 125.59 260.43 126.36 263.21 117.09 263.21 117.86 260.43"/>
      </g>
      <g class="cls-23">
        <rect class="cls-24" x="151.28" y="263.45" width="7.42" height="20.31"/>
        <polygon class="cls-24" points="145.72 284.68 151.28 276.37 158.7 276.37 164.26 284.68 145.72 284.68"/>
        <rect class="cls-24" x="145.72" y="284.68" width="18.55" height="32.32"/>
        <polygon class="cls-24" points="151.13 260.84 158.85 260.84 159.63 263.61 150.35 263.61 151.13 260.84"/>
      </g>
      <g class="cls-23">
        <rect class="cls-24" x="191.14" y="263.15" width="7.42" height="20.4"/>
        <polygon class="cls-24" points="185.58 284.48 191.14 276.13 198.56 276.13 204.12 284.48 185.58 284.48"/>
        <rect class="cls-24" x="185.58" y="284.48" width="18.55" height="32.45"/>
        <polygon class="cls-24" points="190.99 260.53 198.71 260.53 199.49 263.31 190.21 263.31 190.99 260.53"/>
      </g>
      <g>
        <rect class="cls-25" x="134.77" y="258.89" width="8" height="22"/>
        <polygon class="cls-25" points="128.77 281.89 134.77 272.89 142.77 272.89 148.77 281.89 128.77 281.89"/>
        <rect class="cls-25" x="128.77" y="281.89" width="20" height="35"/>
        <polygon class="cls-26" points="135.34 272.94 129.5 281.9 129.5 315.89 148.77 315.89 148.77 281.89 142.77 272.89 135.34 272.94"/>
        <path class="cls-27" d="M137.24,272.94l-5.84,9v32a19.58,19.58,0,0,1,16.37,0V281.8l-6-8.91Z"/>
        <rect class="cls-28" x="134.77" y="260.89" width="8" height="12"/>
        <rect class="cls-28" x="130.77" y="294.89" width="16" height="8"/>
        <path class="cls-28" d="M130.77,294.89s1-3,8-3,8,3,8,3Z"/>
        <polygon class="cls-29" points="134.6 256.89 142.94 256.89 143.77 259.89 133.77 259.89 134.6 256.89"/>
        <path class="cls-30" d="M134.77,256.89s3,2,8,0Z"/>
        <path class="cls-31" d="M141.08,275l.92,6.68v35.29h4.16v-35l-3.39-7S141.45,275,141.08,275Z"/>
      </g>
      <g>
        <rect class="cls-25" x="168.82" y="258.89" width="8" height="22"/>
        <polygon class="cls-25" points="162.82 281.89 168.82 272.89 176.82 272.89 182.82 281.89 162.82 281.89"/>
        <rect class="cls-25" x="162.82" y="281.89" width="20" height="35"/>
        <polygon class="cls-26" points="169.38 272.94 163.54 281.9 163.54 315.89 182.82 315.89 182.82 281.89 176.82 272.89 169.38 272.94"/>
        <path class="cls-27" d="M171.29,272.94l-5.84,9v32a19.58,19.58,0,0,1,16.37,0V281.8l-6-8.91Z"/>
        <rect class="cls-28" x="168.82" y="260.89" width="8" height="12"/>
        <rect class="cls-28" x="164.82" y="294.89" width="16" height="8"/>
        <path class="cls-28" d="M164.82,294.89s1-3,8-3,8,3,8,3Z"/>
        <polygon class="cls-29" points="168.65 256.89 176.98 256.89 177.82 259.89 167.82 259.89 168.65 256.89"/>
        <path class="cls-30" d="M168.82,256.89s3,2,8,0Z"/>
        <path class="cls-31" d="M175.13,275l.92,6.68v35.29h4.16v-35l-3.39-7S175.5,275,175.13,275Z"/>
      </g>
      <g>
        <rect class="cls-25" x="208.18" y="258.89" width="8" height="22"/>
        <polygon class="cls-25" points="202.18 281.89 208.18 272.89 216.18 272.89 222.18 281.89 202.18 281.89"/>
        <rect class="cls-25" x="202.18" y="281.89" width="20" height="35"/>
        <polygon class="cls-26" points="208.74 272.94 202.9 281.9 202.9 315.89 222.18 315.89 222.18 281.89 216.18 272.89 208.74 272.94"/>
        <path class="cls-27" d="M210.65,272.94l-5.84,9v32a19.58,19.58,0,0,1,16.37,0V281.8l-6-8.91Z"/>
        <rect class="cls-28" x="208.18" y="260.89" width="8" height="12"/>
        <rect class="cls-28" x="204.18" y="294.89" width="16" height="8"/>
        <path class="cls-28" d="M204.18,294.89s1-3,8-3,8,3,8,3Z"/>
        <polygon class="cls-29" points="208.01 256.89 216.34 256.89 217.18 259.89 207.18 259.89 208.01 256.89"/>
        <path class="cls-30" d="M208.18,256.89s3,2,8,0Z"/>
        <path class="cls-31" d="M214.49,275l.92,6.68v35.29h4.16v-35l-3.39-7S214.86,275,214.49,275Z"/>
      </g>
      <g>
        <rect class="cls-25" x="228.2" y="258.89" width="8" height="22"/>
        <polygon class="cls-25" points="222.2 281.89 228.2 272.89 236.2 272.89 242.2 281.89 222.2 281.89"/>
        <rect class="cls-25" x="222.2" y="281.89" width="20" height="35"/>
        <polygon class="cls-26" points="228.76 272.94 222.92 281.9 222.92 315.89 242.2 315.89 242.2 281.89 236.2 272.89 228.76 272.94"/>
        <path class="cls-27" d="M230.67,272.94l-5.84,9v32a19.58,19.58,0,0,1,16.37,0V281.8l-6-8.91Z"/>
        <rect class="cls-28" x="228.2" y="260.89" width="8" height="12"/>
        <rect class="cls-28" x="224.2" y="294.89" width="16" height="8"/>
        <path class="cls-28" d="M224.2,294.89s1-3,8-3,8,3,8,3Z"/>
        <polygon class="cls-29" points="228.03 256.89 236.36 256.89 237.2 259.89 227.2 259.89 228.03 256.89"/>
        <path class="cls-30" d="M228.2,256.89s3,2,8,0Z"/>
        <path class="cls-31" d="M234.51,275l.92,6.68v35.29h4.16v-35l-3.39-7S234.88,275,234.51,275Z"/>
      </g>
      <g class="cls-23">
        <rect class="cls-24" x="120.15" y="368.37" width="7.42" height="20.4"/>
        <polygon class="cls-24" points="114.59 389.7 120.15 381.35 127.57 381.35 133.13 389.7 114.59 389.7"/>
        <rect class="cls-24" x="114.59" y="389.7" width="18.55" height="32.45"/>
        <polygon class="cls-24" points="120 365.75 127.73 365.75 128.5 368.54 119.23 368.54 120 365.75"/>
      </g>
      <g class="cls-23">
        <rect class="cls-24" x="153.42" y="368.78" width="7.42" height="20.31"/>
        <polygon class="cls-24" points="147.85 390.01 153.42 381.7 160.84 381.7 166.4 390.01 147.85 390.01"/>
        <rect class="cls-24" x="147.85" y="390.01" width="18.55" height="32.32"/>
        <polygon class="cls-24" points="153.26 366.17 160.99 366.17 161.76 368.94 152.49 368.94 153.26 366.17"/>
      </g>
      <g class="cls-23">
        <rect class="cls-24" x="193.27" y="368.48" width="7.42" height="20.4"/>
        <polygon class="cls-24" points="187.71 389.81 193.28 381.46 200.69 381.46 206.26 389.81 187.71 389.81"/>
        <rect class="cls-24" x="187.71" y="389.81" width="18.55" height="32.45"/>
        <polygon class="cls-24" points="193.12 365.86 200.85 365.86 201.62 368.65 192.35 368.65 193.12 365.86"/>
      </g>
      <g>
        <rect class="cls-25" x="136.91" y="364.23" width="8" height="22"/>
        <polygon class="cls-25" points="130.91 387.23 136.91 378.23 144.91 378.23 150.91 387.23 130.91 387.23"/>
        <rect class="cls-25" x="130.91" y="387.23" width="20" height="35"/>
        <polygon class="cls-26" points="137.47 378.27 131.63 387.23 131.63 421.23 150.91 421.23 150.91 387.23 144.91 378.23 137.47 378.27"/>
        <path class="cls-27" d="M139.38,378.27l-5.84,9v32a19.58,19.58,0,0,1,16.37,0v-32.1l-6-8.9Z"/>
        <rect class="cls-28" x="136.91" y="366.23" width="8" height="12"/>
        <rect class="cls-28" x="132.91" y="400.23" width="16" height="8"/>
        <path class="cls-28" d="M132.91,400.23s1-3,8-3,8,3,8,3Z"/>
        <polygon class="cls-29" points="136.74 362.23 145.07 362.23 145.91 365.23 135.91 365.23 136.74 362.23"/>
        <path class="cls-30" d="M136.91,362.23s3,2,8,0Z"/>
        <path class="cls-31" d="M143.22,380.29l.92,6.68v35.29h4.16v-35l-3.39-7S143.59,380.29,143.22,380.29Z"/>
      </g>
      <g>
        <rect class="cls-25" x="170.95" y="364.23" width="8" height="22"/>
        <polygon class="cls-25" points="164.95 387.23 170.95 378.23 178.95 378.23 184.95 387.23 164.95 387.23"/>
        <rect class="cls-25" x="164.95" y="387.23" width="20" height="35"/>
        <polygon class="cls-26" points="171.52 378.27 165.68 387.23 165.68 421.23 184.95 421.23 184.95 387.23 178.95 378.23 171.52 378.27"/>
        <path class="cls-27" d="M173.42,378.27l-5.84,9v32a19.58,19.58,0,0,1,16.37,0v-32.1l-6-8.9Z"/>
        <rect class="cls-28" x="170.95" y="366.23" width="8" height="12"/>
        <rect class="cls-28" x="166.95" y="400.23" width="16" height="8"/>
        <path class="cls-28" d="M167,400.23s1-3,8-3,8,3,8,3Z"/>
        <polygon class="cls-29" points="170.78 362.23 179.12 362.23 179.95 365.23 169.95 365.23 170.78 362.23"/>
        <path class="cls-30" d="M171,362.23s3,2,8,0Z"/>
        <path class="cls-31" d="M177.26,380.29l.92,6.68v35.29h4.17v-35l-3.4-7S177.64,380.29,177.26,380.29Z"/>
      </g>
      <g>
        <rect class="cls-25" x="210.31" y="364.23" width="8" height="22"/>
        <polygon class="cls-25" points="204.31 387.23 210.31 378.23 218.31 378.23 224.31 387.23 204.31 387.23"/>
        <rect class="cls-25" x="204.31" y="387.23" width="20" height="35"/>
        <polygon class="cls-26" points="210.88 378.27 205.04 387.23 205.04 421.23 224.31 421.23 224.31 387.23 218.31 378.23 210.88 378.27"/>
        <path class="cls-27" d="M212.78,378.27l-5.83,9v32a19.55,19.55,0,0,1,16.36,0v-32.1l-6-8.9Z"/>
        <rect class="cls-28" x="210.31" y="366.23" width="8" height="12"/>
        <rect class="cls-28" x="206.31" y="400.23" width="16" height="8"/>
        <path class="cls-28" d="M206.31,400.23s1-3,8-3,8,3,8,3Z"/>
        <polygon class="cls-29" points="210.15 362.23 218.48 362.23 219.31 365.23 209.31 365.23 210.15 362.23"/>
        <path class="cls-30" d="M210.31,362.23s3,2,8,0Z"/>
        <path class="cls-31" d="M216.63,380.29l.91,6.68v35.29h4.17v-35l-3.4-7S217,380.29,216.63,380.29Z"/>
      </g>
      <g>
        <rect class="cls-25" x="230.33" y="364.23" width="8" height="22"/>
        <polygon class="cls-25" points="224.33 387.23 230.33 378.23 238.33 378.23 244.33 387.23 224.33 387.23"/>
        <rect class="cls-25" x="224.33" y="387.23" width="20" height="35"/>
        <polygon class="cls-26" points="230.9 378.27 225.06 387.23 225.06 421.23 244.33 421.23 244.33 387.23 238.33 378.23 230.9 378.27"/>
        <path class="cls-27" d="M232.8,378.27l-5.84,9v32a19.58,19.58,0,0,1,16.37,0v-32.1l-6-8.9Z"/>
        <rect class="cls-28" x="230.33" y="366.23" width="8" height="12"/>
        <rect class="cls-28" x="226.33" y="400.23" width="16" height="8"/>
        <path class="cls-28" d="M226.33,400.23s1-3,8-3,8,3,8,3Z"/>
        <polygon class="cls-29" points="230.16 362.23 238.5 362.23 239.33 365.23 229.33 365.23 230.16 362.23"/>
        <path class="cls-30" d="M230.33,362.23s3,2,8,0Z"/>
        <path class="cls-31" d="M236.65,380.29l.91,6.68v35.29h4.17v-35l-3.4-7S237,380.29,236.65,380.29Z"/>
      </g>
      <g class="cls-23">
        <rect class="cls-24" x="121.81" y="468.47" width="7.42" height="20.4"/>
        <polygon class="cls-24" points="116.24 489.79 121.81 481.45 129.22 481.45 134.79 489.79 116.24 489.79"/>
        <rect class="cls-24" x="116.24" y="489.79" width="18.55" height="32.45"/>
        <polygon class="cls-24" points="121.65 465.85 129.38 465.85 130.15 468.63 120.88 468.63 121.65 465.85"/>
      </g>
      <g class="cls-23">
        <rect class="cls-24" x="155.07" y="468.87" width="7.42" height="20.31"/>
        <polygon class="cls-24" points="149.51 490.11 155.07 481.8 162.49 481.8 168.05 490.11 149.51 490.11"/>
        <rect class="cls-24" x="149.51" y="490.11" width="18.55" height="32.32"/>
        <polygon class="cls-24" points="154.91 466.26 162.64 466.26 163.41 469.03 154.14 469.03 154.91 466.26"/>
      </g>
      <g class="cls-23">
        <rect class="cls-24" x="194.93" y="468.57" width="7.42" height="20.4"/>
        <polygon class="cls-24" points="189.36 489.9 194.93 481.56 202.34 481.56 207.91 489.9 189.36 489.9"/>
        <rect class="cls-24" x="189.36" y="489.9" width="18.55" height="32.45"/>
        <polygon class="cls-24" points="194.77 465.96 202.5 465.96 203.27 468.74 194 468.74 194.77 465.96"/>
      </g>
      <g>
        <rect class="cls-25" x="138.56" y="464.32" width="8" height="22"/>
        <polygon class="cls-25" points="132.56 487.32 138.56 478.32 146.56 478.32 152.56 487.32 132.56 487.32"/>
        <rect class="cls-25" x="132.56" y="487.32" width="20" height="35"/>
        <polygon class="cls-26" points="139.12 478.36 133.28 487.32 133.28 521.32 152.56 521.32 152.56 487.32 146.56 478.32 139.12 478.36"/>
        <path class="cls-27" d="M141,478.36l-5.84,9v32a19.58,19.58,0,0,1,16.37,0v-32.1l-6-8.9Z"/>
        <rect class="cls-28" x="138.56" y="466.32" width="8" height="12"/>
        <rect class="cls-28" x="134.56" y="500.32" width="16" height="8"/>
        <path class="cls-28" d="M134.56,500.32s1-3,8-3,8,3,8,3Z"/>
        <polygon class="cls-29" points="138.39 462.32 146.72 462.32 147.56 465.32 137.56 465.32 138.39 462.32"/>
        <path class="cls-30" d="M138.56,462.32s3,2,8,0Z"/>
        <path class="cls-31" d="M144.87,480.38l.92,6.68v35.3H150v-35l-3.39-7S145.24,480.38,144.87,480.38Z"/>
      </g>
      <g>
        <rect class="cls-25" x="172.6" y="464.32" width="8" height="22"/>
        <polygon class="cls-25" points="166.6 487.32 172.6 478.32 180.6 478.32 186.6 487.32 166.6 487.32"/>
        <rect class="cls-25" x="166.6" y="487.32" width="20" height="35"/>
        <polygon class="cls-26" points="173.17 478.36 167.33 487.32 167.33 521.32 186.6 521.32 186.6 487.32 180.6 478.32 173.17 478.36"/>
        <path class="cls-27" d="M175.08,478.36l-5.84,9v32a19.55,19.55,0,0,1,16.36,0v-32.1l-6-8.9Z"/>
        <rect class="cls-28" x="172.6" y="466.32" width="8" height="12"/>
        <rect class="cls-28" x="168.6" y="500.32" width="16" height="8"/>
        <path class="cls-28" d="M168.6,500.32s1-3,8-3,8,3,8,3Z"/>
        <polygon class="cls-29" points="172.44 462.32 180.77 462.32 181.6 465.32 171.6 465.32 172.44 462.32"/>
        <path class="cls-30" d="M172.6,462.32s3,2,8,0Z"/>
        <path class="cls-31" d="M178.92,480.38l.91,6.68v35.3H184v-35l-3.4-7S179.29,480.38,178.92,480.38Z"/>
      </g>
      <g>
        <rect class="cls-25" x="211.96" y="464.32" width="8" height="22"/>
        <polygon class="cls-25" points="205.97 487.32 211.97 478.32 219.97 478.32 225.97 487.32 205.97 487.32"/>
        <rect class="cls-25" x="205.96" y="487.32" width="20" height="35"/>
        <polygon class="cls-26" points="212.53 478.36 206.69 487.32 206.69 521.32 225.97 521.32 225.97 487.32 219.97 478.32 212.53 478.36"/>
        <path class="cls-27" d="M214.44,478.36l-5.84,9v32a19.55,19.55,0,0,1,16.36,0v-32.1l-6-8.9Z"/>
        <rect class="cls-28" x="211.96" y="466.32" width="8" height="12"/>
        <rect class="cls-28" x="207.96" y="500.32" width="16" height="8"/>
        <path class="cls-28" d="M208,500.32s1-3,8-3,8,3,8,3Z"/>
        <polygon class="cls-29" points="211.8 462.32 220.13 462.32 220.97 465.32 210.97 465.32 211.8 462.32"/>
        <path class="cls-30" d="M212,462.32s3,2,8,0Z"/>
        <path class="cls-31" d="M218.28,480.38l.91,6.68v35.3h4.17v-35l-3.4-7S218.65,480.38,218.28,480.38Z"/>
      </g>
      <g>
        <rect class="cls-25" x="231.98" y="464.32" width="8" height="22"/>
        <polygon class="cls-25" points="225.98 487.32 231.98 478.32 239.98 478.32 245.98 487.32 225.98 487.32"/>
        <rect class="cls-25" x="225.98" y="487.32" width="20" height="35"/>
        <polygon class="cls-26" points="232.55 478.36 226.71 487.32 226.71 521.32 245.98 521.32 245.98 487.32 239.98 478.32 232.55 478.36"/>
        <path class="cls-27" d="M234.46,478.36l-5.84,9v32a19.55,19.55,0,0,1,16.36,0v-32.1l-6-8.9Z"/>
        <rect class="cls-28" x="231.98" y="466.32" width="8" height="12"/>
        <rect class="cls-28" x="227.98" y="500.32" width="16" height="8"/>
        <path class="cls-28" d="M228,500.32s1-3,8-3,8,3,8,3Z"/>
        <polygon class="cls-29" points="231.82 462.32 240.15 462.32 240.98 465.32 230.98 465.32 231.82 462.32"/>
        <path class="cls-30" d="M232,462.32s3,2,8,0Z"/>
        <path class="cls-31" d="M238.3,480.38l.91,6.68v35.3h4.17v-35l-3.4-7S238.67,480.38,238.3,480.38Z"/>
      </g>
      <g class="cls-23">
        <rect class="cls-24" x="125.17" y="569.49" width="7.42" height="20.4"/>
        <polygon class="cls-24" points="119.61 590.82 125.17 582.47 132.59 582.47 138.16 590.82 119.61 590.82"/>
        <rect class="cls-24" x="119.61" y="590.82" width="18.55" height="32.45"/>
        <polygon class="cls-24" points="125.02 566.88 132.75 566.88 133.52 569.66 124.25 569.66 125.02 566.88"/>
      </g>
      <g class="cls-23">
        <rect class="cls-24" x="158.44" y="569.9" width="7.42" height="20.31"/>
        <polygon class="cls-24" points="152.88 591.13 158.44 582.82 165.86 582.82 171.42 591.13 152.88 591.13"/>
        <rect class="cls-24" x="152.87" y="591.13" width="18.55" height="32.32"/>
        <polygon class="cls-24" points="158.28 567.29 166.01 567.29 166.78 570.06 157.51 570.06 158.28 567.29"/>
      </g>
      <g class="cls-23">
        <rect class="cls-24" x="198.3" y="569.6" width="7.42" height="20.4"/>
        <polygon class="cls-24" points="192.73 590.93 198.3 582.58 205.71 582.58 211.28 590.93 192.73 590.93"/>
        <rect class="cls-24" x="192.73" y="590.93" width="18.55" height="32.45"/>
        <polygon class="cls-24" points="198.14 566.99 205.87 566.99 206.64 569.77 197.37 569.77 198.14 566.99"/>
      </g>
      <g>
        <rect class="cls-25" x="141.93" y="565.35" width="8" height="22"/>
        <polygon class="cls-25" points="135.93 588.35 141.93 579.35 149.93 579.35 155.93 588.35 135.93 588.35"/>
        <rect class="cls-25" x="135.93" y="588.35" width="20" height="35"/>
        <polygon class="cls-26" points="142.49 579.39 136.65 588.35 136.65 622.35 155.93 622.35 155.93 588.35 149.93 579.35 142.49 579.39"/>
        <path class="cls-27" d="M144.4,579.39l-5.84,9v32a19.58,19.58,0,0,1,16.37,0v-32.1l-6-8.9Z"/>
        <rect class="cls-28" x="141.93" y="567.35" width="8" height="12"/>
        <rect class="cls-28" x="137.93" y="601.35" width="16" height="8"/>
        <path class="cls-28" d="M137.93,601.35s1-3,8-3,8,3,8,3Z"/>
        <polygon class="cls-29" points="141.76 563.35 150.09 563.35 150.93 566.35 140.93 566.35 141.76 563.35"/>
        <path class="cls-30" d="M141.93,563.35s3,2,8,0Z"/>
        <path class="cls-31" d="M148.24,581.41l.92,6.68v35.29h4.16v-35l-3.39-7S148.61,581.41,148.24,581.41Z"/>
      </g>
      <g>
        <rect class="cls-25" x="175.97" y="565.35" width="8" height="22"/>
        <polygon class="cls-25" points="169.97 588.35 175.97 579.35 183.97 579.35 189.97 588.35 169.97 588.35"/>
        <rect class="cls-25" x="169.97" y="588.35" width="20" height="35"/>
        <polygon class="cls-26" points="176.54 579.39 170.7 588.35 170.7 622.35 189.97 622.35 189.97 588.35 183.97 579.35 176.54 579.39"/>
        <path class="cls-27" d="M178.44,579.39l-5.83,9v32a19.55,19.55,0,0,1,16.36,0v-32.1l-6-8.9Z"/>
        <rect class="cls-28" x="175.97" y="567.35" width="8" height="12"/>
        <rect class="cls-28" x="171.97" y="601.35" width="16" height="8"/>
        <path class="cls-28" d="M172,601.35s1-3,8-3,8,3,8,3Z"/>
        <polygon class="cls-29" points="175.81 563.35 184.14 563.35 184.97 566.35 174.97 566.35 175.81 563.35"/>
        <path class="cls-30" d="M176,563.35s3,2,8,0Z"/>
        <path class="cls-31" d="M182.29,581.41l.91,6.68v35.29h4.17v-35l-3.4-7S182.66,581.41,182.29,581.41Z"/>
      </g>
      <g>
        <rect class="cls-25" x="215.33" y="565.35" width="8" height="22"/>
        <polygon class="cls-25" points="209.33 588.35 215.33 579.35 223.33 579.35 229.33 588.35 209.33 588.35"/>
        <rect class="cls-25" x="209.33" y="588.35" width="20" height="35"/>
        <polygon class="cls-26" points="215.9 579.39 210.06 588.35 210.06 622.35 229.33 622.35 229.33 588.35 223.33 579.35 215.9 579.39"/>
        <path class="cls-27" d="M217.81,579.39l-5.84,9v32a19.55,19.55,0,0,1,16.36,0v-32.1l-6-8.9Z"/>
        <rect class="cls-28" x="215.33" y="567.35" width="8" height="12"/>
        <rect class="cls-28" x="211.33" y="601.35" width="16" height="8"/>
        <path class="cls-28" d="M211.33,601.35s1-3,8-3,8,3,8,3Z"/>
        <polygon class="cls-29" points="215.17 563.35 223.5 563.35 224.33 566.35 214.33 566.35 215.17 563.35"/>
        <path class="cls-30" d="M215.33,563.35s3,2,8,0Z"/>
        <path class="cls-31" d="M221.65,581.41l.91,6.68v35.29h4.17v-35l-3.4-7S222,581.41,221.65,581.41Z"/>
      </g>
      <g>
        <rect class="cls-25" x="235.35" y="565.35" width="8" height="22"/>
        <polygon class="cls-25" points="229.35 588.35 235.35 579.35 243.35 579.35 249.35 588.35 229.35 588.35"/>
        <rect class="cls-25" x="229.35" y="588.35" width="20" height="35"/>
        <polygon class="cls-26" points="235.92 579.39 230.08 588.35 230.08 622.35 249.35 622.35 249.35 588.35 243.35 579.35 235.92 579.39"/>
        <path class="cls-27" d="M237.82,579.39l-5.83,9v32a19.55,19.55,0,0,1,16.36,0v-32.1l-6-8.9Z"/>
        <rect class="cls-28" x="235.35" y="567.35" width="8" height="12"/>
        <rect class="cls-28" x="231.35" y="601.35" width="16" height="8"/>
        <path class="cls-28" d="M231.35,601.35s1-3,8-3,8,3,8,3Z"/>
        <polygon class="cls-29" points="235.19 563.35 243.52 563.35 244.35 566.35 234.35 566.35 235.19 563.35"/>
        <path class="cls-30" d="M235.35,563.35s3,2,8,0Z"/>
        <path class="cls-31" d="M241.67,581.41l.91,6.68v35.29h4.17v-35l-3.4-7S242,581.41,241.67,581.41Z"/>
      </g>
      <polygon class="cls-32" points="287 231 224 231 110.89 631.21 287 631.21 287 231"/>
      <g>
        <rect class="cls-25" x="386.03" y="328.23" width="8" height="22"/>
        <polygon class="cls-25" points="380.03 351.23 386.03 342.23 394.03 342.23 400.03 351.23 380.03 351.23"/>
        <rect class="cls-25" x="380.03" y="351.23" width="20" height="35"/>
        <polygon class="cls-26" points="386.6 342.27 380.75 351.23 380.75 385.23 400.03 385.23 400.03 351.23 394.03 342.23 386.6 342.27"/>
        <path class="cls-27" d="M388.5,342.27l-5.84,9v32a19.58,19.58,0,0,1,16.37,0v-32.1l-6-8.9Z"/>
        <rect class="cls-28" x="386.03" y="330.23" width="8" height="12"/>
        <rect class="cls-28" x="382.03" y="364.23" width="16" height="8"/>
        <path class="cls-28" d="M382,364.23s1-3,8-3,8,3,8,3Z"/>
        <polygon class="cls-29" points="385.86 326.23 394.2 326.23 395.03 329.23 385.03 329.23 385.86 326.23"/>
        <path class="cls-30" d="M386,326.23s3,2,8,0Z"/>
        <path class="cls-31" d="M392.34,344.29l.92,6.68v35.3h4.16v-35l-3.39-7S392.71,344.29,392.34,344.29Z"/>
      </g>
      <g>
        <rect class="cls-25" x="420.08" y="328.23" width="8" height="22"/>
        <polygon class="cls-25" points="414.07 351.23 420.07 342.23 428.07 342.23 434.07 351.23 414.07 351.23"/>
        <rect class="cls-25" x="414.08" y="351.23" width="20" height="35"/>
        <polygon class="cls-26" points="420.64 342.27 414.8 351.23 414.8 385.23 434.07 385.23 434.07 351.23 428.07 342.23 420.64 342.27"/>
        <path class="cls-27" d="M422.55,342.27l-5.84,9v32a19.58,19.58,0,0,1,16.37,0v-32.1l-6-8.9Z"/>
        <rect class="cls-28" x="420.08" y="330.23" width="8" height="12"/>
        <rect class="cls-28" x="416.08" y="364.23" width="16" height="8"/>
        <path class="cls-28" d="M416.08,364.23s1-3,8-3,8,3,8,3Z"/>
        <polygon class="cls-29" points="419.91 326.23 428.24 326.23 429.07 329.23 419.07 329.23 419.91 326.23"/>
        <path class="cls-30" d="M420.08,326.23s3,2,8,0Z"/>
        <path class="cls-31" d="M426.39,344.29l.92,6.68v35.3h4.16v-35l-3.39-7S426.76,344.29,426.39,344.29Z"/>
      </g>
    </g>
    <g id="Layer_11" data-name="Layer 11">
      <path class="cls-33" d="M599,348l.79-.65c4.88-1.38,7.68,3.25,9.21,8.65l7.37,48.31c1.28,4.51,8.71,11.35,4.65,12.5h0c-7.77,2.19-16-3-18.46-11.59l-11.41-40.39C589,357.14,592.05,350,599,348Z"/>
      <path class="cls-4" d="M607.79,365.73l-3.24,1.58a11.72,11.72,0,0,1-15.67-5.38l-17-34.75a11.71,11.71,0,0,1,5.38-15.66l3.24-1.59a11.71,11.71,0,0,1,15.66,5.38l11.07,35.91C610.09,357,613.6,362.89,607.79,365.73Z"/>
      <ellipse class="cls-34" cx="516.15" cy="256.56" rx="8.1" ry="13.5" transform="translate(11.84 535.67) rotate(-55.39)"/>
      <g>
        <path class="cls-1" d="M552.1,306l-10.42-.12a3.89,3.89,0,0,1-3.79-3.21l-4-22.62a3.89,3.89,0,0,1,3.58-4.57l14.41-.94a3.89,3.89,0,0,1,4.15,3.87l0,23.69A3.9,3.9,0,0,1,552.1,306Z"/>
        <g class="cls-35">
          <path class="cls-36" d="M572.85,279.63s-20.3,19.72-44.07,20.05-7.46-49.2-7.46-49.2Z"/>
        </g>
      </g>
      <g>
        <path class="cls-2" d="M556.36,290.14l1.89-.37a8.1,8.1,0,0,0,3.22-1.41c7.59-5.61,9.77-13.3,12.43-19.83a52.25,52.25,0,0,0,3-29.88h0a34.5,34.5,0,0,0-40.4-27.13h0C518.75,215,506.77,226,509,248.71a1.28,1.28,0,0,0,2.3.63h0c2.32,11.79,2.47,4.81,15,29,1.76,3.4,2.92,8.1,9,9C549,289.35,549.14,291.56,556.36,290.14Z"/>
        <g class="cls-37">
          <path class="cls-38" d="M548.39,290.06,481,278l4-48,44-21s-22.85,60.31,19.39,81.06c90.56,44.48,22.22,4,0,0"/>
        </g>
      </g>
      <path class="cls-39" d="M557.73,236.59c-.2-1.22,3.22-2.76,7.62-3.45a18.73,18.73,0,0,1,10.72,1.44c1.49.75-5.63,2.28-10,3S557.92,237.8,557.73,236.59Z"/>
      <path class="cls-21" d="M570.17,246.33l3-1.58s-9.35-11.3-17.92.81l1.46.74A14.59,14.59,0,0,0,570.17,246.33Z"/>
      <path class="cls-39" d="M547,238c0-1.23-3.55-2.32-8-2.43a18.86,18.86,0,0,0-10.45,2.83c-1.38.95,5.89,1.52,10.34,1.63S546.94,239.2,547,238Z"/>
      <circle class="cls-40" cx="563.86" cy="244.41" r="3.37"/>
      <path class="cls-21" d="M538.92,270.41A10.8,10.8,0,1,0,560.47,269"/>
      <path class="cls-41" d="M557,240.07a8.06,8.06,0,0,0-4.5,4.21c-1.71,3.81-.35,8.69,1.77,11.67,1.86,2.62,3.77,3,3.66,3.95-.22,1.92-8.23,3-10.25-.61a4.84,4.84,0,0,1-.24-3.74"/>
      <circle class="cls-21" cx="564.1" cy="244.11" r="1.19"/>
      <circle class="cls-40" cx="538.14" cy="245.81" r="0.64"/>
      <path class="cls-39" d="M560.23,267c5.73-.41,12.82-1.47,12.79-2.27.06,1.76-15.35-1.45-16.6-1.41a101.57,101.57,0,0,0-32.65,6.46,49.09,49.09,0,0,1,9.93-2.55C544,265.6,546.49,268,560.23,267Z"/>
      <path class="cls-42" d="M573.15,244.75s-9.35-11.3-17.92.81l6.82-3.8a4.52,4.52,0,0,1,3.73-.39Z"/>
      <path class="cls-21" d="M540.8,249.42l3.06-1.4s-8.66-11.83-17.93-.25l1.42.82A14.54,14.54,0,0,0,540.8,249.42Z"/>
      <circle class="cls-40" cx="534.75" cy="247.29" r="3.37"/>
      <path class="cls-42" d="M543.86,248s-8.66-11.83-17.93-.25l7-3.38a4.49,4.49,0,0,1,3.74-.18Z"/>
      <circle class="cls-21" cx="534.19" cy="247.33" r="1.26"/>
      <path class="cls-4" d="M541,303l17.71-3.07a2.88,2.88,0,0,1,1.52.21l24.11,10.24c1.81.76,3,3.2,2.88,5.76L573,384c-.14,2.37-4.3,6.72-6,7l-30,8.08c-1.82.29-3.61-1.29-4.24-3.75l-19.52-76.64c-.73-2.84-3-12.12-2.22-14.69l27.71-3.79C539.72,302.32,540.8,303,541,303Z"/>
      <path class="cls-43" d="M514,259c1,.29-7-11-7.3-15.34,0,0,0,0,0,0C499,228,518,207.57,524.27,201.34c5.42-5.4,4,4.81,12.85,3.67h0c-1.92-2.52,11.36-3.17,14.15-1.67,4.07,2.18-2.23,2,.15,2.73,12,3.42,17.5,14.76,24.41,25.48,2.44,3.79-1,2.36-2.2,1.81,0,0-23-16.45-23.36-12-1,12-25.25-3.25-29,3"/>
      <path class="cls-44" d="M553,357c-5-40-5-55-5-55"/>
      <g>
        <path class="cls-3" d="M551,351.33c5.06,8.08,15-51,15-51L580,304h0a34,34,0,0,1,6,2.81l7,4.19c2.15,1.05,2,5.16,1.41,7.67L579.05,384a4.91,4.91,0,0,1-4.65,4H523.27a5,5,0,0,1-4.73-4.41l-11.47-73.66a5.26,5.26,0,0,1,4-6.15l12.25-2"/>
        <g class="cls-45">
          <path class="cls-46" d="M503,289l11,5s3.2,101.93,33,111c46,14-82,20-82,20V366Z"/>
        </g>
      </g>
      <path class="cls-47" d="M562,394.11l.81-1.44a4.85,4.85,0,0,0,.66-2.25c.06-3.59-4.46-4-8.78-5.2a5.71,5.71,0,0,1-.79-.28L495.94,358.8a5.3,5.3,0,0,0-1-.34,7.8,7.8,0,0,0-9,5.61l4.91,3.09c-2.4,8.4-1.14,13.38,7,15.71l50,16.77a14.88,14.88,0,0,0,6.8.06A11.28,11.28,0,0,0,562,394.11Z"/>
      <path class="cls-4" d="M515.48,366.28l-17-3.43a7.65,7.65,0,0,0-8.08,7.21l1.21,7.61c-.49,8.47,4.69,9.44,13.16,9.93l9.61.55"/>
      <g>
        <path class="cls-4" d="M514.35,303.17C495,303,490.3,308.7,488.57,319.86l-7.47,48c-1.36,8.76,5.49,17.1,15.31,18.63h0c6.72,1.05,7.06-3.45,8-9.45Z"/>
        <g class="cls-48">
          <path class="cls-44" d="M555.34,312.63s-82.13,90.19-48.06,48.25c18.37-22.63,20.86-60,20.86-60Z"/>
        </g>
      </g>
      <g>
        <path class="cls-5" d="M566.81,310.93a5.24,5.24,0,0,1-8.08,4l-5.61-3.67a7.7,7.7,0,0,1-6.8-.21,6.74,6.74,0,0,1-.62.42l-4.44,2.65A6.19,6.19,0,0,1,531.9,309c-.61-16.78-.92-16.84,13.26-8.51a7.48,7.48,0,0,1,9.07-.34C569,292.31,568.21,292.67,566.81,310.93Z"/>
        <g class="cls-49">
          <polygon class="cls-50" points="508.23 304.18 506.07 293.35 567.76 277.72 568.89 297.71 508.23 304.18"/>
        </g>
      </g>
    </g>
    <g id="Layer_10" data-name="Layer 10">
      <g>
        <path class="cls-51" d="M203.12,107.92s64.81,11.75,170.28-2.9C373.4,105,306,84.2,203.12,107.92Z"/>
        <g>
          <path class="cls-52" d="M290.77,96.32A11.89,11.89,0,0,1,276.5,82.05a11.76,11.76,0,0,1,8.84-8.85,11.87,11.87,0,0,1,5.43,23.12Z"/>
          <path class="cls-53" d="M290.66,107a15.4,15.4,0,1,1,12.57-12.57A15.41,15.41,0,0,1,290.66,107Z"/>
        </g>
        <path class="cls-54" d="M203.12,107.92s35.17-24.23,73.16-35.8l19.32-2.7s42.13,11.2,77.8,35.6C373.4,105,313.61,85.14,203.12,107.92Z"/>
        <rect class="cls-54" x="276" y="57" width="20" height="16"/>
        <rect x="285" width="2" height="57"/>
      </g>
      <g>
        <path class="cls-55" d="M621.12,108.92s64.81,11.75,170.28-2.9C791.4,106,724,85.2,621.12,108.92Z"/>
        <g>
          <path class="cls-56" d="M708.77,97.32A11.89,11.89,0,0,1,694.5,83.05a11.76,11.76,0,0,1,8.84-8.85,11.87,11.87,0,0,1,5.43,23.12Z"/>
          <path class="cls-57" d="M708.66,108a15.4,15.4,0,1,1,12.57-12.57A15.41,15.41,0,0,1,708.66,108Z"/>
        </g>
        <path class="cls-54" d="M621.12,108.92s35.17-24.23,73.16-35.8l19.32-2.7s42.13,11.2,77.8,35.6C791.4,106,731.61,86.14,621.12,108.92Z"/>
        <rect class="cls-54" x="694" y="58" width="20" height="16"/>
        <rect x="703" y="1" width="2" height="57"/>
      </g>
    </g>
    <g id="Layer_3" data-name="Layer 3">
      <rect class="cls-58" x="235.33" y="386" width="550" height="20"/>
      <rect class="cls-59" x="255.33" y="413" width="510" height="220"/>
      <rect class="cls-58" x="235.33" y="633" width="550" height="20"/>
      <path class="cls-60" d="M235,406l20,7H765l20-7Z"/>
      <rect class="cls-61" x="286" y="440" width="128" height="164"/>
      <rect class="cls-59" x="305" y="461" width="89" height="123"/>
      <polygon class="cls-62" points="286 440 290 444.04 410 444.04 414 440 286 440"/>
      <polygon class="cls-63" points="286 604 290 599.39 410 599.39 414 604 286 604"/>
      <polygon class="cls-64" points="305 461 394 461 390 464 309 464 305 461"/>
      <polygon class="cls-65" points="305.22 584 394.22 584 390.22 581 309.22 581 305.22 584"/>
      <polygon class="cls-66" points="305 461 309 464 309 581 305 584 305 461"/>
      <polygon class="cls-66" points="394 461.11 390 464.11 390 581.11 394 584.11 394 461.11"/>
      <polygon class="cls-67" points="286 440 290 444 290 599 286 604 286 440"/>
      <polygon class="cls-67" points="414 440 410 444 410 599.39 414 604 414 440"/>
      <rect class="cls-61" x="446.76" y="439.81" width="128" height="164"/>
      <rect class="cls-59" x="465.76" y="460.81" width="89" height="123"/>
      <polygon class="cls-62" points="446.76 439.81 450.76 443.85 570.76 443.85 574.76 439.81 446.76 439.81"/>
      <polygon class="cls-63" points="446.76 603.81 450.76 599.2 570.76 599.2 574.76 603.81 446.76 603.81"/>
      <polygon class="cls-64" points="465.76 460.81 554.76 460.81 550.76 463.81 469.76 463.81 465.76 460.81"/>
      <polygon class="cls-65" points="465.98 583.81 554.98 583.81 550.98 580.81 469.98 580.81 465.98 583.81"/>
      <polygon class="cls-66" points="465.76 460.81 469.76 463.81 469.76 580.81 465.76 583.81 465.76 460.81"/>
      <polygon class="cls-66" points="554.76 460.92 550.76 463.92 550.76 580.92 554.76 583.92 554.76 460.92"/>
      <polygon class="cls-67" points="446.76 439.81 450.76 443.81 450.76 598.81 446.76 603.81 446.76 439.81"/>
      <polygon class="cls-67" points="574.76 439.81 570.76 443.81 570.76 599.2 574.76 603.81 574.76 439.81"/>
      <rect class="cls-61" x="605.52" y="439.52" width="128" height="164"/>
      <rect class="cls-59" x="624.52" y="460.52" width="89" height="123"/>
      <polygon class="cls-62" points="605.52 439.52 609.52 443.57 729.52 443.57 733.52 439.52 605.52 439.52"/>
      <polygon class="cls-63" points="605.52 603.52 609.52 598.91 729.52 598.91 733.52 603.52 605.52 603.52"/>
      <polygon class="cls-64" points="624.52 460.52 713.52 460.52 709.52 463.52 628.52 463.52 624.52 460.52"/>
      <polygon class="cls-65" points="624.73 583.52 713.73 583.52 709.73 580.52 628.73 580.52 624.73 583.52"/>
      <polygon class="cls-66" points="624.52 460.52 628.52 463.52 628.52 580.52 624.52 583.52 624.52 460.52"/>
      <polygon class="cls-66" points="713.52 460.63 709.52 463.63 709.52 580.63 713.52 583.63 713.52 460.63"/>
      <polygon class="cls-67" points="605.52 439.52 609.52 443.52 609.52 598.52 605.52 603.52 605.52 439.52"/>
      <polygon class="cls-67" points="733.52 439.52 729.52 443.52 729.52 598.91 733.52 603.52 733.52 439.52"/>
    </g>
    <g id="Layer_4" data-name="Layer 4">
      <ellipse class="cls-21" cx="495.5" cy="409.5" rx="58.5" ry="14.5"/>
      <polygon class="cls-68" points="431.36 653 446.51 442.52 452.21 442.52 432.92 653 431.36 653"/>
      <polygon class="cls-69" points="431.36 653 428.93 653 442.15 442.52 446.51 442.52 431.36 653"/>
      <polygon class="cls-70" points="569.57 653 545.22 442.52 539.53 442.52 568.01 653 569.57 653"/>
      <polygon class="cls-71" points="569.57 653 572 653 549.58 442.52 545.22 442.52 569.57 653"/>
      <polygon class="cls-72" points="528.06 653 518.91 442.52 513.22 442.52 526.5 653 528.06 653"/>
      <polygon class="cls-73" points="528.06 653 530.49 653 523.28 442.52 518.91 442.52 528.06 653"/>
      <polygon class="cls-74" points="563.73 607.95 479.94 607.95 435.66 608.73 435.34 613.84 480.44 613.86 564.06 613.33 563.73 607.95"/>
      <polygon class="cls-75" points="471.73 607.95 471.55 612.51 564 612.45 563.68 607.95 471.73 607.95"/>
      <polygon class="cls-76" points="474.22 653 477.36 442.52 483.05 442.52 475.78 653 474.22 653"/>
      <polygon class="cls-77" points="474.22 653 471.79 653 472.99 442.52 477.36 442.52 474.22 653"/>
      <polygon class="cls-78" points="551.05 456.31 547.19 459.56 543 468.22 540.59 450.4 550.42 450.4 551.05 456.31"/>
      <polygon class="cls-79" points="523.86 459.31 519.68 460.22 514.73 466.43 513.72 450.4 523.55 450.4 523.86 459.31"/>
      <polygon class="cls-80" points="482.47 459.31 477.11 459.31 472.85 467.26 472.95 450.4 482.78 450.4 482.47 459.31"/>
      <polygon class="cls-81" points="450.75 458.42 445.34 458.83 440.71 465.44 441.65 450.4 451.48 450.4 450.75 458.42"/>
      <polygon class="cls-82" points="553.67 453.89 554.35 446.37 486.7 446.37 486.7 453.89 553.67 453.89"/>
      <polygon class="cls-83" points="486.7 446.37 437.04 445.88 436.75 453.4 486.7 453.89 486.7 446.37"/>
      <polygon class="cls-84" points="507.57 447.38 502.94 453.89 526.93 453.89 532.62 446.7 507.57 447.38"/>
      <rect class="cls-4" x="437" y="409" width="117" height="38"/>
      <path class="cls-44" d="M437,409s50,36,117,38H437Z"/>
    </g>
    <g id="Layer_5" data-name="Layer 5">
      <ellipse class="cls-21" cx="737.67" cy="409.38" rx="58.5" ry="14.5"/>
      <polygon class="cls-85" points="673.53 652.88 688.69 442.4 694.38 442.4 675.09 652.88 673.53 652.88"/>
      <polygon class="cls-86" points="673.53 652.88 671.11 652.88 684.32 442.4 688.69 442.4 673.53 652.88"/>
      <polygon class="cls-87" points="811.75 652.88 787.39 442.4 781.7 442.4 810.19 652.88 811.75 652.88"/>
      <polygon class="cls-88" points="811.75 652.88 814.17 652.88 791.76 442.4 787.39 442.4 811.75 652.88"/>
      <polygon class="cls-89" points="770.24 652.88 761.09 442.4 755.4 442.4 768.68 652.88 770.24 652.88"/>
      <polygon class="cls-90" points="770.24 652.88 772.66 652.88 765.45 442.4 761.09 442.4 770.24 652.88"/>
      <polygon class="cls-91" points="805.9 607.83 722.11 607.83 677.83 608.61 677.51 613.72 722.62 613.74 806.24 613.21 805.9 607.83"/>
      <polygon class="cls-92" points="713.9 607.83 713.72 612.39 806.17 612.32 805.85 607.83 713.9 607.83"/>
      <polygon class="cls-93" points="716.39 652.88 719.53 442.4 725.22 442.4 717.95 652.88 716.39 652.88"/>
      <polygon class="cls-94" points="716.39 652.88 713.97 652.88 715.17 442.4 719.53 442.4 716.39 652.88"/>
      <polygon class="cls-95" points="793.23 456.19 789.36 459.43 785.18 468.09 782.77 450.28 792.6 450.28 793.23 456.19"/>
      <polygon class="cls-96" points="766.03 459.19 761.86 460.1 756.91 466.31 755.89 450.28 765.72 450.28 766.03 459.19"/>
      <polygon class="cls-97" points="724.64 459.19 719.28 459.19 715.02 467.13 715.12 450.28 724.95 450.28 724.64 459.19"/>
      <polygon class="cls-98" points="692.92 458.3 687.51 458.71 682.88 465.32 683.83 450.28 693.66 450.28 692.92 458.3"/>
      <polygon class="cls-99" points="795.85 453.77 796.52 446.24 728.88 446.24 728.88 453.77 795.85 453.77"/>
      <polygon class="cls-100" points="728.88 446.24 679.21 445.75 678.92 453.28 728.88 453.77 728.88 446.24"/>
      <polygon class="cls-101" points="749.75 447.26 745.12 453.77 769.1 453.77 774.79 446.58 749.75 447.26"/>
      <rect class="cls-4" x="679.17" y="408.88" width="117" height="38"/>
      <path class="cls-44" d="M679.17,408.88s50,36,117,38h-117Z"/>
    </g>
    <g id="Layer_8" data-name="Layer 8">
      <rect class="cls-102" x="656.16" y="314.21" width="18.79" height="71.79" transform="translate(1331.11 700.21) rotate(-180)"/>
      <path class="cls-21" d="M675,314.21s-1.42-6.78-9.36-6.78-9.43,6.78-9.43,6.78Z"/>
      <rect class="cls-103" x="656.16" y="314.21" width="8.25" height="71.79" transform="translate(1320.57 700.21) rotate(-180)"/>
      <path class="cls-104" d="M661.27,321.64s4,4.24,0,9.59H645.38s-4.27-.2-4.27,6.35h-9s1-15.77,12.61-15.77S661.27,321.64,661.27,321.64Z"/>
      <path class="cls-21" d="M644.62,322.41s-6.48,4.25-6.48,15.16h-5.47S633.53,322.33,644.62,322.41Z"/>
      <polygon class="cls-105" points="650.13 321.79 644.77 321.81 645.96 315.18 648.98 315.18 650.13 321.79"/>
      <path class="cls-106" d="M649,315.18h-3A69.93,69.93,0,0,1,646,272h2.8S656.15,292.71,649,315.18Z"/>
      <path class="cls-5" d="M646.49,272h1.65a66.78,66.78,0,0,1,2.79,13.16,71.52,71.52,0,0,1-2.58,30h-1.51"/>
    </g>
    <g id="Layer_9" data-name="Layer 9">
      <g>
        <rect class="cls-102" x="708.41" y="314.37" width="18.79" height="71.79" transform="translate(1435.6 700.54) rotate(-180)"/>
        <path class="cls-21" d="M727.19,314.37s-1.42-6.77-9.35-6.77-9.43,6.77-9.43,6.77Z"/>
        <rect class="cls-103" x="708.41" y="314.37" width="8.25" height="71.79" transform="translate(1425.06 700.54) rotate(-180)"/>
        <path class="cls-104" d="M713.52,321.81s4,4.24,0,9.59H697.63s-4.28-.21-4.28,6.34h-9S685.42,322,697,322,713.52,321.81,713.52,321.81Z"/>
        <path class="cls-21" d="M696.87,322.58s-6.49,4.24-6.49,15.16h-5.47S685.77,322.49,696.87,322.58Z"/>
        <polygon class="cls-105" points="702.38 321.96 697.02 321.98 698.21 315.35 701.23 315.35 702.38 321.96"/>
        <path class="cls-107" d="M701.23,315.35h-3a69.85,69.85,0,0,1,0-43.18H701S708.39,292.87,701.23,315.35Z"/>
        <path class="cls-108" d="M698.74,272.17h1.64a66.05,66.05,0,0,1,2.8,13.16,71.69,71.69,0,0,1-2.58,30h-1.51"/>
      </g>
    </g>
  </g>
</svg>
