<svg xmlns="http://www.w3.org/2000/svg" xmlns:xlink="http://www.w3.org/1999/xlink" viewBox="0 0 1026 768"><defs><linearGradient id="_ÂÁ_Ï_ÌÌ_È_ËÂÌÚ_56" x1="98" y1="252.62" x2="277" y2="252.62" gradientUnits="userSpaceOnUse"><stop offset="0.01" stop-color="#fdd9d6"/><stop offset="0.22" stop-color="#efd3dd"/><stop offset="0.71" stop-color="#d3c7ea"/><stop offset="1" stop-color="#c9c2ef"/></linearGradient><linearGradient id="_ÂÁ_Ï_ÌÌ_È_ËÂÌÚ_56-2" y1="347" y2="347" xlink:href="#_ÂÁ_Ï_ÌÌ_È_ËÂÌÚ_56"/><linearGradient id="_ÂÁ_Ï_ÌÌ_È_ËÂÌÚ_56-3" y1="445.5" y2="445.5" xlink:href="#_ÂÁ_Ï_ÌÌ_È_ËÂÌÚ_56"/><linearGradient id="_ÂÁ_Ï_ÌÌ_È_ËÂÌÚ_56-4" y1="544" y2="544" xlink:href="#_ÂÁ_Ï_ÌÌ_È_ËÂÌÚ_56"/><linearGradient id="linear-gradient" x1="-1530.09" y1="-16.49" x2="-1493.65" y2="-16.49" gradientTransform="matrix(-0.6, -0.32, -0.2, 0.37, -270.43, -159.28)" gradientUnits="userSpaceOnUse"><stop offset="0" stop-color="#f0c7a5"/><stop offset="1" stop-color="#eea98e"/></linearGradient><linearGradient id="linear-gradient-2" x1="429.6" y1="207.55" x2="454.92" y2="207.55" gradientTransform="translate(515.06 -231.3) rotate(64.29)" gradientUnits="userSpaceOnUse"><stop offset="0" stop-color="#eea98e"/><stop offset="1" stop-color="#f0c7a5"/></linearGradient><linearGradient id="linear-gradient-3" x1="569.23" y1="360.79" x2="591.46" y2="360.79" gradientTransform="translate(-53.24 -30.3) rotate(-3.75)" xlink:href="#linear-gradient"/><linearGradient id="linear-gradient-4" x1="-381.62" y1="543.11" x2="-314.77" y2="543.11" gradientTransform="matrix(-0.86, 0.51, 0.51, 0.86, -25.7, -39.67)" xlink:href="#linear-gradient"/><clipPath id="clip-path"><path d="M538.85,303.79,559.72,300a4.06,4.06,0,0,1,1.8.07l28.57,7.49a4.93,4.93,0,0,1,3.53,5l-2.93,65.71a4.52,4.52,0,0,1-3.54,4.36l-50.29,9.74a4.58,4.58,0,0,1-5.07-3.1l-25-68.62a4.79,4.79,0,0,1,2.6-6.19L538.16,304A4.43,4.43,0,0,1,538.85,303.79Z" style="fill:#f1f5ff"/></clipPath><linearGradient id="_ÂÁ_Ï_ÌÌ_È_ËÂÌÚ_207" x1="605.72" y1="521.04" x2="699.21" y2="521.04" gradientTransform="matrix(0.96, -0.16, 0.16, 0.99, -154.26, -67.69)" gradientUnits="userSpaceOnUse"><stop offset="0" stop-color="#3f2a48"/><stop offset="0.23" stop-color="#322440"/><stop offset="0.69" stop-color="#1d1a34"/><stop offset="1" stop-color="#161730"/></linearGradient><linearGradient id="_ÂÁ_Ï_ÌÌ_È_ËÂÌÚ_154" x1="203.12" y1="104.47" x2="373.4" y2="104.47" gradientUnits="userSpaceOnUse"><stop offset="0" stop-color="#9b97bd"/><stop offset="1" stop-color="#aeadcd"/></linearGradient><linearGradient id="_ÂÁ_Ï_ÌÌ_È_ËÂÌÚ_224" x1="-1456.22" y1="-347.92" x2="-1456.22" y2="-371.63" gradientTransform="translate(-71.72 1540.98) rotate(90)" gradientUnits="userSpaceOnUse"><stop offset="0" stop-color="#65032c"/><stop offset="1" stop-color="#a52413"/></linearGradient><linearGradient id="_ÂÁ_Ï_ÌÌ_È_ËÂÌÚ_181" x1="-1449.16" y1="-344.39" x2="-1449.16" y2="-375.16" gradientTransform="translate(-71.72 1540.98) rotate(90)" gradientUnits="userSpaceOnUse"><stop offset="0" stop-color="#cec5d9"/><stop offset="1" stop-color="#fdebcf"/></linearGradient><linearGradient id="_ÂÁ_Ï_ÌÌ_È_ËÂÌÚ_154-2" x1="621.12" y1="105.47" x2="791.4" y2="105.47" xlink:href="#_ÂÁ_Ï_ÌÌ_È_ËÂÌÚ_154"/><linearGradient id="_ÂÁ_Ï_ÌÌ_È_ËÂÌÚ_224-2" x1="-1455.22" y1="-765.92" x2="-1455.22" y2="-789.63" xlink:href="#_ÂÁ_Ï_ÌÌ_È_ËÂÌÚ_224"/><linearGradient id="_ÂÁ_Ï_ÌÌ_È_ËÂÌÚ_181-2" x1="-1448.16" y1="-762.39" x2="-1448.16" y2="-793.16" xlink:href="#_ÂÁ_Ï_ÌÌ_È_ËÂÌÚ_181"/><linearGradient id="linear-gradient-5" x1="73.14" y1="4342.65" x2="109.58" y2="4342.65" gradientTransform="matrix(-0.05, -0.69, 0.48, -0.03, -1481.2, 572.23)" xlink:href="#linear-gradient"/><linearGradient id="_ÂÁ_Ï_ÌÌ_È_ËÂÌÚ_211" x1="441.78" y1="653" x2="441.78" y2="442.52" gradientUnits="userSpaceOnUse"><stop offset="0" stop-color="#5e5278"/><stop offset="0.29" stop-color="#5c4c71"/><stop offset="0.72" stop-color="#563b5c"/><stop offset="1" stop-color="#512d4b"/></linearGradient><linearGradient id="_ÂÁ_Ï_ÌÌ_È_ËÂÌÚ_207-2" x1="437.72" y1="653" x2="437.72" y2="442.52" gradientTransform="matrix(1, 0, 0, 1, 0, 0)" xlink:href="#_ÂÁ_Ï_ÌÌ_È_ËÂÌÚ_207"/><linearGradient id="_ÂÁ_Ï_ÌÌ_È_ËÂÌÚ_207-3" x1="-978.41" y1="653" x2="-978.41" y2="442.52" gradientTransform="matrix(-1, 0, 0, 1, -423.86, 0)" xlink:href="#_ÂÁ_Ï_ÌÌ_È_ËÂÌÚ_207"/><linearGradient id="_ÂÁ_Ï_ÌÌ_È_ËÂÌÚ_211-2" x1="-982.47" x2="-982.47" y2="442.52" gradientTransform="matrix(-1, 0, 0, 1, -423.86, 0)" xlink:href="#_ÂÁ_Ï_ÌÌ_È_ËÂÌÚ_211"/><linearGradient id="_ÂÁ_Ï_ÌÌ_È_ËÂÌÚ_207-4" x1="-944.5" y1="653" x2="-944.5" y2="442.52" gradientTransform="matrix(-1, 0, 0, 1, -423.86, 0)" xlink:href="#_ÂÁ_Ï_ÌÌ_È_ËÂÌÚ_207"/><linearGradient id="_ÂÁ_Ï_ÌÌ_È_ËÂÌÚ_211-3" x1="-948.56" x2="-948.56" y2="442.52" gradientTransform="matrix(-1, 0, 0, 1, -423.86, 0)" xlink:href="#_ÂÁ_Ï_ÌÌ_È_ËÂÌÚ_211"/><linearGradient id="_ÂÁ_Ï_ÌÌ_È_ËÂÌÚ_207-5" x1="499.7" y1="613.86" x2="499.7" y2="607.95" gradientTransform="matrix(1, 0, 0, 1, 0, 0)" xlink:href="#_ÂÁ_Ï_ÌÌ_È_ËÂÌÚ_207"/><linearGradient id="_ÂÁ_Ï_ÌÌ_È_ËÂÌÚ_179" x1="471.55" y1="610.23" x2="564" y2="610.23" gradientUnits="userSpaceOnUse"><stop offset="0" stop-color="#5b3955"/><stop offset="0.15" stop-color="#593e5c"/><stop offset="0.66" stop-color="#534d71"/><stop offset="1" stop-color="#515278"/></linearGradient><linearGradient id="_ÂÁ_Ï_ÌÌ_È_ËÂÌÚ_211-4" x1="478.64" x2="478.64" y2="442.52" xlink:href="#_ÂÁ_Ï_ÌÌ_È_ËÂÌÚ_211"/><linearGradient id="_ÂÁ_Ï_ÌÌ_È_ËÂÌÚ_207-6" x1="474.57" y1="653" x2="474.57" y2="442.52" gradientTransform="matrix(1, 0, 0, 1, 0, 0)" xlink:href="#_ÂÁ_Ï_ÌÌ_È_ËÂÌÚ_207"/><linearGradient id="_ÂÁ_Ï_ÌÌ_È_ËÂÌÚ_140" x1="545.82" y1="468.22" x2="545.82" y2="450.4" gradientUnits="userSpaceOnUse"><stop offset="0" stop-color="#b3708f"/><stop offset="1" stop-color="#857082"/></linearGradient><linearGradient id="_ÂÁ_Ï_ÌÌ_È_ËÂÌÚ_140-2" x1="518.79" y1="466.43" x2="518.79" y2="450.4" xlink:href="#_ÂÁ_Ï_ÌÌ_È_ËÂÌÚ_140"/><linearGradient id="_ÂÁ_Ï_ÌÌ_È_ËÂÌÚ_140-3" x1="477.81" y1="467.26" x2="477.81" y2="450.4" xlink:href="#_ÂÁ_Ï_ÌÌ_È_ËÂÌÚ_140"/><linearGradient id="_ÂÁ_Ï_ÌÌ_È_ËÂÌÚ_140-4" x1="446.1" y1="465.45" x2="446.1" y2="450.4" xlink:href="#_ÂÁ_Ï_ÌÌ_È_ËÂÌÚ_140"/><linearGradient id="_ÂÁ_Ï_ÌÌ_È_ËÂÌÚ_211-5" x1="486.7" y1="450.13" x2="554.35" y2="450.13" xlink:href="#_ÂÁ_Ï_ÌÌ_È_ËÂÌÚ_211"/><linearGradient id="_ÂÁ_Ï_ÌÌ_È_ËÂÌÚ_207-7" x1="436.75" y1="449.88" x2="486.7" y2="449.88" gradientTransform="matrix(1, 0, 0, 1, 0, 0)" xlink:href="#_ÂÁ_Ï_ÌÌ_È_ËÂÌÚ_207"/><linearGradient id="_ÂÁ_Ï_ÌÌ_È_ËÂÌÚ_233" x1="517.78" y1="453.89" x2="517.78" y2="446.7" gradientUnits="userSpaceOnUse"><stop offset="0" stop-color="#00011f"/><stop offset="1" stop-color="#6c4b68"/></linearGradient><linearGradient id="_ÂÁ_Ï_ÌÌ_È_ËÂÌÚ_211-6" x1="683.96" y1="652.88" x2="683.96" y2="442.4" xlink:href="#_ÂÁ_Ï_ÌÌ_È_ËÂÌÚ_211"/><linearGradient id="_ÂÁ_Ï_ÌÌ_È_ËÂÌÚ_207-8" x1="679.9" y1="652.88" x2="679.9" y2="442.4" gradientTransform="matrix(1, 0, 0, 1, 0, 0)" xlink:href="#_ÂÁ_Ï_ÌÌ_È_ËÂÌÚ_207"/><linearGradient id="_ÂÁ_Ï_ÌÌ_È_ËÂÌÚ_207-9" x1="-1220.58" y1="652.88" x2="-1220.58" y2="442.4" gradientTransform="matrix(-1, 0, 0, 1, -423.86, 0)" xlink:href="#_ÂÁ_Ï_ÌÌ_È_ËÂÌÚ_207"/><linearGradient id="_ÂÁ_Ï_ÌÌ_È_ËÂÌÚ_211-7" x1="-1224.64" y1="652.88" x2="-1224.64" y2="442.4" gradientTransform="matrix(-1, 0, 0, 1, -423.86, 0)" xlink:href="#_ÂÁ_Ï_ÌÌ_È_ËÂÌÚ_211"/><linearGradient id="_ÂÁ_Ï_ÌÌ_È_ËÂÌÚ_207-10" x1="-1186.68" y1="652.88" x2="-1186.68" y2="442.4" gradientTransform="matrix(-1, 0, 0, 1, -423.86, 0)" xlink:href="#_ÂÁ_Ï_ÌÌ_È_ËÂÌÚ_207"/><linearGradient id="_ÂÁ_Ï_ÌÌ_È_ËÂÌÚ_211-8" x1="-1190.74" y1="652.88" x2="-1190.74" y2="442.4" gradientTransform="matrix(-1, 0, 0, 1, -423.86, 0)" xlink:href="#_ÂÁ_Ï_ÌÌ_È_ËÂÌÚ_211"/><linearGradient id="_ÂÁ_Ï_ÌÌ_È_ËÂÌÚ_207-11" x1="741.88" y1="613.74" x2="741.88" y2="607.83" gradientTransform="matrix(1, 0, 0, 1, 0, 0)" xlink:href="#_ÂÁ_Ï_ÌÌ_È_ËÂÌÚ_207"/><linearGradient id="_ÂÁ_Ï_ÌÌ_È_ËÂÌÚ_179-2" x1="713.72" y1="610.11" x2="806.17" y2="610.11" xlink:href="#_ÂÁ_Ï_ÌÌ_È_ËÂÌÚ_179"/><linearGradient id="_ÂÁ_Ï_ÌÌ_È_ËÂÌÚ_211-9" x1="720.81" y1="652.88" x2="720.81" y2="442.4" xlink:href="#_ÂÁ_Ï_ÌÌ_È_ËÂÌÚ_211"/><linearGradient id="_ÂÁ_Ï_ÌÌ_È_ËÂÌÚ_207-12" x1="716.75" y1="652.88" x2="716.75" y2="442.4" gradientTransform="matrix(1, 0, 0, 1, 0, 0)" xlink:href="#_ÂÁ_Ï_ÌÌ_È_ËÂÌÚ_207"/><linearGradient id="_ÂÁ_Ï_ÌÌ_È_ËÂÌÚ_140-5" x1="788" y1="468.09" x2="788" y2="450.28" xlink:href="#_ÂÁ_Ï_ÌÌ_È_ËÂÌÚ_140"/><linearGradient id="_ÂÁ_Ï_ÌÌ_È_ËÂÌÚ_140-6" x1="760.96" y1="466.31" x2="760.96" y2="450.28" xlink:href="#_ÂÁ_Ï_ÌÌ_È_ËÂÌÚ_140"/><linearGradient id="_ÂÁ_Ï_ÌÌ_È_ËÂÌÚ_140-7" x1="719.99" y1="467.13" x2="719.99" y2="450.28" xlink:href="#_ÂÁ_Ï_ÌÌ_È_ËÂÌÚ_140"/><linearGradient id="_ÂÁ_Ï_ÌÌ_È_ËÂÌÚ_140-8" x1="688.27" y1="465.32" x2="688.27" y2="450.28" xlink:href="#_ÂÁ_Ï_ÌÌ_È_ËÂÌÚ_140"/><linearGradient id="_ÂÁ_Ï_ÌÌ_È_ËÂÌÚ_211-10" x1="728.88" y1="450.01" x2="796.52" y2="450.01" xlink:href="#_ÂÁ_Ï_ÌÌ_È_ËÂÌÚ_211"/><linearGradient id="_ÂÁ_Ï_ÌÌ_È_ËÂÌÚ_207-13" x1="678.92" y1="449.76" x2="728.88" y2="449.76" gradientTransform="matrix(1, 0, 0, 1, 0, 0)" xlink:href="#_ÂÁ_Ï_ÌÌ_È_ËÂÌÚ_207"/><linearGradient id="_ÂÁ_Ï_ÌÌ_È_ËÂÌÚ_233-2" x1="759.96" y1="453.77" x2="759.96" y2="446.58" xlink:href="#_ÂÁ_Ï_ÌÌ_È_ËÂÌÚ_233"/></defs><g style="isolation:isolate"><g id="Layer_2" data-name="Layer 2"><rect y="634" width="1025" height="134" style="fill:#3d395f"/><rect y="48" width="1025" height="587" style="fill:#4157ab"/><rect width="1026" height="48" style="fill:#a9cefc"/></g><g id="Layer_7" data-name="Layer 7"><rect x="74" y="222" width="224" height="421" style="fill:#f1f5ff"/><rect x="81" y="231" width="206" height="400" style="fill:#3c3249"/><rect x="89" y="231" width="198" height="400" style="fill:#655773"/><polygon points="74 643 28 636 28 228 74 222 74 643" style="fill:#c4c4c4"/><polygon points="277 623 98 623 98 492.8 98 236 277 236 277 623" style="fill:#b4b4d1"/><path d="M277,236" style="fill:#b4b4d1"/><rect x="224" y="236" width="53" height="387" style="fill:#a3a3bf"/><rect x="98" y="317" width="179" height="9" style="fill:#e3e4e5"/><rect x="98" y="422" width="179" height="9" style="fill:#e3e4e5"/><rect x="98" y="523" width="179" height="9" style="fill:#e3e4e5"/><polygon points="277 236 224 258 98 269.25 98 236 277 236" style="opacity:0.5;mix-blend-mode:multiply;fill:url(#_ÂÁ_Ï_ÌÌ_È_ËÂÌÚ_56)"/><polygon points="277 326 224 349 98 368 98 326 277 326" style="opacity:0.5;mix-blend-mode:multiply;fill:url(#_ÂÁ_Ï_ÌÌ_È_ËÂÌÚ_56-2)"/><polygon points="277 431 224 454 98 460 98 431 277 431" style="opacity:0.5;mix-blend-mode:multiply;fill:url(#_ÂÁ_Ï_ÌÌ_È_ËÂÌÚ_56-3)"/><polygon points="277 532 224 555 98 556 98 532 277 532" style="opacity:0.5;mix-blend-mode:multiply;fill:url(#_ÂÁ_Ï_ÌÌ_È_ËÂÌÚ_56-4)"/><polygon points="97.61 390 86 390 86 393 94.44 393 94.44 460 86 460 86 463 105 463 105 390 97.61 390" style="fill:#b6b6cc"/><polygon points="105 463 97 461 97 390 105 390 105 463" style="fill:#fff"/><path d="M105,463l-8-2H86v2Z" style="fill:#7e7ea3"/><g style="opacity:0.47000000000000003"><rect x="118.02" y="263.04" width="7.42" height="20.4" style="fill:#5b5b5b"/><polygon points="112.45 284.37 118.02 276.02 125.44 276.02 131 284.37 112.45 284.37" style="fill:#5b5b5b"/><rect x="112.45" y="284.37" width="18.55" height="32.45" style="fill:#5b5b5b"/><polygon points="117.86 260.43 125.59 260.43 126.36 263.21 117.09 263.21 117.86 260.43" style="fill:#5b5b5b"/></g><g style="opacity:0.47000000000000003"><rect x="151.28" y="263.45" width="7.42" height="20.31" style="fill:#5b5b5b"/><polygon points="145.72 284.68 151.28 276.37 158.7 276.37 164.26 284.68 145.72 284.68" style="fill:#5b5b5b"/><rect x="145.72" y="284.68" width="18.55" height="32.32" style="fill:#5b5b5b"/><polygon points="151.13 260.84 158.85 260.84 159.63 263.61 150.35 263.61 151.13 260.84" style="fill:#5b5b5b"/></g><g style="opacity:0.47000000000000003"><rect x="191.14" y="263.15" width="7.42" height="20.4" style="fill:#5b5b5b"/><polygon points="185.58 284.48 191.14 276.13 198.56 276.13 204.12 284.48 185.58 284.48" style="fill:#5b5b5b"/><rect x="185.58" y="284.48" width="18.55" height="32.45" style="fill:#5b5b5b"/><polygon points="190.99 260.53 198.71 260.53 199.49 263.31 190.21 263.31 190.99 260.53" style="fill:#5b5b5b"/></g><rect x="134.77" y="258.89" width="8" height="22" style="fill:#674300"/><polygon points="128.77 281.89 134.77 272.89 142.77 272.89 148.77 281.89 128.77 281.89" style="fill:#674300"/><rect x="128.77" y="281.89" width="20" height="35" style="fill:#674300"/><polygon points="135.34 272.94 129.5 281.9 129.5 315.89 148.77 315.89 148.77 281.89 142.77 272.89 135.34 272.94" style="fill:#4c3300"/><path d="M137.24,272.94l-5.84,9v32a19.58,19.58,0,0,1,16.37,0V281.8l-6-8.91Z" style="fill:#614800"/><rect x="134.77" y="260.89" width="8" height="12" style="fill:#f9b63e"/><rect x="130.77" y="294.89" width="16" height="8" style="fill:#f9b63e"/><path d="M130.77,294.89s1-3,8-3,8,3,8,3Z" style="fill:#f9b63e"/><polygon points="134.6 256.89 142.94 256.89 143.77 259.89 133.77 259.89 134.6 256.89" style="fill:#364f38"/><path d="M134.77,256.89s3,2,8,0Z" style="fill:#718e55"/><path d="M141.08,275l.92,6.68v35.29h4.16v-35l-3.39-7S141.45,275,141.08,275Z" style="fill:#d1c5a6;opacity:0.54"/><rect x="168.82" y="258.89" width="8" height="22" style="fill:#674300"/><polygon points="162.82 281.89 168.82 272.89 176.82 272.89 182.82 281.89 162.82 281.89" style="fill:#674300"/><rect x="162.82" y="281.89" width="20" height="35" style="fill:#674300"/><polygon points="169.38 272.94 163.54 281.9 163.54 315.89 182.82 315.89 182.82 281.89 176.82 272.89 169.38 272.94" style="fill:#4c3300"/><path d="M171.29,272.94l-5.84,9v32a19.58,19.58,0,0,1,16.37,0V281.8l-6-8.91Z" style="fill:#614800"/><rect x="168.82" y="260.89" width="8" height="12" style="fill:#f9b63e"/><rect x="164.82" y="294.89" width="16" height="8" style="fill:#f9b63e"/><path d="M164.82,294.89s1-3,8-3,8,3,8,3Z" style="fill:#f9b63e"/><polygon points="168.65 256.89 176.98 256.89 177.82 259.89 167.82 259.89 168.65 256.89" style="fill:#364f38"/><path d="M168.82,256.89s3,2,8,0Z" style="fill:#718e55"/><path d="M175.13,275l.92,6.68v35.29h4.16v-35l-3.39-7S175.5,275,175.13,275Z" style="fill:#d1c5a6;opacity:0.54"/><rect x="208.18" y="258.89" width="8" height="22" style="fill:#674300"/><polygon points="202.18 281.89 208.18 272.89 216.18 272.89 222.18 281.89 202.18 281.89" style="fill:#674300"/><rect x="202.18" y="281.89" width="20" height="35" style="fill:#674300"/><polygon points="208.74 272.94 202.9 281.9 202.9 315.89 222.18 315.89 222.18 281.89 216.18 272.89 208.74 272.94" style="fill:#4c3300"/><path d="M210.65,272.94l-5.84,9v32a19.58,19.58,0,0,1,16.37,0V281.8l-6-8.91Z" style="fill:#614800"/><rect x="208.18" y="260.89" width="8" height="12" style="fill:#f9b63e"/><rect x="204.18" y="294.89" width="16" height="8" style="fill:#f9b63e"/><path d="M204.18,294.89s1-3,8-3,8,3,8,3Z" style="fill:#f9b63e"/><polygon points="208.01 256.89 216.34 256.89 217.18 259.89 207.18 259.89 208.01 256.89" style="fill:#364f38"/><path d="M208.18,256.89s3,2,8,0Z" style="fill:#718e55"/><path d="M214.49,275l.92,6.68v35.29h4.16v-35l-3.39-7S214.86,275,214.49,275Z" style="fill:#d1c5a6;opacity:0.54"/><rect x="228.2" y="258.89" width="8" height="22" style="fill:#674300"/><polygon points="222.2 281.89 228.2 272.89 236.2 272.89 242.2 281.89 222.2 281.89" style="fill:#674300"/><rect x="222.2" y="281.89" width="20" height="35" style="fill:#674300"/><polygon points="228.76 272.94 222.92 281.9 222.92 315.89 242.2 315.89 242.2 281.89 236.2 272.89 228.76 272.94" style="fill:#4c3300"/><path d="M230.67,272.94l-5.84,9v32a19.58,19.58,0,0,1,16.37,0V281.8l-6-8.91Z" style="fill:#614800"/><rect x="228.2" y="260.89" width="8" height="12" style="fill:#f9b63e"/><rect x="224.2" y="294.89" width="16" height="8" style="fill:#f9b63e"/><path d="M224.2,294.89s1-3,8-3,8,3,8,3Z" style="fill:#f9b63e"/><polygon points="228.03 256.89 236.36 256.89 237.2 259.89 227.2 259.89 228.03 256.89" style="fill:#364f38"/><path d="M228.2,256.89s3,2,8,0Z" style="fill:#718e55"/><path d="M234.51,275l.92,6.68v35.29h4.16v-35l-3.39-7S234.88,275,234.51,275Z" style="fill:#d1c5a6;opacity:0.54"/><g style="opacity:0.47000000000000003"><rect x="120.15" y="368.37" width="7.42" height="20.4" style="fill:#5b5b5b"/><polygon points="114.59 389.7 120.15 381.35 127.57 381.35 133.13 389.7 114.59 389.7" style="fill:#5b5b5b"/><rect x="114.59" y="389.7" width="18.55" height="32.45" style="fill:#5b5b5b"/><polygon points="120 365.75 127.73 365.75 128.5 368.54 119.23 368.54 120 365.75" style="fill:#5b5b5b"/></g><g style="opacity:0.47000000000000003"><rect x="153.42" y="368.78" width="7.42" height="20.31" style="fill:#5b5b5b"/><polygon points="147.85 390.01 153.42 381.7 160.84 381.7 166.4 390.01 147.85 390.01" style="fill:#5b5b5b"/><rect x="147.85" y="390.01" width="18.55" height="32.32" style="fill:#5b5b5b"/><polygon points="153.26 366.17 160.99 366.17 161.76 368.94 152.49 368.94 153.26 366.17" style="fill:#5b5b5b"/></g><g style="opacity:0.47000000000000003"><rect x="193.27" y="368.48" width="7.42" height="20.4" style="fill:#5b5b5b"/><polygon points="187.71 389.81 193.28 381.46 200.69 381.46 206.26 389.81 187.71 389.81" style="fill:#5b5b5b"/><rect x="187.71" y="389.81" width="18.55" height="32.45" style="fill:#5b5b5b"/><polygon points="193.12 365.86 200.85 365.86 201.62 368.65 192.35 368.65 193.12 365.86" style="fill:#5b5b5b"/></g><rect x="136.91" y="364.23" width="8" height="22" style="fill:#674300"/><polygon points="130.91 387.23 136.91 378.23 144.91 378.23 150.91 387.23 130.91 387.23" style="fill:#674300"/><rect x="130.91" y="387.23" width="20" height="35" style="fill:#674300"/><polygon points="137.47 378.27 131.63 387.23 131.63 421.23 150.91 421.23 150.91 387.23 144.91 378.23 137.47 378.27" style="fill:#4c3300"/><path d="M139.38,378.27l-5.84,9v32a19.58,19.58,0,0,1,16.37,0v-32.1l-6-8.9Z" style="fill:#614800"/><rect x="136.91" y="366.23" width="8" height="12" style="fill:#f9b63e"/><rect x="132.91" y="400.23" width="16" height="8" style="fill:#f9b63e"/><path d="M132.91,400.23s1-3,8-3,8,3,8,3Z" style="fill:#f9b63e"/><polygon points="136.74 362.23 145.07 362.23 145.91 365.23 135.91 365.23 136.74 362.23" style="fill:#364f38"/><path d="M136.91,362.23s3,2,8,0Z" style="fill:#718e55"/><path d="M143.22,380.29l.92,6.68v35.29h4.16v-35l-3.39-7S143.59,380.29,143.22,380.29Z" style="fill:#d1c5a6;opacity:0.54"/><rect x="170.95" y="364.23" width="8" height="22" style="fill:#674300"/><polygon points="164.95 387.23 170.95 378.23 178.95 378.23 184.95 387.23 164.95 387.23" style="fill:#674300"/><rect x="164.95" y="387.23" width="20" height="35" style="fill:#674300"/><polygon points="171.52 378.27 165.68 387.23 165.68 421.23 184.95 421.23 184.95 387.23 178.95 378.23 171.52 378.27" style="fill:#4c3300"/><path d="M173.42,378.27l-5.84,9v32a19.58,19.58,0,0,1,16.37,0v-32.1l-6-8.9Z" style="fill:#614800"/><rect x="170.95" y="366.23" width="8" height="12" style="fill:#f9b63e"/><rect x="166.95" y="400.23" width="16" height="8" style="fill:#f9b63e"/><path d="M167,400.23s1-3,8-3,8,3,8,3Z" style="fill:#f9b63e"/><polygon points="170.78 362.23 179.12 362.23 179.95 365.23 169.95 365.23 170.78 362.23" style="fill:#364f38"/><path d="M171,362.23s3,2,8,0Z" style="fill:#718e55"/><path d="M177.26,380.29l.92,6.68v35.29h4.17v-35l-3.4-7S177.64,380.29,177.26,380.29Z" style="fill:#d1c5a6;opacity:0.54"/><rect x="210.31" y="364.23" width="8" height="22" style="fill:#674300"/><polygon points="204.31 387.23 210.31 378.23 218.31 378.23 224.31 387.23 204.31 387.23" style="fill:#674300"/><rect x="204.31" y="387.23" width="20" height="35" style="fill:#674300"/><polygon points="210.88 378.27 205.04 387.23 205.04 421.23 224.31 421.23 224.31 387.23 218.31 378.23 210.88 378.27" style="fill:#4c3300"/><path d="M212.78,378.27l-5.83,9v32a19.55,19.55,0,0,1,16.36,0v-32.1l-6-8.9Z" style="fill:#614800"/><rect x="210.31" y="366.23" width="8" height="12" style="fill:#f9b63e"/><rect x="206.31" y="400.23" width="16" height="8" style="fill:#f9b63e"/><path d="M206.31,400.23s1-3,8-3,8,3,8,3Z" style="fill:#f9b63e"/><polygon points="210.15 362.23 218.48 362.23 219.31 365.23 209.31 365.23 210.15 362.23" style="fill:#364f38"/><path d="M210.31,362.23s3,2,8,0Z" style="fill:#718e55"/><path d="M216.63,380.29l.91,6.68v35.29h4.17v-35l-3.4-7S217,380.29,216.63,380.29Z" style="fill:#d1c5a6;opacity:0.54"/><rect x="230.33" y="364.23" width="8" height="22" style="fill:#674300"/><polygon points="224.33 387.23 230.33 378.23 238.33 378.23 244.33 387.23 224.33 387.23" style="fill:#674300"/><rect x="224.33" y="387.23" width="20" height="35" style="fill:#674300"/><polygon points="230.9 378.27 225.06 387.23 225.06 421.23 244.33 421.23 244.33 387.23 238.33 378.23 230.9 378.27" style="fill:#4c3300"/><path d="M232.8,378.27l-5.84,9v32a19.58,19.58,0,0,1,16.37,0v-32.1l-6-8.9Z" style="fill:#614800"/><rect x="230.33" y="366.23" width="8" height="12" style="fill:#f9b63e"/><rect x="226.33" y="400.23" width="16" height="8" style="fill:#f9b63e"/><path d="M226.33,400.23s1-3,8-3,8,3,8,3Z" style="fill:#f9b63e"/><polygon points="230.16 362.23 238.5 362.23 239.33 365.23 229.33 365.23 230.16 362.23" style="fill:#364f38"/><path d="M230.33,362.23s3,2,8,0Z" style="fill:#718e55"/><path d="M236.65,380.29l.91,6.68v35.29h4.17v-35l-3.4-7S237,380.29,236.65,380.29Z" style="fill:#d1c5a6;opacity:0.54"/><g style="opacity:0.47000000000000003"><rect x="121.81" y="468.47" width="7.42" height="20.4" style="fill:#5b5b5b"/><polygon points="116.24 489.79 121.81 481.45 129.22 481.45 134.79 489.79 116.24 489.79" style="fill:#5b5b5b"/><rect x="116.24" y="489.79" width="18.55" height="32.45" style="fill:#5b5b5b"/><polygon points="121.65 465.85 129.38 465.85 130.15 468.63 120.88 468.63 121.65 465.85" style="fill:#5b5b5b"/></g><g style="opacity:0.47000000000000003"><rect x="155.07" y="468.87" width="7.42" height="20.31" style="fill:#5b5b5b"/><polygon points="149.51 490.11 155.07 481.8 162.49 481.8 168.05 490.11 149.51 490.11" style="fill:#5b5b5b"/><rect x="149.51" y="490.11" width="18.55" height="32.32" style="fill:#5b5b5b"/><polygon points="154.91 466.26 162.64 466.26 163.41 469.03 154.14 469.03 154.91 466.26" style="fill:#5b5b5b"/></g><g style="opacity:0.47000000000000003"><rect x="194.93" y="468.57" width="7.42" height="20.4" style="fill:#5b5b5b"/><polygon points="189.36 489.9 194.93 481.56 202.34 481.56 207.91 489.9 189.36 489.9" style="fill:#5b5b5b"/><rect x="189.36" y="489.9" width="18.55" height="32.45" style="fill:#5b5b5b"/><polygon points="194.77 465.96 202.5 465.96 203.27 468.74 194 468.74 194.77 465.96" style="fill:#5b5b5b"/></g><rect x="138.56" y="464.32" width="8" height="22" style="fill:#674300"/><polygon points="132.56 487.32 138.56 478.32 146.56 478.32 152.56 487.32 132.56 487.32" style="fill:#674300"/><rect x="132.56" y="487.32" width="20" height="35" style="fill:#674300"/><polygon points="139.12 478.36 133.28 487.32 133.28 521.32 152.56 521.32 152.56 487.32 146.56 478.32 139.12 478.36" style="fill:#4c3300"/><path d="M141,478.36l-5.84,9v32a19.58,19.58,0,0,1,16.37,0v-32.1l-6-8.9Z" style="fill:#614800"/><rect x="138.56" y="466.32" width="8" height="12" style="fill:#f9b63e"/><rect x="134.56" y="500.32" width="16" height="8" style="fill:#f9b63e"/><path d="M134.56,500.32s1-3,8-3,8,3,8,3Z" style="fill:#f9b63e"/><polygon points="138.39 462.32 146.72 462.32 147.56 465.32 137.56 465.32 138.39 462.32" style="fill:#364f38"/><path d="M138.56,462.32s3,2,8,0Z" style="fill:#718e55"/><path d="M144.87,480.38l.92,6.68v35.3H150v-35l-3.39-7S145.24,480.38,144.87,480.38Z" style="fill:#d1c5a6;opacity:0.54"/><rect x="172.6" y="464.32" width="8" height="22" style="fill:#674300"/><polygon points="166.6 487.32 172.6 478.32 180.6 478.32 186.6 487.32 166.6 487.32" style="fill:#674300"/><rect x="166.6" y="487.32" width="20" height="35" style="fill:#674300"/><polygon points="173.17 478.36 167.33 487.32 167.33 521.32 186.6 521.32 186.6 487.32 180.6 478.32 173.17 478.36" style="fill:#4c3300"/><path d="M175.08,478.36l-5.84,9v32a19.55,19.55,0,0,1,16.36,0v-32.1l-6-8.9Z" style="fill:#614800"/><rect x="172.6" y="466.32" width="8" height="12" style="fill:#f9b63e"/><rect x="168.6" y="500.32" width="16" height="8" style="fill:#f9b63e"/><path d="M168.6,500.32s1-3,8-3,8,3,8,3Z" style="fill:#f9b63e"/><polygon points="172.44 462.32 180.77 462.32 181.6 465.32 171.6 465.32 172.44 462.32" style="fill:#364f38"/><path d="M172.6,462.32s3,2,8,0Z" style="fill:#718e55"/><path d="M178.92,480.38l.91,6.68v35.3H184v-35l-3.4-7S179.29,480.38,178.92,480.38Z" style="fill:#d1c5a6;opacity:0.54"/><rect x="211.96" y="464.32" width="8" height="22" style="fill:#674300"/><polygon points="205.97 487.32 211.97 478.32 219.97 478.32 225.97 487.32 205.97 487.32" style="fill:#674300"/><rect x="205.96" y="487.32" width="20" height="35" style="fill:#674300"/><polygon points="212.53 478.36 206.69 487.32 206.69 521.32 225.97 521.32 225.97 487.32 219.97 478.32 212.53 478.36" style="fill:#4c3300"/><path d="M214.44,478.36l-5.84,9v32a19.55,19.55,0,0,1,16.36,0v-32.1l-6-8.9Z" style="fill:#614800"/><rect x="211.96" y="466.32" width="8" height="12" style="fill:#f9b63e"/><rect x="207.96" y="500.32" width="16" height="8" style="fill:#f9b63e"/><path d="M208,500.32s1-3,8-3,8,3,8,3Z" style="fill:#f9b63e"/><polygon points="211.8 462.32 220.13 462.32 220.97 465.32 210.97 465.32 211.8 462.32" style="fill:#364f38"/><path d="M212,462.32s3,2,8,0Z" style="fill:#718e55"/><path d="M218.28,480.38l.91,6.68v35.3h4.17v-35l-3.4-7S218.65,480.38,218.28,480.38Z" style="fill:#d1c5a6;opacity:0.54"/><rect x="231.98" y="464.32" width="8" height="22" style="fill:#674300"/><polygon points="225.98 487.32 231.98 478.32 239.98 478.32 245.98 487.32 225.98 487.32" style="fill:#674300"/><rect x="225.98" y="487.32" width="20" height="35" style="fill:#674300"/><polygon points="232.55 478.36 226.71 487.32 226.71 521.32 245.98 521.32 245.98 487.32 239.98 478.32 232.55 478.36" style="fill:#4c3300"/><path d="M234.46,478.36l-5.84,9v32a19.55,19.55,0,0,1,16.36,0v-32.1l-6-8.9Z" style="fill:#614800"/><rect x="231.98" y="466.32" width="8" height="12" style="fill:#f9b63e"/><rect x="227.98" y="500.32" width="16" height="8" style="fill:#f9b63e"/><path d="M228,500.32s1-3,8-3,8,3,8,3Z" style="fill:#f9b63e"/><polygon points="231.82 462.32 240.15 462.32 240.98 465.32 230.98 465.32 231.82 462.32" style="fill:#364f38"/><path d="M232,462.32s3,2,8,0Z" style="fill:#718e55"/><path d="M238.3,480.38l.91,6.68v35.3h4.17v-35l-3.4-7S238.67,480.38,238.3,480.38Z" style="fill:#d1c5a6;opacity:0.54"/><g style="opacity:0.47000000000000003"><rect x="125.17" y="569.49" width="7.42" height="20.4" style="fill:#5b5b5b"/><polygon points="119.61 590.82 125.17 582.47 132.59 582.47 138.16 590.82 119.61 590.82" style="fill:#5b5b5b"/><rect x="119.61" y="590.82" width="18.55" height="32.45" style="fill:#5b5b5b"/><polygon points="125.02 566.88 132.75 566.88 133.52 569.66 124.25 569.66 125.02 566.88" style="fill:#5b5b5b"/></g><g style="opacity:0.47000000000000003"><rect x="158.44" y="569.9" width="7.42" height="20.31" style="fill:#5b5b5b"/><polygon points="152.88 591.13 158.44 582.82 165.86 582.82 171.42 591.13 152.88 591.13" style="fill:#5b5b5b"/><rect x="152.87" y="591.13" width="18.55" height="32.32" style="fill:#5b5b5b"/><polygon points="158.28 567.29 166.01 567.29 166.78 570.06 157.51 570.06 158.28 567.29" style="fill:#5b5b5b"/></g><g style="opacity:0.47000000000000003"><rect x="198.3" y="569.6" width="7.42" height="20.4" style="fill:#5b5b5b"/><polygon points="192.73 590.93 198.3 582.58 205.71 582.58 211.28 590.93 192.73 590.93" style="fill:#5b5b5b"/><rect x="192.73" y="590.93" width="18.55" height="32.45" style="fill:#5b5b5b"/><polygon points="198.14 566.99 205.87 566.99 206.64 569.77 197.37 569.77 198.14 566.99" style="fill:#5b5b5b"/></g><rect x="141.93" y="565.35" width="8" height="22" style="fill:#674300"/><polygon points="135.93 588.35 141.93 579.35 149.93 579.35 155.93 588.35 135.93 588.35" style="fill:#674300"/><rect x="135.93" y="588.35" width="20" height="35" style="fill:#674300"/><polygon points="142.49 579.39 136.65 588.35 136.65 622.35 155.93 622.35 155.93 588.35 149.93 579.35 142.49 579.39" style="fill:#4c3300"/><path d="M144.4,579.39l-5.84,9v32a19.58,19.58,0,0,1,16.37,0v-32.1l-6-8.9Z" style="fill:#614800"/><rect x="141.93" y="567.35" width="8" height="12" style="fill:#f9b63e"/><rect x="137.93" y="601.35" width="16" height="8" style="fill:#f9b63e"/><path d="M137.93,601.35s1-3,8-3,8,3,8,3Z" style="fill:#f9b63e"/><polygon points="141.76 563.35 150.09 563.35 150.93 566.35 140.93 566.35 141.76 563.35" style="fill:#364f38"/><path d="M141.93,563.35s3,2,8,0Z" style="fill:#718e55"/><path d="M148.24,581.41l.92,6.68v35.29h4.16v-35l-3.39-7S148.61,581.41,148.24,581.41Z" style="fill:#d1c5a6;opacity:0.54"/><rect x="175.97" y="565.35" width="8" height="22" style="fill:#674300"/><polygon points="169.97 588.35 175.97 579.35 183.97 579.35 189.97 588.35 169.97 588.35" style="fill:#674300"/><rect x="169.97" y="588.35" width="20" height="35" style="fill:#674300"/><polygon points="176.54 579.39 170.7 588.35 170.7 622.35 189.97 622.35 189.97 588.35 183.97 579.35 176.54 579.39" style="fill:#4c3300"/><path d="M178.44,579.39l-5.83,9v32a19.55,19.55,0,0,1,16.36,0v-32.1l-6-8.9Z" style="fill:#614800"/><rect x="175.97" y="567.35" width="8" height="12" style="fill:#f9b63e"/><rect x="171.97" y="601.35" width="16" height="8" style="fill:#f9b63e"/><path d="M172,601.35s1-3,8-3,8,3,8,3Z" style="fill:#f9b63e"/><polygon points="175.81 563.35 184.14 563.35 184.97 566.35 174.97 566.35 175.81 563.35" style="fill:#364f38"/><path d="M176,563.35s3,2,8,0Z" style="fill:#718e55"/><path d="M182.29,581.41l.91,6.68v35.29h4.17v-35l-3.4-7S182.66,581.41,182.29,581.41Z" style="fill:#d1c5a6;opacity:0.54"/><rect x="215.33" y="565.35" width="8" height="22" style="fill:#674300"/><polygon points="209.33 588.35 215.33 579.35 223.33 579.35 229.33 588.35 209.33 588.35" style="fill:#674300"/><rect x="209.33" y="588.35" width="20" height="35" style="fill:#674300"/><polygon points="215.9 579.39 210.06 588.35 210.06 622.35 229.33 622.35 229.33 588.35 223.33 579.35 215.9 579.39" style="fill:#4c3300"/><path d="M217.81,579.39l-5.84,9v32a19.55,19.55,0,0,1,16.36,0v-32.1l-6-8.9Z" style="fill:#614800"/><rect x="215.33" y="567.35" width="8" height="12" style="fill:#f9b63e"/><rect x="211.33" y="601.35" width="16" height="8" style="fill:#f9b63e"/><path d="M211.33,601.35s1-3,8-3,8,3,8,3Z" style="fill:#f9b63e"/><polygon points="215.17 563.35 223.5 563.35 224.33 566.35 214.33 566.35 215.17 563.35" style="fill:#364f38"/><path d="M215.33,563.35s3,2,8,0Z" style="fill:#718e55"/><path d="M221.65,581.41l.91,6.68v35.29h4.17v-35l-3.4-7S222,581.41,221.65,581.41Z" style="fill:#d1c5a6;opacity:0.54"/><rect x="235.35" y="565.35" width="8" height="22" style="fill:#674300"/><polygon points="229.35 588.35 235.35 579.35 243.35 579.35 249.35 588.35 229.35 588.35" style="fill:#674300"/><rect x="229.35" y="588.35" width="20" height="35" style="fill:#674300"/><polygon points="235.92 579.39 230.08 588.35 230.08 622.35 249.35 622.35 249.35 588.35 243.35 579.35 235.92 579.39" style="fill:#4c3300"/><path d="M237.82,579.39l-5.83,9v32a19.55,19.55,0,0,1,16.36,0v-32.1l-6-8.9Z" style="fill:#614800"/><rect x="235.35" y="567.35" width="8" height="12" style="fill:#f9b63e"/><rect x="231.35" y="601.35" width="16" height="8" style="fill:#f9b63e"/><path d="M231.35,601.35s1-3,8-3,8,3,8,3Z" style="fill:#f9b63e"/><polygon points="235.19 563.35 243.52 563.35 244.35 566.35 234.35 566.35 235.19 563.35" style="fill:#364f38"/><path d="M235.35,563.35s3,2,8,0Z" style="fill:#718e55"/><path d="M241.67,581.41l.91,6.68v35.29h4.17v-35l-3.4-7S242,581.41,241.67,581.41Z" style="fill:#d1c5a6;opacity:0.54"/><polygon points="287 231 224 231 110.89 631.21 287 631.21 287 231" style="fill:#fff;opacity:0.34"/><rect x="386.03" y="328.23" width="8" height="22" style="fill:#674300"/><polygon points="380.03 351.23 386.03 342.23 394.03 342.23 400.03 351.23 380.03 351.23" style="fill:#674300"/><rect x="380.03" y="351.23" width="20" height="35" style="fill:#674300"/><polygon points="386.6 342.27 380.75 351.23 380.75 385.23 400.03 385.23 400.03 351.23 394.03 342.23 386.6 342.27" style="fill:#4c3300"/><path d="M388.5,342.27l-5.84,9v32a19.58,19.58,0,0,1,16.37,0v-32.1l-6-8.9Z" style="fill:#614800"/><rect x="386.03" y="330.23" width="8" height="12" style="fill:#f9b63e"/><rect x="382.03" y="364.23" width="16" height="8" style="fill:#f9b63e"/><path d="M382,364.23s1-3,8-3,8,3,8,3Z" style="fill:#f9b63e"/><polygon points="385.86 326.23 394.2 326.23 395.03 329.23 385.03 329.23 385.86 326.23" style="fill:#364f38"/><path d="M386,326.23s3,2,8,0Z" style="fill:#718e55"/><path d="M392.34,344.29l.92,6.68v35.3h4.16v-35l-3.39-7S392.71,344.29,392.34,344.29Z" style="fill:#d1c5a6;opacity:0.54"/><rect x="420.08" y="328.23" width="8" height="22" style="fill:#674300"/><polygon points="414.07 351.23 420.07 342.23 428.07 342.23 434.07 351.23 414.07 351.23" style="fill:#674300"/><rect x="414.08" y="351.23" width="20" height="35" style="fill:#674300"/><polygon points="420.64 342.27 414.8 351.23 414.8 385.23 434.07 385.23 434.07 351.23 428.07 342.23 420.64 342.27" style="fill:#4c3300"/><path d="M422.55,342.27l-5.84,9v32a19.58,19.58,0,0,1,16.37,0v-32.1l-6-8.9Z" style="fill:#614800"/><rect x="420.08" y="330.23" width="8" height="12" style="fill:#f9b63e"/><rect x="416.08" y="364.23" width="16" height="8" style="fill:#f9b63e"/><path d="M416.08,364.23s1-3,8-3,8,3,8,3Z" style="fill:#f9b63e"/><polygon points="419.91 326.23 428.24 326.23 429.07 329.23 419.07 329.23 419.91 326.23" style="fill:#364f38"/><path d="M420.08,326.23s3,2,8,0Z" style="fill:#718e55"/><path d="M426.39,344.29l.92,6.68v35.3h4.16v-35l-3.39-7S426.76,344.29,426.39,344.29Z" style="fill:#d1c5a6;opacity:0.54"/></g><g id="Layer_11" data-name="Layer 11"><path d="M633.05,344.25l-1.8,3.12a11.71,11.71,0,0,1-16,4.28l-33.49-19.33a11.72,11.72,0,0,1-4.29-16l1.8-3.12a11.71,11.71,0,0,1,16-4.29l29.24,23.6C630.11,335.74,636.29,338.64,633.05,344.25Z" style="fill:#f1f5ff"/><path d="M615.08,348.45h0a10.17,10.17,0,0,1-4.17-13.77l31.73-38.77c2.21-4.12,1.1-14.48,5.23-12.27h0a16.18,16.18,0,0,1,6.62,21.89l-19.82,37A14.48,14.48,0,0,1,615.08,348.45Z" style="fill:url(#linear-gradient)"/><ellipse cx="519.88" cy="257.22" rx="8.1" ry="13.5" transform="translate(12.9 539.03) rotate(-55.39)" style="fill:url(#linear-gradient-2)"/><path d="M555.89,307.08,545.46,307a3.89,3.89,0,0,1-3.79-3.21l-4-22.62a3.9,3.9,0,0,1,3.57-4.57l14.42-.94a3.88,3.88,0,0,1,4.14,3.88l0,23.68A3.88,3.88,0,0,1,555.89,307.08Z" style="fill:url(#linear-gradient-3)"/><path d="M560.09,290.8l1.89-.37a8.26,8.26,0,0,0,3.31-1.48c7.52-5.61,9.69-13.26,12.34-19.76a52.22,52.22,0,0,0,3-29.87h0a34.5,34.5,0,0,0-40.4-27.14h0c-18.57,3.65-30.82,15.54-27.13,40.4L515,250c2.32,11.8,2.47,4.81,15,29,1.76,3.4,2.92,8.1,9,9C552.68,290,552.87,292.22,560.09,290.8Z" style="fill:url(#linear-gradient-4)"/><path d="M561.46,237.25c-.2-1.22,3.22-2.76,7.62-3.45a18.73,18.73,0,0,1,10.72,1.44c1.49.75-5.63,2.28-10,3S561.65,238.47,561.46,237.25Z" style="fill:#5d3419"/><path d="M576.08,245.48l2.83-1.82s-10.27-10.47-17.78,2.32l1.51.61A14.56,14.56,0,0,0,576.08,245.48Z" style="fill:#fff"/><path d="M550.7,238.63c0-1.23-3.55-2.32-8-2.42A18.79,18.79,0,0,0,532.25,239c-1.38.95,5.89,1.52,10.34,1.63S550.67,239.86,550.7,238.63Z" style="fill:#5d3419"/><circle cx="569.63" cy="244.11" r="3.37" style="fill:#3a1f10"/><path d="M569.91,244.65" style="fill:#723f24"/><path d="M569.3,243.44" style="fill:#723f24"/><path d="M543.65,271.07a10.8,10.8,0,1,0,21.55-1.43" style="fill:#fff"/><path d="M561.77,240.73a8.06,8.06,0,0,0-4.5,4.21c-1.71,3.81-.35,8.69,1.77,11.67,1.86,2.62,3.77,3,3.66,3.95-.22,1.92-8.23,3-10.25-.61a4.84,4.84,0,0,1-.24-3.74" style="fill:none;stroke:#5d3419;stroke-miterlimit:10;stroke-width:0.5px"/><circle cx="569.84" cy="244.62" r="1.19" style="fill:#fff"/><circle cx="541.87" cy="246.47" r="0.64" style="fill:#3a1f10"/><path d="M565,267.67c5.73-.41,12.82-1.47,12.79-2.27.06,1.76-15.35-1.45-16.6-1.41a101.57,101.57,0,0,0-32.65,6.46,49.09,49.09,0,0,1,9.93-2.55C548.77,266.26,551.22,268.65,565,267.67Z" style="fill:#5d3419"/><path d="M590.84,268.17" style="fill:#5d3419"/><path d="M578.91,243.66s-10.27-10.47-17.78,2.32l6.47-4.36a4.51,4.51,0,0,1,3.68-.71Z" style="fill:#723f24"/><path d="M546.53,250.09l3.06-1.41s-8.66-11.83-17.93-.25l1.42.82A14.57,14.57,0,0,0,546.53,250.09Z" style="fill:#fff"/><circle cx="540.48" cy="247.95" r="3.37" style="fill:#3a1f10"/><path d="M549.59,248.68s-8.66-11.83-17.93-.25l7-3.38a4.53,4.53,0,0,1,3.74-.18Z" style="fill:#723f24"/><circle cx="539.92" cy="247.99" r="1.26" style="fill:#fff"/><path d="M538.85,303.79,559.72,300a4.06,4.06,0,0,1,1.8.07l28.57,7.49a4.93,4.93,0,0,1,3.53,5l-2.93,65.71a4.52,4.52,0,0,1-3.54,4.36l-50.29,9.74a4.58,4.58,0,0,1-5.07-3.1l-25-68.62a4.79,4.79,0,0,1,2.6-6.19L538.16,304A4.43,4.43,0,0,1,538.85,303.79Z" style="fill:#f1f5ff"/><g style="clip-path:url(#clip-path)"><path d="M578.31,351.45c-20.35-34.8-26.26-48.59-26.26-48.59" style="fill:#a8ccfe"/></g><path d="M565,336c5.2,5.26,3-20.59,1.76-32.13a3.56,3.56,0,0,1,4.56-3.78l8.75,2.6.45.09L593,305.9c2.46.61,2.29,2.63,2,5.1l-4.45,64.49a5.19,5.19,0,0,1-4.34,4.56l-54.54,9a5.16,5.16,0,0,1-5.73-3.32L507.36,332.8c-1.51-4.28.24-9.61,4.58-10.94,1-.29-.49-2.24-3.07-5.64a3.58,3.58,0,0,1,2-5.63L530,306" style="fill:url(#_ÂÁ_Ï_ÌÌ_È_ËÂÌÚ_207)"/><path d="M581,265.93" style="fill:#512208"/><path d="M527,225c3.75-6.25,28,9,29-3,.37-4.43,23.36,12,23.36,12,1.2.55,4.64,2,2.2-1.81-6.91-10.72-12.42-22.06-24.41-25.48-2.38-.68,3.92-.55-.15-2.73-2.79-1.5-16.07-.85-14.15,1.67h0C534,206.81,535.42,196.6,530,202c-6.26,6.23-25,27-17.58,42.28,0,0,0,0,0,0S518.65,255.13,518,259" style="fill:#4c1f00"/><path d="M559,224" style="fill:#5d3419"/><path d="M562.53,224.7" style="fill:#5d3419"/><path d="M563.86,220.94" style="fill:#5d3419"/><path d="M566.39,310.75l-6.15-2.66a7.69,7.69,0,0,1-6.73,1,5.43,5.43,0,0,1-.54.53L549,312.94A6.19,6.19,0,0,1,539,309.52c-3.47-16.43-3.79-16.43,11.6-10.65a7.49,7.49,0,0,1,8.88-1.88c13.22-10.28,12.5-9.78,14.24,8.45A5.23,5.23,0,0,1,566.39,310.75Z" style="fill:#f98962"/></g><g id="Layer_10" data-name="Layer 10"><path d="M203.12,107.92s64.81,11.75,170.28-2.9C373.4,105,306,84.2,203.12,107.92Z" style="fill:url(#_ÂÁ_Ï_ÌÌ_È_ËÂÌÚ_154)"/><path d="M290.77,96.32A11.89,11.89,0,0,1,276.5,82.05a11.76,11.76,0,0,1,8.84-8.85,11.87,11.87,0,0,1,5.43,23.12Z" style="fill:url(#_ÂÁ_Ï_ÌÌ_È_ËÂÌÚ_224)"/><path d="M290.66,107a15.4,15.4,0,1,1,12.57-12.57A15.41,15.41,0,0,1,290.66,107Z" style="fill:url(#_ÂÁ_Ï_ÌÌ_È_ËÂÌÚ_181)"/><path d="M203.12,107.92s35.17-24.23,73.16-35.8l19.32-2.7s42.13,11.2,77.8,35.6C373.4,105,313.61,85.14,203.12,107.92Z" style="fill:#553e77"/><rect x="276" y="57" width="20" height="16" style="fill:#553e77"/><rect x="285" width="2" height="57"/><path d="M621.12,108.92s64.81,11.75,170.28-2.9C791.4,106,724,85.2,621.12,108.92Z" style="fill:url(#_ÂÁ_Ï_ÌÌ_È_ËÂÌÚ_154-2)"/><path d="M708.77,97.32A11.89,11.89,0,0,1,694.5,83.05a11.76,11.76,0,0,1,8.84-8.85,11.87,11.87,0,0,1,5.43,23.12Z" style="fill:url(#_ÂÁ_Ï_ÌÌ_È_ËÂÌÚ_224-2)"/><path d="M708.66,108a15.4,15.4,0,1,1,12.57-12.57A15.41,15.41,0,0,1,708.66,108Z" style="fill:url(#_ÂÁ_Ï_ÌÌ_È_ËÂÌÚ_181-2)"/><path d="M621.12,108.92s35.17-24.23,73.16-35.8l19.32-2.7s42.13,11.2,77.8,35.6C791.4,106,731.61,86.14,621.12,108.92Z" style="fill:#553e77"/><rect x="694" y="58" width="20" height="16" style="fill:#553e77"/><rect x="703" y="1" width="2" height="57"/><path d="M609.18,380.16a2.76,2.76,0,0,1-.37,1.78c-.53.8-1.53,2.19-1.53,2.19s-.93,2.53.67,2.53h28.24s2-.34.46-2.73-2-3.05-2-3.05V341.93l-25.48-.14v38.37Z" style="fill:#d2e3ee;isolation:isolate"/><path d="M610.76,342l22.72.14v35.32s.15,2.57-1.77,2.57H612.3s-1.77.16-1.77-2.89,0-35.13,0-35.13" style="fill:#fdb614"/><path d="M609.76,347.23l-.79,1.14h-8.1s-5.51-.15-5.51,4.76V365s-.39,2.68,3,5.66,10.87,8.93,10.87,8.93l.5,1V373l-.69.65-8.49-7s-.8-.4-.8-4.32v-8.89s.05-.89,1.34-.89h7.75l.89.89Z" style="fill:#d2e3ee;isolation:isolate"/><path d="M633.57,342.23s2.61-2.93-.63-4.68a3.72,3.72,0,0,0-3.8-4.43s-2-4.18-5.8-.81c0,0-3.49-1.49-5,2,0,0-3.05-.75-4.18,1.93,0,0-6.62-.12-4.69,5.93Z" style="fill:#fff"/><path d="M628.14,342.67h3.66V381l2.44,3.73s.36,1.15-1.15,1.15h-5.46l-.57-4.81,0-38.43Z" style="fill:#fff;opacity:0.4;isolation:isolate"/><path d="M616.6,342.67h-3.66V381l-2.44,3.73s-.36,1.15,1.15,1.15h5.45l.58-4.81,0-38.43Z" style="fill:#f94600;opacity:0.44;isolation:isolate"/><path d="M608.73,348.82h-7.85a4.85,4.85,0,0,0-4.7,3.35s.9-2.06,4.63-2.06h7.93Z" style="fill:#fff"/><path d="M600.14,366.9l8.77,7A15.23,15.23,0,0,1,600.14,366.9Z" style="fill:#fff"/><path d="M638,368.82l-.09-1.36c-.35-5.32-6.36.12-11.52.46l-64.29-5.16a7.78,7.78,0,0,0-7.12,8.38l.09,1.36a15.58,15.58,0,0,0,16.36,14.78l53.86-3.53A13.86,13.86,0,0,0,638,368.82Z" style="fill:url(#linear-gradient-5)"/><path d="M579.38,364.08l-17.28-1.32A7.66,7.66,0,0,0,555,370.9l.09,1.33a15.36,15.36,0,0,0,16.33,14.32l9.6-.63" style="fill:#f1f5ff"/><path d="M568.54,382.32h0c4.83-4.59,1.18-7.92-3.41-12.75L516.3,309.86a4.84,4.84,0,0,0-6.84-.17l-1.74,1.65a22.42,22.42,0,0,0-.8,31.71l36.73,38.64A17.6,17.6,0,0,0,568.54,382.32Z" style="fill:#f1f5ff"/></g><g id="Layer_3" data-name="Layer 3"><rect x="235.33" y="386" width="550" height="20" style="fill:#fda787"/><rect x="255.33" y="413" width="510" height="220" style="fill:#cf6b5f"/><rect x="235.33" y="633" width="550" height="20" style="fill:#fda787"/><path d="M235,406l20,7H765l20-7Z" style="fill:#9e6654"/><rect x="286" y="440" width="128" height="164" style="fill:#7c2b29"/><rect x="305" y="461" width="89" height="123" style="fill:#cf6b5f"/><polygon points="286 440 290 444.04 410 444.04 414 440 286 440" style="fill:#4f1310"/><polygon points="286 604 290 599.39 410 599.39 414 604 286 604" style="fill:#fedb50"/><polygon points="305 461 394 461 390 464 309 464 305 461" style="fill:#ed918a"/><polygon points="305.22 584 394.22 584 390.22 581 309.22 581 305.22 584" style="fill:#9b3d38"/><polygon points="305 461 309 464 309 581 305 584 305 461" style="fill:#b24d4b"/><polygon points="394 461.11 390 464.11 390 581.11 394 584.11 394 461.11" style="fill:#b24d4b"/><polygon points="286 440 290 444 290 599 286 604 286 440" style="fill:#993a3a"/><polygon points="414 440 410 444 410 599.39 414 604 414 440" style="fill:#993a3a"/><rect x="446.76" y="439.81" width="128" height="164" style="fill:#7c2b29"/><rect x="465.76" y="460.81" width="89" height="123" style="fill:#cf6b5f"/><polygon points="446.76 439.81 450.76 443.85 570.76 443.85 574.76 439.81 446.76 439.81" style="fill:#4f1310"/><polygon points="446.76 603.81 450.76 599.2 570.76 599.2 574.76 603.81 446.76 603.81" style="fill:#fedb50"/><polygon points="465.76 460.81 554.76 460.81 550.76 463.81 469.76 463.81 465.76 460.81" style="fill:#ed918a"/><polygon points="465.98 583.81 554.98 583.81 550.98 580.81 469.98 580.81 465.98 583.81" style="fill:#9b3d38"/><polygon points="465.76 460.81 469.76 463.81 469.76 580.81 465.76 583.81 465.76 460.81" style="fill:#b24d4b"/><polygon points="554.76 460.92 550.76 463.92 550.76 580.92 554.76 583.92 554.76 460.92" style="fill:#b24d4b"/><polygon points="446.76 439.81 450.76 443.81 450.76 598.81 446.76 603.81 446.76 439.81" style="fill:#993a3a"/><polygon points="574.76 439.81 570.76 443.81 570.76 599.2 574.76 603.81 574.76 439.81" style="fill:#993a3a"/><rect x="605.52" y="439.52" width="128" height="164" style="fill:#7c2b29"/><rect x="624.52" y="460.52" width="89" height="123" style="fill:#cf6b5f"/><polygon points="605.52 439.52 609.52 443.57 729.52 443.57 733.52 439.52 605.52 439.52" style="fill:#4f1310"/><polygon points="605.52 603.52 609.52 598.91 729.52 598.91 733.52 603.52 605.52 603.52" style="fill:#fedb50"/><polygon points="624.52 460.52 713.52 460.52 709.52 463.52 628.52 463.52 624.52 460.52" style="fill:#ed918a"/><polygon points="624.73 583.52 713.73 583.52 709.73 580.52 628.73 580.52 624.73 583.52" style="fill:#9b3d38"/><polygon points="624.52 460.52 628.52 463.52 628.52 580.52 624.52 583.52 624.52 460.52" style="fill:#b24d4b"/><polygon points="713.52 460.63 709.52 463.63 709.52 580.63 713.52 583.63 713.52 460.63" style="fill:#b24d4b"/><polygon points="605.52 439.52 609.52 443.52 609.52 598.52 605.52 603.52 605.52 439.52" style="fill:#993a3a"/><polygon points="733.52 439.52 729.52 443.52 729.52 598.91 733.52 603.52 733.52 439.52" style="fill:#993a3a"/></g><g id="Layer_4" data-name="Layer 4"><ellipse cx="495.5" cy="409.5" rx="58.5" ry="14.5" style="fill:#fff"/><polygon points="431.36 653 446.51 442.52 452.21 442.52 432.92 653 431.36 653" style="fill:url(#_ÂÁ_Ï_ÌÌ_È_ËÂÌÚ_211)"/><polygon points="431.36 653 428.93 653 442.15 442.52 446.51 442.52 431.36 653" style="fill:url(#_ÂÁ_Ï_ÌÌ_È_ËÂÌÚ_207-2)"/><polygon points="569.57 653 545.22 442.52 539.53 442.52 568.01 653 569.57 653" style="fill:url(#_ÂÁ_Ï_ÌÌ_È_ËÂÌÚ_207-3)"/><polygon points="569.57 653 572 653 549.58 442.52 545.22 442.52 569.57 653" style="fill:url(#_ÂÁ_Ï_ÌÌ_È_ËÂÌÚ_211-2)"/><polygon points="528.06 653 518.91 442.52 513.22 442.52 526.5 653 528.06 653" style="fill:url(#_ÂÁ_Ï_ÌÌ_È_ËÂÌÚ_207-4)"/><polygon points="528.06 653 530.49 653 523.28 442.52 518.91 442.52 528.06 653" style="fill:url(#_ÂÁ_Ï_ÌÌ_È_ËÂÌÚ_211-3)"/><polygon points="563.73 607.95 479.94 607.95 435.66 608.73 435.34 613.84 480.44 613.86 564.06 613.33 563.73 607.95" style="fill:url(#_ÂÁ_Ï_ÌÌ_È_ËÂÌÚ_207-5)"/><polygon points="471.73 607.95 471.55 612.51 564 612.45 563.68 607.95 471.73 607.95" style="fill:url(#_ÂÁ_Ï_ÌÌ_È_ËÂÌÚ_179)"/><polygon points="474.22 653 477.36 442.52 483.05 442.52 475.78 653 474.22 653" style="fill:url(#_ÂÁ_Ï_ÌÌ_È_ËÂÌÚ_211-4)"/><polygon points="474.22 653 471.79 653 472.99 442.52 477.36 442.52 474.22 653" style="fill:url(#_ÂÁ_Ï_ÌÌ_È_ËÂÌÚ_207-6)"/><polygon points="551.05 456.31 547.19 459.56 543 468.22 540.59 450.4 550.42 450.4 551.05 456.31" style="mix-blend-mode:multiply;fill:url(#_ÂÁ_Ï_ÌÌ_È_ËÂÌÚ_140)"/><polygon points="523.86 459.31 519.68 460.22 514.73 466.43 513.72 450.4 523.55 450.4 523.86 459.31" style="mix-blend-mode:multiply;fill:url(#_ÂÁ_Ï_ÌÌ_È_ËÂÌÚ_140-2)"/><polygon points="482.47 459.31 477.11 459.31 472.85 467.26 472.95 450.4 482.78 450.4 482.47 459.31" style="mix-blend-mode:multiply;fill:url(#_ÂÁ_Ï_ÌÌ_È_ËÂÌÚ_140-3)"/><polygon points="450.75 458.42 445.34 458.83 440.71 465.44 441.65 450.4 451.48 450.4 450.75 458.42" style="mix-blend-mode:multiply;fill:url(#_ÂÁ_Ï_ÌÌ_È_ËÂÌÚ_140-4)"/><polygon points="553.67 453.89 554.35 446.37 486.7 446.37 486.7 453.89 553.67 453.89" style="fill:url(#_ÂÁ_Ï_ÌÌ_È_ËÂÌÚ_211-5)"/><polygon points="486.7 446.37 437.04 445.88 436.75 453.4 486.7 453.89 486.7 446.37" style="fill:url(#_ÂÁ_Ï_ÌÌ_È_ËÂÌÚ_207-7)"/><polygon points="507.57 447.38 502.94 453.89 526.93 453.89 532.62 446.7 507.57 447.38" style="opacity:0.5;mix-blend-mode:screen;fill:url(#_ÂÁ_Ï_ÌÌ_È_ËÂÌÚ_233)"/><rect x="437" y="409" width="117" height="38" style="fill:#f1f5ff"/><path d="M437,409s50,36,117,38H437Z" style="fill:#a8ccfe"/></g><g id="Layer_5" data-name="Layer 5"><ellipse cx="737.67" cy="409.38" rx="58.5" ry="14.5" style="fill:#fff"/><polygon points="673.53 652.88 688.69 442.4 694.38 442.4 675.09 652.88 673.53 652.88" style="fill:url(#_ÂÁ_Ï_ÌÌ_È_ËÂÌÚ_211-6)"/><polygon points="673.53 652.88 671.11 652.88 684.32 442.4 688.69 442.4 673.53 652.88" style="fill:url(#_ÂÁ_Ï_ÌÌ_È_ËÂÌÚ_207-8)"/><polygon points="811.75 652.88 787.39 442.4 781.7 442.4 810.19 652.88 811.75 652.88" style="fill:url(#_ÂÁ_Ï_ÌÌ_È_ËÂÌÚ_207-9)"/><polygon points="811.75 652.88 814.17 652.88 791.76 442.4 787.39 442.4 811.75 652.88" style="fill:url(#_ÂÁ_Ï_ÌÌ_È_ËÂÌÚ_211-7)"/><polygon points="770.24 652.88 761.09 442.4 755.4 442.4 768.68 652.88 770.24 652.88" style="fill:url(#_ÂÁ_Ï_ÌÌ_È_ËÂÌÚ_207-10)"/><polygon points="770.24 652.88 772.66 652.88 765.45 442.4 761.09 442.4 770.24 652.88" style="fill:url(#_ÂÁ_Ï_ÌÌ_È_ËÂÌÚ_211-8)"/><polygon points="805.9 607.83 722.11 607.83 677.83 608.61 677.51 613.72 722.62 613.74 806.24 613.21 805.9 607.83" style="fill:url(#_ÂÁ_Ï_ÌÌ_È_ËÂÌÚ_207-11)"/><polygon points="713.9 607.83 713.72 612.39 806.17 612.32 805.85 607.83 713.9 607.83" style="fill:url(#_ÂÁ_Ï_ÌÌ_È_ËÂÌÚ_179-2)"/><polygon points="716.39 652.88 719.53 442.4 725.22 442.4 717.95 652.88 716.39 652.88" style="fill:url(#_ÂÁ_Ï_ÌÌ_È_ËÂÌÚ_211-9)"/><polygon points="716.39 652.88 713.97 652.88 715.17 442.4 719.53 442.4 716.39 652.88" style="fill:url(#_ÂÁ_Ï_ÌÌ_È_ËÂÌÚ_207-12)"/><polygon points="793.23 456.19 789.36 459.43 785.18 468.09 782.77 450.28 792.6 450.28 793.23 456.19" style="mix-blend-mode:multiply;fill:url(#_ÂÁ_Ï_ÌÌ_È_ËÂÌÚ_140-5)"/><polygon points="766.03 459.19 761.86 460.1 756.91 466.31 755.89 450.28 765.72 450.28 766.03 459.19" style="mix-blend-mode:multiply;fill:url(#_ÂÁ_Ï_ÌÌ_È_ËÂÌÚ_140-6)"/><polygon points="724.64 459.19 719.28 459.19 715.02 467.13 715.12 450.28 724.95 450.28 724.64 459.19" style="mix-blend-mode:multiply;fill:url(#_ÂÁ_Ï_ÌÌ_È_ËÂÌÚ_140-7)"/><polygon points="692.92 458.3 687.51 458.71 682.88 465.32 683.83 450.28 693.66 450.28 692.92 458.3" style="mix-blend-mode:multiply;fill:url(#_ÂÁ_Ï_ÌÌ_È_ËÂÌÚ_140-8)"/><polygon points="795.85 453.77 796.52 446.24 728.88 446.24 728.88 453.77 795.85 453.77" style="fill:url(#_ÂÁ_Ï_ÌÌ_È_ËÂÌÚ_211-10)"/><polygon points="728.88 446.24 679.21 445.75 678.92 453.28 728.88 453.77 728.88 446.24" style="fill:url(#_ÂÁ_Ï_ÌÌ_È_ËÂÌÚ_207-13)"/><polygon points="749.75 447.26 745.12 453.77 769.1 453.77 774.79 446.58 749.75 447.26" style="opacity:0.5;mix-blend-mode:screen;fill:url(#_ÂÁ_Ï_ÌÌ_È_ËÂÌÚ_233-2)"/><rect x="679.17" y="408.88" width="117" height="38" style="fill:#f1f5ff"/><path d="M679.17,408.88s50,36,117,38h-117Z" style="fill:#a8ccfe"/></g><g id="Layer_8" data-name="Layer 8"><rect x="656.16" y="314.21" width="18.79" height="71.79" transform="translate(1331.11 700.21) rotate(-180)" style="fill:#dfd9e4"/><path d="M675,314.21s-1.42-6.78-9.36-6.78-9.43,6.78-9.43,6.78Z" style="fill:#fff"/><rect x="656.16" y="314.21" width="8.25" height="71.79" transform="translate(1320.57 700.21) rotate(-180)" style="fill:#e6e3e9"/><path d="M661.27,321.64s4,4.24,0,9.59H645.38s-4.27-.2-4.27,6.35h-9s1-15.77,12.61-15.77S661.27,321.64,661.27,321.64Z" style="fill:#d5cddc"/><path d="M644.62,322.41s-6.48,4.25-6.48,15.16h-5.47S633.53,322.33,644.62,322.41Z" style="fill:#fff"/><polygon points="650.13 321.79 644.77 321.81 645.96 315.18 648.98 315.18 650.13 321.79" style="fill:#edecee"/><path d="M649,315.18h-3A69.93,69.93,0,0,1,646,272h2.8S656.15,292.71,649,315.18Z" style="fill:#f4692f"/><path d="M646.49,272h1.65a66.78,66.78,0,0,1,2.79,13.16,71.52,71.52,0,0,1-2.58,30h-1.51" style="fill:#f98962"/></g><g id="Layer_9" data-name="Layer 9"><rect x="708.41" y="314.37" width="18.79" height="71.79" transform="translate(1435.6 700.54) rotate(-180)" style="fill:#dfd9e4"/><path d="M727.19,314.37s-1.42-6.77-9.35-6.77-9.43,6.77-9.43,6.77Z" style="fill:#fff"/><rect x="708.41" y="314.37" width="8.25" height="71.79" transform="translate(1425.06 700.54) rotate(-180)" style="fill:#e6e3e9"/><path d="M713.52,321.81s4,4.24,0,9.59H697.63s-4.28-.21-4.28,6.34h-9S685.42,322,697,322,713.52,321.81,713.52,321.81Z" style="fill:#d5cddc"/><path d="M696.87,322.58s-6.49,4.24-6.49,15.16h-5.47S685.77,322.49,696.87,322.58Z" style="fill:#fff"/><polygon points="702.38 321.96 697.02 321.98 698.21 315.35 701.23 315.35 702.38 321.96" style="fill:#edecee"/><path d="M701.23,315.35h-3a69.85,69.85,0,0,1,0-43.18H701S708.39,292.87,701.23,315.35Z" style="fill:#961d23"/><path d="M698.74,272.17h1.64a66.05,66.05,0,0,1,2.8,13.16,71.69,71.69,0,0,1-2.58,30h-1.51" style="fill:#aa3939"/></g></g></svg>