<svg xmlns="http://www.w3.org/2000/svg" xmlns:xlink="http://www.w3.org/1999/xlink" viewBox="0 0 1026 768"><defs><linearGradient id="prefix__a" x1="98" y1="252.62" x2="277" y2="252.62" gradientUnits="userSpaceOnUse"><stop offset=".01" stop-color="#fdd9d6"/><stop offset=".22" stop-color="#efd3dd"/><stop offset=".71" stop-color="#d3c7ea"/><stop offset="1" stop-color="#c9c2ef"/></linearGradient><linearGradient id="prefix__k" y1="347" y2="347" xlink:href="#prefix__a"/><linearGradient id="prefix__l" y1="445.5" y2="445.5" xlink:href="#prefix__a"/><linearGradient id="prefix__m" y1="544" y2="544" xlink:href="#prefix__a"/><linearGradient id="prefix__b" x1="-1530.09" y1="-16.49" x2="-1493.65" y2="-16.49" gradientTransform="matrix(-.6 -.32 -.2 .37 -270.43 -159.28)" gradientUnits="userSpaceOnUse"><stop offset="0" stop-color="#f0c7a5"/><stop offset="1" stop-color="#eea98e"/></linearGradient><linearGradient id="prefix__n" x1="429.6" y1="207.55" x2="454.92" y2="207.55" gradientTransform="rotate(64.29 441.57 294.173)" gradientUnits="userSpaceOnUse"><stop offset="0" stop-color="#eea98e"/><stop offset="1" stop-color="#f0c7a5"/></linearGradient><linearGradient id="prefix__o" x1="569.23" y1="360.79" x2="591.46" y2="360.79" gradientTransform="rotate(-3.75 -489.405 798.007)" xlink:href="#prefix__b"/><linearGradient id="prefix__p" x1="-381.62" y1="543.11" x2="-314.77" y2="543.11" gradientTransform="scale(-1 1) rotate(30.7 85.196 27.03)" xlink:href="#prefix__b"/><linearGradient id="prefix__f" x1="605.72" y1="521.04" x2="699.21" y2="521.04" gradientTransform="matrix(.96 -.16 .16 .99 -154.26 -67.69)" gradientUnits="userSpaceOnUse"><stop offset="0" stop-color="#3f2a48"/><stop offset=".23" stop-color="#322440"/><stop offset=".69" stop-color="#1d1a34"/><stop offset="1" stop-color="#161730"/></linearGradient><linearGradient id="prefix__c" x1="203.12" y1="104.47" x2="373.4" y2="104.47" gradientUnits="userSpaceOnUse"><stop offset="0" stop-color="#9b97bd"/><stop offset="1" stop-color="#aeadcd"/></linearGradient><linearGradient id="prefix__d" x1="-1456.22" y1="-347.92" x2="-1456.22" y2="-371.63" gradientTransform="rotate(90 -806.35 734.63)" gradientUnits="userSpaceOnUse"><stop offset="0" stop-color="#65032c"/><stop offset="1" stop-color="#a52413"/></linearGradient><linearGradient id="prefix__e" x1="-1449.16" y1="-344.39" x2="-1449.16" y2="-375.16" gradientTransform="rotate(90 -806.35 734.63)" gradientUnits="userSpaceOnUse"><stop offset="0" stop-color="#cec5d9"/><stop offset="1" stop-color="#fdebcf"/></linearGradient><linearGradient id="prefix__r" x1="621.12" y1="105.47" x2="791.4" y2="105.47" xlink:href="#prefix__c"/><linearGradient id="prefix__s" x1="-1455.22" y1="-765.92" x2="-1455.22" y2="-789.63" xlink:href="#prefix__d"/><linearGradient id="prefix__t" x1="-1448.16" y1="-762.39" x2="-1448.16" y2="-793.16" xlink:href="#prefix__e"/><linearGradient id="prefix__u" x1="73.14" y1="4342.65" x2="109.58" y2="4342.65" gradientTransform="matrix(-.05 -.69 .48 -.03 -1481.2 572.23)" xlink:href="#prefix__b"/><linearGradient id="prefix__g" x1="441.78" y1="653" x2="441.78" y2="442.52" gradientUnits="userSpaceOnUse"><stop offset="0" stop-color="#5e5278"/><stop offset=".29" stop-color="#5c4c71"/><stop offset=".72" stop-color="#563b5c"/><stop offset="1" stop-color="#512d4b"/></linearGradient><linearGradient id="prefix__v" x1="437.72" y1="653" x2="437.72" y2="442.52" xlink:href="#prefix__f"/><linearGradient id="prefix__w" x1="-978.41" y1="653" x2="-978.41" y2="442.52" gradientTransform="matrix(-1 0 0 1 -423.86 0)" xlink:href="#prefix__f"/><linearGradient id="prefix__x" x1="-982.47" x2="-982.47" y2="442.52" gradientTransform="matrix(-1 0 0 1 -423.86 0)" xlink:href="#prefix__g"/><linearGradient id="prefix__y" x1="-944.5" y1="653" x2="-944.5" y2="442.52" gradientTransform="matrix(-1 0 0 1 -423.86 0)" xlink:href="#prefix__f"/><linearGradient id="prefix__z" x1="-948.56" x2="-948.56" y2="442.52" gradientTransform="matrix(-1 0 0 1 -423.86 0)" xlink:href="#prefix__g"/><linearGradient id="prefix__A" x1="499.7" y1="613.86" x2="499.7" y2="607.95" xlink:href="#prefix__f"/><linearGradient id="prefix__i" x1="471.55" y1="610.23" x2="564" y2="610.23" gradientUnits="userSpaceOnUse"><stop offset="0" stop-color="#5b3955"/><stop offset=".15" stop-color="#593e5c"/><stop offset=".66" stop-color="#534d71"/><stop offset="1" stop-color="#515278"/></linearGradient><linearGradient id="prefix__B" x1="478.64" x2="478.64" y2="442.52" xlink:href="#prefix__g"/><linearGradient id="prefix__C" x1="474.57" y1="653" x2="474.57" y2="442.52" xlink:href="#prefix__f"/><linearGradient id="prefix__h" x1="545.82" y1="468.22" x2="545.82" y2="450.4" gradientUnits="userSpaceOnUse"><stop offset="0" stop-color="#b3708f"/><stop offset="1" stop-color="#857082"/></linearGradient><linearGradient id="prefix__D" x1="518.79" y1="466.43" x2="518.79" y2="450.4" xlink:href="#prefix__h"/><linearGradient id="prefix__E" x1="477.81" y1="467.26" x2="477.81" y2="450.4" xlink:href="#prefix__h"/><linearGradient id="prefix__F" x1="446.1" y1="465.45" x2="446.1" y2="450.4" xlink:href="#prefix__h"/><linearGradient id="prefix__G" x1="486.7" y1="450.13" x2="554.35" y2="450.13" xlink:href="#prefix__g"/><linearGradient id="prefix__H" x1="436.75" y1="449.88" x2="486.7" y2="449.88" xlink:href="#prefix__f"/><linearGradient id="prefix__j" x1="517.78" y1="453.89" x2="517.78" y2="446.7" gradientUnits="userSpaceOnUse"><stop offset="0" stop-color="#00011f"/><stop offset="1" stop-color="#6c4b68"/></linearGradient><linearGradient id="prefix__I" x1="683.96" y1="652.88" x2="683.96" y2="442.4" xlink:href="#prefix__g"/><linearGradient id="prefix__J" x1="679.9" y1="652.88" x2="679.9" y2="442.4" xlink:href="#prefix__f"/><linearGradient id="prefix__K" x1="-1220.58" y1="652.88" x2="-1220.58" y2="442.4" gradientTransform="matrix(-1 0 0 1 -423.86 0)" xlink:href="#prefix__f"/><linearGradient id="prefix__L" x1="-1224.64" y1="652.88" x2="-1224.64" y2="442.4" gradientTransform="matrix(-1 0 0 1 -423.86 0)" xlink:href="#prefix__g"/><linearGradient id="prefix__M" x1="-1186.68" y1="652.88" x2="-1186.68" y2="442.4" gradientTransform="matrix(-1 0 0 1 -423.86 0)" xlink:href="#prefix__f"/><linearGradient id="prefix__N" x1="-1190.74" y1="652.88" x2="-1190.74" y2="442.4" gradientTransform="matrix(-1 0 0 1 -423.86 0)" xlink:href="#prefix__g"/><linearGradient id="prefix__O" x1="741.88" y1="613.74" x2="741.88" y2="607.83" xlink:href="#prefix__f"/><linearGradient id="prefix__P" x1="713.72" y1="610.11" x2="806.17" y2="610.11" xlink:href="#prefix__i"/><linearGradient id="prefix__Q" x1="720.81" y1="652.88" x2="720.81" y2="442.4" xlink:href="#prefix__g"/><linearGradient id="prefix__R" x1="716.75" y1="652.88" x2="716.75" y2="442.4" xlink:href="#prefix__f"/><linearGradient id="prefix__S" x1="788" y1="468.09" x2="788" y2="450.28" xlink:href="#prefix__h"/><linearGradient id="prefix__T" x1="760.96" y1="466.31" x2="760.96" y2="450.28" xlink:href="#prefix__h"/><linearGradient id="prefix__U" x1="719.99" y1="467.13" x2="719.99" y2="450.28" xlink:href="#prefix__h"/><linearGradient id="prefix__V" x1="688.27" y1="465.32" x2="688.27" y2="450.28" xlink:href="#prefix__h"/><linearGradient id="prefix__W" x1="728.88" y1="450.01" x2="796.52" y2="450.01" xlink:href="#prefix__g"/><linearGradient id="prefix__X" x1="678.92" y1="449.76" x2="728.88" y2="449.76" xlink:href="#prefix__f"/><linearGradient id="prefix__Y" x1="759.96" y1="453.77" x2="759.96" y2="446.58" xlink:href="#prefix__j"/><clipPath id="prefix__q"><path d="M538.85 303.79l20.87-3.79a4.06 4.06 0 011.8.07l28.57 7.49a4.93 4.93 0 013.53 5l-2.93 65.71a4.52 4.52 0 01-3.54 4.36l-50.29 9.74a4.58 4.58 0 01-5.07-3.1l-25-68.62a4.79 4.79 0 012.6-6.19L538.16 304a4.43 4.43 0 01.69-.21z" fill="#f1f5ff"/></clipPath></defs><g style="isolation:isolate"><g data-name="Layer 2"><path fill="#3d395f" d="M0 634h1025v134H0z"/><path fill="#4157ab" d="M0 48h1025v587H0z"/><path fill="#a9cefc" d="M0 0h1026v48H0z"/></g><g data-name="Layer 7"><path fill="#f1f5ff" d="M74 222h224v421H74z"/><path fill="#3c3249" d="M81 231h206v400H81z"/><path fill="#655773" d="M89 231h198v400H89z"/><path fill="#c4c4c4" d="M74 643l-46-7V228l46-6v421z"/><path fill="#b4b4d1" d="M277 623H98V236h179v387z"/><path fill="#a3a3bf" d="M224 236h53v387h-53z"/><path fill="#e3e4e5" d="M98 317h179v9H98zM98 422h179v9H98zM98 523h179v9H98z"/><path style="mix-blend-mode:multiply" opacity=".5" fill="url(#prefix__a)" d="M277 236l-53 22-126 11.25V236h179z"/><path style="mix-blend-mode:multiply" opacity=".5" fill="url(#prefix__k)" d="M277 326l-53 23-126 19v-42h179z"/><path style="mix-blend-mode:multiply" opacity=".5" fill="url(#prefix__l)" d="M277 431l-53 23-126 6v-29h179z"/><path style="mix-blend-mode:multiply" opacity=".5" fill="url(#prefix__m)" d="M277 532l-53 23-126 1v-24h179z"/><path fill="#b6b6cc" d="M97.61 390H86v3h8.44v67H86v3h19v-73h-7.39z"/><path fill="#fff" d="M105 463l-8-2v-71h8v73z"/><path d="M105 463l-8-2H86v2z" fill="#7e7ea3"/><g opacity=".47" fill="#5b5b5b"><path d="M118.02 263.04h7.42v20.4h-7.42z"/><path d="M112.45 284.37l5.57-8.35h7.42l5.56 8.35h-18.55zM112.45 284.37H131v32.45h-18.55zM117.86 260.43h7.73l.77 2.78h-9.27l.77-2.78z"/></g><g opacity=".47" fill="#5b5b5b"><path d="M151.28 263.45h7.42v20.31h-7.42z"/><path d="M145.72 284.68l5.56-8.31h7.42l5.56 8.31h-18.54zM145.72 284.68h18.55V317h-18.55zM151.13 260.84h7.72l.78 2.77h-9.28l.78-2.77z"/></g><g opacity=".47" fill="#5b5b5b"><path d="M191.14 263.15h7.42v20.4h-7.42z"/><path d="M185.58 284.48l5.56-8.35h7.42l5.56 8.35h-18.54zM185.58 284.48h18.55v32.45h-18.55zM190.99 260.53h7.72l.78 2.78h-9.28l.78-2.78z"/></g><path fill="#674300" d="M134.77 258.89h8v22h-8z"/><path fill="#674300" d="M128.77 281.89l6-9h8l6 9h-20zM128.77 281.89h20v35h-20z"/><path fill="#4c3300" d="M135.34 272.94l-5.84 8.96v33.99h19.27v-34l-6-9-7.43.05z"/><path d="M137.24 272.94l-5.84 9v32a19.58 19.58 0 0116.37 0V281.8l-6-8.91z" fill="#614800"/><path fill="#f9b63e" d="M134.77 260.89h8v12h-8zM130.77 294.89h16v8h-16zM130.77 294.89s1-3 8-3 8 3 8 3z"/><path fill="#364f38" d="M134.6 256.89h8.34l.83 3h-10l.83-3z"/><path d="M134.77 256.89s3 2 8 0z" fill="#718e55"/><path d="M141.08 275l.92 6.68v35.29h4.16v-35l-3.39-7s-1.32.03-1.69.03z" fill="#d1c5a6" opacity=".54"/><path fill="#674300" d="M168.82 258.89h8v22h-8z"/><path fill="#674300" d="M162.82 281.89l6-9h8l6 9h-20zM162.82 281.89h20v35h-20z"/><path fill="#4c3300" d="M169.38 272.94l-5.84 8.96v33.99h19.28v-34l-6-9-7.44.05z"/><path d="M171.29 272.94l-5.84 9v32a19.58 19.58 0 0116.37 0V281.8l-6-8.91z" fill="#614800"/><path fill="#f9b63e" d="M168.82 260.89h8v12h-8zM164.82 294.89h16v8h-16zM164.82 294.89s1-3 8-3 8 3 8 3z"/><path fill="#364f38" d="M168.65 256.89h8.33l.84 3h-10l.83-3z"/><path d="M168.82 256.89s3 2 8 0z" fill="#718e55"/><path d="M175.13 275l.92 6.68v35.29h4.16v-35l-3.39-7s-1.32.03-1.69.03z" fill="#d1c5a6" opacity=".54"/><path fill="#674300" d="M208.18 258.89h8v22h-8z"/><path fill="#674300" d="M202.18 281.89l6-9h8l6 9h-20zM202.18 281.89h20v35h-20z"/><path fill="#4c3300" d="M208.74 272.94l-5.84 8.96v33.99h19.28v-34l-6-9-7.44.05z"/><path d="M210.65 272.94l-5.84 9v32a19.58 19.58 0 0116.37 0V281.8l-6-8.91z" fill="#614800"/><path fill="#f9b63e" d="M208.18 260.89h8v12h-8zM204.18 294.89h16v8h-16zM204.18 294.89s1-3 8-3 8 3 8 3z"/><path fill="#364f38" d="M208.01 256.89h8.33l.84 3h-10l.83-3z"/><path d="M208.18 256.89s3 2 8 0z" fill="#718e55"/><path d="M214.49 275l.92 6.68v35.29h4.16v-35l-3.39-7s-1.32.03-1.69.03z" fill="#d1c5a6" opacity=".54"/><path fill="#674300" d="M228.2 258.89h8v22h-8z"/><path fill="#674300" d="M222.2 281.89l6-9h8l6 9h-20zM222.2 281.89h20v35h-20z"/><path fill="#4c3300" d="M228.76 272.94l-5.84 8.96v33.99h19.28v-34l-6-9-7.44.05z"/><path d="M230.67 272.94l-5.84 9v32a19.58 19.58 0 0116.37 0V281.8l-6-8.91z" fill="#614800"/><path fill="#f9b63e" d="M228.2 260.89h8v12h-8zM224.2 294.89h16v8h-16zM224.2 294.89s1-3 8-3 8 3 8 3z"/><path fill="#364f38" d="M228.03 256.89h8.33l.84 3h-10l.83-3z"/><path d="M228.2 256.89s3 2 8 0z" fill="#718e55"/><path d="M234.51 275l.92 6.68v35.29h4.16v-35l-3.39-7s-1.32.03-1.69.03z" fill="#d1c5a6" opacity=".54"/><g opacity=".47" fill="#5b5b5b"><path d="M120.15 368.37h7.42v20.4h-7.42z"/><path d="M114.59 389.7l5.56-8.35h7.42l5.56 8.35h-18.54zM114.59 389.7h18.55v32.45h-18.55zM120 365.75h7.73l.77 2.79h-9.27l.77-2.79z"/></g><g opacity=".47" fill="#5b5b5b"><path d="M153.42 368.78h7.42v20.31h-7.42z"/><path d="M147.85 390.01l5.57-8.31h7.42l5.56 8.31h-18.55zM147.85 390.01h18.55v32.32h-18.55zM153.26 366.17h7.73l.77 2.77h-9.27l.77-2.77z"/></g><g opacity=".47" fill="#5b5b5b"><path d="M193.27 368.48h7.42v20.4h-7.42z"/><path d="M187.71 389.81l5.57-8.35h7.41l5.57 8.35h-18.55zM187.71 389.81h18.55v32.45h-18.55zM193.12 365.86h7.73l.77 2.79h-9.27l.77-2.79z"/></g><path fill="#674300" d="M136.91 364.23h8v22h-8z"/><path fill="#674300" d="M130.91 387.23l6-9h8l6 9h-20zM130.91 387.23h20v35h-20z"/><path fill="#4c3300" d="M137.47 378.27l-5.84 8.96v34h19.28v-34l-6-9-7.44.04z"/><path d="M139.38 378.27l-5.84 9v32a19.58 19.58 0 0116.37 0v-32.1l-6-8.9z" fill="#614800"/><path fill="#f9b63e" d="M136.91 366.23h8v12h-8zM132.91 400.23h16v8h-16zM132.91 400.23s1-3 8-3 8 3 8 3z"/><path fill="#364f38" d="M136.74 362.23h8.33l.84 3h-10l.83-3z"/><path d="M136.91 362.23s3 2 8 0z" fill="#718e55"/><path d="M143.22 380.29l.92 6.68v35.29h4.16v-35l-3.39-7s-1.32.03-1.69.03z" fill="#d1c5a6" opacity=".54"/><path fill="#674300" d="M170.95 364.23h8v22h-8z"/><path fill="#674300" d="M164.95 387.23l6-9h8l6 9h-20zM164.95 387.23h20v35h-20z"/><path fill="#4c3300" d="M171.52 378.27l-5.84 8.96v34h19.27v-34l-6-9-7.43.04z"/><path d="M173.42 378.27l-5.84 9v32a19.58 19.58 0 0116.37 0v-32.1l-6-8.9z" fill="#614800"/><path fill="#f9b63e" d="M170.95 366.23h8v12h-8zM166.95 400.23h16v8h-16zM167 400.23s1-3 8-3 8 3 8 3z"/><path fill="#364f38" d="M170.78 362.23h8.34l.83 3h-10l.83-3z"/><path d="M171 362.23s3 2 8 0z" fill="#718e55"/><path d="M177.26 380.29l.92 6.68v35.29h4.17v-35l-3.4-7s-1.31.03-1.69.03z" fill="#d1c5a6" opacity=".54"/><path fill="#674300" d="M210.31 364.23h8v22h-8z"/><path fill="#674300" d="M204.31 387.23l6-9h8l6 9h-20zM204.31 387.23h20v35h-20z"/><path fill="#4c3300" d="M210.88 378.27l-5.84 8.96v34h19.27v-34l-6-9-7.43.04z"/><path d="M212.78 378.27l-5.83 9v32a19.55 19.55 0 0116.36 0v-32.1l-6-8.9z" fill="#614800"/><path fill="#f9b63e" d="M210.31 366.23h8v12h-8zM206.31 400.23h16v8h-16zM206.31 400.23s1-3 8-3 8 3 8 3z"/><path fill="#364f38" d="M210.15 362.23h8.33l.83 3h-10l.84-3z"/><path d="M210.31 362.23s3 2 8 0z" fill="#718e55"/><path d="M216.63 380.29l.91 6.68v35.29h4.17v-35l-3.4-7s-1.31.03-1.68.03z" fill="#d1c5a6" opacity=".54"/><path fill="#674300" d="M230.33 364.23h8v22h-8z"/><path fill="#674300" d="M224.33 387.23l6-9h8l6 9h-20zM224.33 387.23h20v35h-20z"/><path fill="#4c3300" d="M230.9 378.27l-5.84 8.96v34h19.27v-34l-6-9-7.43.04z"/><path d="M232.8 378.27l-5.84 9v32a19.58 19.58 0 0116.37 0v-32.1l-6-8.9z" fill="#614800"/><path fill="#f9b63e" d="M230.33 366.23h8v12h-8zM226.33 400.23h16v8h-16zM226.33 400.23s1-3 8-3 8 3 8 3z"/><path fill="#364f38" d="M230.16 362.23h8.34l.83 3h-10l.83-3z"/><path d="M230.33 362.23s3 2 8 0z" fill="#718e55"/><path d="M236.65 380.29l.91 6.68v35.29h4.17v-35l-3.4-7s-1.33.03-1.68.03z" fill="#d1c5a6" opacity=".54"/><g opacity=".47" fill="#5b5b5b"><path d="M121.81 468.47h7.42v20.4h-7.42z"/><path d="M116.24 489.79l5.57-8.34h7.41l5.57 8.34h-18.55zM116.24 489.79h18.55v32.45h-18.55zM121.65 465.85h7.73l.77 2.78h-9.27l.77-2.78z"/></g><g opacity=".47" fill="#5b5b5b"><path d="M155.07 468.87h7.42v20.31h-7.42z"/><path d="M149.51 490.11l5.56-8.31h7.42l5.56 8.31h-18.54zM149.51 490.11h18.55v32.32h-18.55zM154.91 466.26h7.73l.77 2.77h-9.27l.77-2.77z"/></g><g opacity=".47" fill="#5b5b5b"><path d="M194.93 468.57h7.42v20.4h-7.42z"/><path d="M189.36 489.9l5.57-8.34h7.41l5.57 8.34h-18.55zM189.36 489.9h18.55v32.45h-18.55zM194.77 465.96h7.73l.77 2.78H194l.77-2.78z"/></g><path fill="#674300" d="M138.56 464.32h8v22h-8z"/><path fill="#674300" d="M132.56 487.32l6-9h8l6 9h-20zM132.56 487.32h20v35h-20z"/><path fill="#4c3300" d="M139.12 478.36l-5.84 8.96v34h19.28v-34l-6-9-7.44.04z"/><path d="M141 478.36l-5.84 9v32a19.58 19.58 0 0116.37 0v-32.1l-6-8.9z" fill="#614800"/><path fill="#f9b63e" d="M138.56 466.32h8v12h-8zM134.56 500.32h16v8h-16zM134.56 500.32s1-3 8-3 8 3 8 3z"/><path fill="#364f38" d="M138.39 462.32h8.33l.84 3h-10l.83-3z"/><path d="M138.56 462.32s3 2 8 0z" fill="#718e55"/><path d="M144.87 480.38l.92 6.68v35.3H150v-35l-3.39-7s-1.37.02-1.74.02z" fill="#d1c5a6" opacity=".54"/><path fill="#674300" d="M172.6 464.32h8v22h-8z"/><path fill="#674300" d="M166.6 487.32l6-9h8l6 9h-20zM166.6 487.32h20v35h-20z"/><path fill="#4c3300" d="M173.17 478.36l-5.84 8.96v34h19.27v-34l-6-9-7.43.04z"/><path d="M175.08 478.36l-5.84 9v32a19.55 19.55 0 0116.36 0v-32.1l-6-8.9z" fill="#614800"/><path fill="#f9b63e" d="M172.6 466.32h8v12h-8zM168.6 500.32h16v8h-16zM168.6 500.32s1-3 8-3 8 3 8 3z"/><path fill="#364f38" d="M172.44 462.32h8.33l.83 3h-10l.84-3z"/><path d="M172.6 462.32s3 2 8 0z" fill="#718e55"/><path d="M178.92 480.38l.91 6.68v35.3H184v-35l-3.4-7s-1.31.02-1.68.02z" fill="#d1c5a6" opacity=".54"/><path fill="#674300" d="M211.96 464.32h8v22h-8z"/><path fill="#674300" d="M205.97 487.32l6-9h8l6 9h-20zM205.96 487.32h20v35h-20z"/><path fill="#4c3300" d="M212.53 478.36l-5.84 8.96v34h19.28v-34l-6-9-7.44.04z"/><path d="M214.44 478.36l-5.84 9v32a19.55 19.55 0 0116.36 0v-32.1l-6-8.9z" fill="#614800"/><path fill="#f9b63e" d="M211.96 466.32h8v12h-8zM207.96 500.32h16v8h-16zM208 500.32s1-3 8-3 8 3 8 3z"/><path fill="#364f38" d="M211.8 462.32h8.33l.84 3h-10l.83-3z"/><path d="M212 462.32s3 2 8 0z" fill="#718e55"/><path d="M218.28 480.38l.91 6.68v35.3h4.17v-35l-3.4-7s-1.31.02-1.68.02z" fill="#d1c5a6" opacity=".54"/><path fill="#674300" d="M231.98 464.32h8v22h-8z"/><path fill="#674300" d="M225.98 487.32l6-9h8l6 9h-20zM225.98 487.32h20v35h-20z"/><path fill="#4c3300" d="M232.55 478.36l-5.84 8.96v34h19.27v-34l-6-9-7.43.04z"/><path d="M234.46 478.36l-5.84 9v32a19.55 19.55 0 0116.36 0v-32.1l-6-8.9z" fill="#614800"/><path fill="#f9b63e" d="M231.98 466.32h8v12h-8zM227.98 500.32h16v8h-16zM228 500.32s1-3 8-3 8 3 8 3z"/><path fill="#364f38" d="M231.82 462.32h8.33l.83 3h-10l.84-3z"/><path d="M232 462.32s3 2 8 0z" fill="#718e55"/><path d="M238.3 480.38l.91 6.68v35.3h4.17v-35l-3.4-7s-1.31.02-1.68.02z" fill="#d1c5a6" opacity=".54"/><g opacity=".47" fill="#5b5b5b"><path d="M125.17 569.49h7.42v20.4h-7.42z"/><path d="M119.61 590.82l5.56-8.35h7.42l5.57 8.35h-18.55zM119.61 590.82h18.55v32.45h-18.55zM125.02 566.88h7.73l.77 2.78h-9.27l.77-2.78z"/></g><g opacity=".47" fill="#5b5b5b"><path d="M158.44 569.9h7.42v20.31h-7.42z"/><path d="M152.88 591.13l5.56-8.31h7.42l5.56 8.31h-18.54zM152.87 591.13h18.55v32.32h-18.55zM158.28 567.29h7.73l.77 2.77h-9.27l.77-2.77z"/></g><g opacity=".47" fill="#5b5b5b"><path d="M198.3 569.6h7.42V590h-7.42z"/><path d="M192.73 590.93l5.57-8.35h7.41l5.57 8.35h-18.55zM192.73 590.93h18.55v32.45h-18.55zM198.14 566.99h7.73l.77 2.78h-9.27l.77-2.78z"/></g><path fill="#674300" d="M141.93 565.35h8v22h-8z"/><path fill="#674300" d="M135.93 588.35l6-9h8l6 9h-20zM135.93 588.35h20v35h-20z"/><path fill="#4c3300" d="M142.49 579.39l-5.84 8.96v34h19.28v-34l-6-9-7.44.04z"/><path d="M144.4 579.39l-5.84 9v32a19.58 19.58 0 0116.37 0v-32.1l-6-8.9z" fill="#614800"/><path fill="#f9b63e" d="M141.93 567.35h8v12h-8zM137.93 601.35h16v8h-16zM137.93 601.35s1-3 8-3 8 3 8 3z"/><path fill="#364f38" d="M141.76 563.35h8.33l.84 3h-10l.83-3z"/><path d="M141.93 563.35s3 2 8 0z" fill="#718e55"/><path d="M148.24 581.41l.92 6.68v35.29h4.16v-35l-3.39-7s-1.32.03-1.69.03z" fill="#d1c5a6" opacity=".54"/><path fill="#674300" d="M175.97 565.35h8v22h-8z"/><path fill="#674300" d="M169.97 588.35l6-9h8l6 9h-20zM169.97 588.35h20v35h-20z"/><path fill="#4c3300" d="M176.54 579.39l-5.84 8.96v34h19.27v-34l-6-9-7.43.04z"/><path d="M178.44 579.39l-5.83 9v32a19.55 19.55 0 0116.36 0v-32.1l-6-8.9z" fill="#614800"/><path fill="#f9b63e" d="M175.97 567.35h8v12h-8zM171.97 601.35h16v8h-16zM172 601.35s1-3 8-3 8 3 8 3z"/><path fill="#364f38" d="M175.81 563.35h8.33l.83 3h-10l.84-3z"/><path d="M176 563.35s3 2 8 0z" fill="#718e55"/><path d="M182.29 581.41l.91 6.68v35.29h4.17v-35l-3.4-7s-1.31.03-1.68.03z" fill="#d1c5a6" opacity=".54"/><path fill="#674300" d="M215.33 565.35h8v22h-8z"/><path fill="#674300" d="M209.33 588.35l6-9h8l6 9h-20zM209.33 588.35h20v35h-20z"/><path fill="#4c3300" d="M215.9 579.39l-5.84 8.96v34h19.27v-34l-6-9-7.43.04z"/><path d="M217.81 579.39l-5.84 9v32a19.55 19.55 0 0116.36 0v-32.1l-6-8.9z" fill="#614800"/><path fill="#f9b63e" d="M215.33 567.35h8v12h-8zM211.33 601.35h16v8h-16zM211.33 601.35s1-3 8-3 8 3 8 3z"/><path fill="#364f38" d="M215.17 563.35h8.33l.83 3h-10l.84-3z"/><path d="M215.33 563.35s3 2 8 0z" fill="#718e55"/><path d="M221.65 581.41l.91 6.68v35.29h4.17v-35l-3.4-7s-1.33.03-1.68.03z" fill="#d1c5a6" opacity=".54"/><path fill="#674300" d="M235.35 565.35h8v22h-8z"/><path fill="#674300" d="M229.35 588.35l6-9h8l6 9h-20zM229.35 588.35h20v35h-20z"/><path fill="#4c3300" d="M235.92 579.39l-5.84 8.96v34h19.27v-34l-6-9-7.43.04z"/><path d="M237.82 579.39l-5.83 9v32a19.55 19.55 0 0116.36 0v-32.1l-6-8.9z" fill="#614800"/><path fill="#f9b63e" d="M235.35 567.35h8v12h-8zM231.35 601.35h16v8h-16zM231.35 601.35s1-3 8-3 8 3 8 3z"/><path fill="#364f38" d="M235.19 563.35h8.33l.83 3h-10l.84-3z"/><path d="M235.35 563.35s3 2 8 0z" fill="#718e55"/><path d="M241.67 581.41l.91 6.68v35.29h4.17v-35l-3.4-7s-1.35.03-1.68.03z" fill="#d1c5a6" opacity=".54"/><path fill="#fff" opacity=".34" d="M287 231h-63L110.89 631.21H287V231z"/><path fill="#674300" d="M386.03 328.23h8v22h-8z"/><path fill="#674300" d="M380.03 351.23l6-9h8l6 9h-20zM380.03 351.23h20v35h-20z"/><path fill="#4c3300" d="M386.6 342.27l-5.85 8.96v34h19.28v-34l-6-9-7.43.04z"/><path d="M388.5 342.27l-5.84 9v32a19.58 19.58 0 0116.37 0v-32.1l-6-8.9z" fill="#614800"/><path fill="#f9b63e" d="M386.03 330.23h8v12h-8zM382.03 364.23h16v8h-16zM382 364.23s1-3 8-3 8 3 8 3z"/><path fill="#364f38" d="M385.86 326.23h8.34l.83 3h-10l.83-3z"/><path d="M386 326.23s3 2 8 0z" fill="#718e55"/><path d="M392.34 344.29l.92 6.68v35.3h4.16v-35l-3.39-7s-1.32.02-1.69.02z" fill="#d1c5a6" opacity=".54"/><path fill="#674300" d="M420.08 328.23h8v22h-8z"/><path fill="#674300" d="M414.07 351.23l6-9h8l6 9h-20zM414.08 351.23h20v35h-20z"/><path fill="#4c3300" d="M420.64 342.27l-5.84 8.96v34h19.27v-34l-6-9-7.43.04z"/><path d="M422.55 342.27l-5.84 9v32a19.58 19.58 0 0116.37 0v-32.1l-6-8.9z" fill="#614800"/><path fill="#f9b63e" d="M420.08 330.23h8v12h-8zM416.08 364.23h16v8h-16zM416.08 364.23s1-3 8-3 8 3 8 3z"/><path fill="#364f38" d="M419.91 326.23h8.33l.83 3h-10l.84-3z"/><path d="M420.08 326.23s3 2 8 0z" fill="#718e55"/><path d="M426.39 344.29l.92 6.68v35.3h4.16v-35l-3.39-7s-1.32.02-1.69.02z" fill="#d1c5a6" opacity=".54"/></g><g data-name="Layer 11"><path d="M633.05 344.25l-1.8 3.12a11.71 11.71 0 01-16 4.28l-33.49-19.33a11.72 11.72 0 01-4.29-16l1.8-3.12a11.71 11.71 0 0116-4.29l29.24 23.6c5.6 3.23 11.78 6.13 8.54 11.74z" fill="#f1f5ff"/><path d="M615.08 348.45a10.17 10.17 0 01-4.17-13.77l31.73-38.77c2.21-4.12 1.1-14.48 5.23-12.27a16.18 16.18 0 016.62 21.89l-19.82 37a14.48 14.48 0 01-19.59 5.92z" fill="url(#prefix__b)"/><ellipse cx="519.88" cy="257.22" rx="8.1" ry="13.5" transform="rotate(-55.39 519.91 257.227)" fill="url(#prefix__n)"/><path d="M555.89 307.08l-10.43-.08a3.89 3.89 0 01-3.79-3.21l-4-22.62a3.9 3.9 0 013.57-4.57l14.42-.94a3.88 3.88 0 014.14 3.88v23.68a3.88 3.88 0 01-3.91 3.86z" fill="url(#prefix__o)"/><path d="M560.09 290.8l1.89-.37a8.26 8.26 0 003.31-1.48c7.52-5.61 9.69-13.26 12.34-19.76a52.22 52.22 0 003-29.87 34.5 34.5 0 00-40.4-27.14c-18.57 3.65-30.82 15.54-27.13 40.4L515 250c2.32 11.8 2.47 4.81 15 29 1.76 3.4 2.92 8.1 9 9 13.68 2 13.87 4.22 21.09 2.8z" fill="url(#prefix__p)"/><path d="M561.46 237.25c-.2-1.22 3.22-2.76 7.62-3.45a18.73 18.73 0 0110.72 1.44c1.49.75-5.63 2.28-10 3s-8.15.23-8.34-.99z" fill="#5d3419"/><path d="M576.08 245.48l2.83-1.82s-10.27-10.47-17.78 2.32l1.51.61a14.56 14.56 0 0013.44-1.11z" fill="#fff"/><path d="M550.7 238.63c0-1.23-3.55-2.32-8-2.42a18.79 18.79 0 00-10.45 2.79c-1.38.95 5.89 1.52 10.34 1.63s8.08-.77 8.11-2z" fill="#5d3419"/><circle cx="569.63" cy="244.11" r="3.37" fill="#3a1f10"/><path d="M543.65 271.07a10.8 10.8 0 1021.55-1.43" fill="#fff"/><path d="M561.77 240.73a8.06 8.06 0 00-4.5 4.21c-1.71 3.81-.35 8.69 1.77 11.67 1.86 2.62 3.77 3 3.66 3.95-.22 1.92-8.23 3-10.25-.61a4.84 4.84 0 01-.24-3.74" fill="none" stroke="#5d3419" stroke-miterlimit="10" stroke-width=".5"/><circle cx="569.84" cy="244.62" r="1.19" fill="#fff"/><circle cx="541.87" cy="246.47" r=".64" fill="#3a1f10"/><path d="M565 267.67c5.73-.41 12.82-1.47 12.79-2.27.06 1.76-15.35-1.45-16.6-1.41a101.57 101.57 0 00-32.65 6.46 49.09 49.09 0 019.93-2.55c10.3-1.64 12.75.75 26.53-.23z" fill="#5d3419"/><path d="M578.91 243.66s-10.27-10.47-17.78 2.32l6.47-4.36a4.51 4.51 0 013.68-.71z" fill="#723f24"/><path d="M546.53 250.09l3.06-1.41s-8.66-11.83-17.93-.25l1.42.82a14.57 14.57 0 0013.45.84z" fill="#fff"/><circle cx="540.48" cy="247.95" r="3.37" fill="#3a1f10"/><path d="M549.59 248.68s-8.66-11.83-17.93-.25l7-3.38a4.53 4.53 0 013.74-.18z" fill="#723f24"/><circle cx="539.92" cy="247.99" r="1.26" fill="#fff"/><path d="M538.85 303.79l20.87-3.79a4.06 4.06 0 011.8.07l28.57 7.49a4.93 4.93 0 013.53 5l-2.93 65.71a4.52 4.52 0 01-3.54 4.36l-50.29 9.74a4.58 4.58 0 01-5.07-3.1l-25-68.62a4.79 4.79 0 012.6-6.19L538.16 304a4.43 4.43 0 01.69-.21z" fill="#f1f5ff"/><g clip-path="url(#prefix__q)"><path d="M578.31 351.45c-20.35-34.8-26.26-48.59-26.26-48.59" fill="#a8ccfe"/></g><path d="M565 336c5.2 5.26 3-20.59 1.76-32.13a3.56 3.56 0 014.56-3.78l8.75 2.6.45.09L593 305.9c2.46.61 2.29 2.63 2 5.1l-4.45 64.49a5.19 5.19 0 01-4.34 4.56l-54.54 9a5.16 5.16 0 01-5.73-3.32l-18.58-52.93c-1.51-4.28.24-9.61 4.58-10.94 1-.29-.49-2.24-3.07-5.64a3.58 3.58 0 012-5.63L530 306" fill="url(#prefix__f)"/><path d="M527 225c3.75-6.25 28 9 29-3 .37-4.43 23.36 12 23.36 12 1.2.55 4.64 2 2.2-1.81-6.91-10.72-12.42-22.06-24.41-25.48-2.38-.68 3.92-.55-.15-2.73-2.79-1.5-16.07-.85-14.15 1.67-8.85 1.16-7.43-9.05-12.85-3.65-6.26 6.23-25 27-17.58 42.28s6.23 10.85 5.58 14.72" fill="#4c1f00"/><path d="M566.39 310.75l-6.15-2.66a7.69 7.69 0 01-6.73 1 5.43 5.43 0 01-.54.53l-3.97 3.32a6.19 6.19 0 01-10-3.42c-3.47-16.43-3.79-16.43 11.6-10.65a7.49 7.49 0 018.88-1.88c13.22-10.28 12.5-9.78 14.24 8.45a5.23 5.23 0 01-7.33 5.31z" fill="#f98962"/></g><g data-name="Layer 10"><path d="M203.12 107.92s64.81 11.75 170.28-2.9c0-.02-67.4-20.82-170.28 2.9z" fill="url(#prefix__c)"/><path d="M290.77 96.32a11.89 11.89 0 01-14.27-14.27 11.76 11.76 0 018.84-8.85 11.87 11.87 0 015.43 23.12z" fill="url(#prefix__d)"/><path d="M290.66 107a15.4 15.4 0 1112.57-12.57A15.41 15.41 0 01290.66 107z" fill="url(#prefix__e)"/><path d="M203.12 107.92s35.17-24.23 73.16-35.8l19.32-2.7s42.13 11.2 77.8 35.6c0-.02-59.79-19.88-170.28 2.9z" fill="#553e77"/><path fill="#553e77" d="M276 57h20v16h-20z"/><path d="M285 0h2v57h-2z"/><path d="M621.12 108.92s64.81 11.75 170.28-2.9c0-.02-67.4-20.82-170.28 2.9z" fill="url(#prefix__r)"/><path d="M708.77 97.32a11.89 11.89 0 01-14.27-14.27 11.76 11.76 0 018.84-8.85 11.87 11.87 0 015.43 23.12z" fill="url(#prefix__s)"/><path d="M708.66 108a15.4 15.4 0 1112.57-12.57A15.41 15.41 0 01708.66 108z" fill="url(#prefix__t)"/><path d="M621.12 108.92s35.17-24.23 73.16-35.8l19.32-2.7s42.13 11.2 77.8 35.6c0-.02-59.79-19.88-170.28 2.9z" fill="#553e77"/><path fill="#553e77" d="M694 58h20v16h-20z"/><path d="M703 1h2v57h-2z"/><path d="M609.18 380.16a2.76 2.76 0 01-.37 1.78c-.53.8-1.53 2.19-1.53 2.19s-.93 2.53.67 2.53h28.24s2-.34.46-2.73-2-3.05-2-3.05v-38.95l-25.48-.14v38.37z" style="isolation:isolate" fill="#d2e3ee"/><path d="M610.76 342l22.72.14v35.32s.15 2.57-1.77 2.57H612.3s-1.77.16-1.77-2.89v-35.13" fill="#fdb614"/><path d="M609.76 347.23l-.79 1.14h-8.1s-5.51-.15-5.51 4.76V365s-.39 2.68 3 5.66 10.87 8.93 10.87 8.93l.5 1V373l-.69.65-8.49-7s-.8-.4-.8-4.32v-8.89s.05-.89 1.34-.89h7.75l.89.89z" style="isolation:isolate" fill="#d2e3ee"/><path d="M633.57 342.23s2.61-2.93-.63-4.68a3.72 3.72 0 00-3.8-4.43s-2-4.18-5.8-.81c0 0-3.49-1.49-5 2 0 0-3.05-.75-4.18 1.93 0 0-6.62-.12-4.69 5.93z" fill="#fff"/><path d="M628.14 342.67h3.66V381l2.44 3.73s.36 1.15-1.15 1.15h-5.46l-.57-4.81v-38.43z" style="isolation:isolate" fill="#fff" opacity=".4"/><path d="M616.6 342.67h-3.66V381l-2.44 3.73s-.36 1.15 1.15 1.15h5.45l.58-4.81v-38.43z" style="isolation:isolate" fill="#f94600" opacity=".44"/><path d="M608.73 348.82h-7.85a4.85 4.85 0 00-4.7 3.35s.9-2.06 4.63-2.06h7.93zM600.14 366.9l8.77 7a15.23 15.23 0 01-8.77-7z" fill="#fff"/><path d="M638 368.82l-.09-1.36c-.35-5.32-6.36.12-11.52.46l-64.29-5.16a7.78 7.78 0 00-7.12 8.38l.09 1.36a15.58 15.58 0 0016.36 14.78l53.86-3.53A13.86 13.86 0 00638 368.82z" fill="url(#prefix__u)"/><path d="M579.38 364.08l-17.28-1.32a7.66 7.66 0 00-7.1 8.14l.09 1.33a15.36 15.36 0 0016.33 14.32l9.6-.63" fill="#f1f5ff"/><path d="M568.54 382.32c4.83-4.59 1.18-7.92-3.41-12.75l-48.83-59.71a4.84 4.84 0 00-6.84-.17l-1.74 1.65a22.42 22.42 0 00-.8 31.71l36.73 38.64a17.6 17.6 0 0024.89.63z" fill="#f1f5ff"/></g><g data-name="Layer 3"><path fill="#fda787" d="M235.33 386h550v20h-550z"/><path fill="#cf6b5f" d="M255.33 413h510v220h-510z"/><path fill="#fda787" d="M235.33 633h550v20h-550z"/><path d="M235 406l20 7h510l20-7z" fill="#9e6654"/><path fill="#7c2b29" d="M286 440h128v164H286z"/><path fill="#cf6b5f" d="M305 461h89v123h-89z"/><path fill="#4f1310" d="M286 440l4 4.04h120l4-4.04H286z"/><path fill="#fedb50" d="M286 604l4-4.61h120l4 4.61H286z"/><path fill="#ed918a" d="M305 461h89l-4 3h-81l-4-3z"/><path fill="#9b3d38" d="M305.22 584h89l-4-3h-81l-4 3z"/><path fill="#b24d4b" d="M305 461l4 3v117l-4 3V461zM394 461.11l-4 3v117l4 3v-123z"/><path fill="#993a3a" d="M286 440l4 4v155l-4 5V440zM414 440l-4 4v155.39l4 4.61V440z"/><path fill="#7c2b29" d="M446.76 439.81h128v164h-128z"/><path fill="#cf6b5f" d="M465.76 460.81h89v123h-89z"/><path fill="#4f1310" d="M446.76 439.81l4 4.04h120l4-4.04h-128z"/><path fill="#fedb50" d="M446.76 603.81l4-4.61h120l4 4.61h-128z"/><path fill="#ed918a" d="M465.76 460.81h89l-4 3h-81l-4-3z"/><path fill="#9b3d38" d="M465.98 583.81h89l-4-3h-81l-4 3z"/><path fill="#b24d4b" d="M465.76 460.81l4 3v117l-4 3v-123zM554.76 460.92l-4 3v117l4 3v-123z"/><path fill="#993a3a" d="M446.76 439.81l4 4v155l-4 5v-164zM574.76 439.81l-4 4V599.2l4 4.61v-164z"/><path fill="#7c2b29" d="M605.52 439.52h128v164h-128z"/><path fill="#cf6b5f" d="M624.52 460.52h89v123h-89z"/><path fill="#4f1310" d="M605.52 439.52l4 4.05h120l4-4.05h-128z"/><path fill="#fedb50" d="M605.52 603.52l4-4.61h120l4 4.61h-128z"/><path fill="#ed918a" d="M624.52 460.52h89l-4 3h-81l-4-3z"/><path fill="#9b3d38" d="M624.73 583.52h89l-4-3h-81l-4 3z"/><path fill="#b24d4b" d="M624.52 460.52l4 3v117l-4 3v-123zM713.52 460.63l-4 3v117l4 3v-123z"/><path fill="#993a3a" d="M605.52 439.52l4 4v155l-4 5v-164zM733.52 439.52l-4 4v155.39l4 4.61v-164z"/></g><g data-name="Layer 4"><ellipse cx="495.5" cy="409.5" rx="58.5" ry="14.5" fill="#fff"/><path fill="url(#prefix__g)" d="M431.36 653l15.15-210.48h5.7L432.92 653h-1.56z"/><path fill="url(#prefix__v)" d="M431.36 653h-2.43l13.22-210.48h4.36L431.36 653z"/><path fill="url(#prefix__w)" d="M569.57 653l-24.35-210.48h-5.69L568.01 653h1.56z"/><path fill="url(#prefix__x)" d="M569.57 653H572l-22.42-210.48h-4.36L569.57 653z"/><path fill="url(#prefix__y)" d="M528.06 653l-9.15-210.48h-5.69L526.5 653h1.56z"/><path fill="url(#prefix__z)" d="M528.06 653h2.43l-7.21-210.48h-4.37L528.06 653z"/><path fill="url(#prefix__A)" d="M563.73 607.95h-83.79l-44.28.78-.32 5.11 45.1.02 83.62-.53-.33-5.38z"/><path fill="url(#prefix__i)" d="M471.73 607.95l-.18 4.56 92.45-.06-.32-4.5h-91.95z"/><path fill="url(#prefix__B)" d="M474.22 653l3.14-210.48h5.69L475.78 653h-1.56z"/><path fill="url(#prefix__C)" d="M474.22 653h-2.43l1.2-210.48h4.37L474.22 653z"/><path style="mix-blend-mode:multiply" fill="url(#prefix__h)" d="M551.05 456.31l-3.86 3.25-4.19 8.66-2.41-17.82h9.83l.63 5.91z"/><path style="mix-blend-mode:multiply" fill="url(#prefix__D)" d="M523.86 459.31l-4.18.91-4.95 6.21-1.01-16.03h9.83l.31 8.91z"/><path style="mix-blend-mode:multiply" fill="url(#prefix__E)" d="M482.47 459.31h-5.36l-4.26 7.95.1-16.86h9.83l-.31 8.91z"/><path style="mix-blend-mode:multiply" fill="url(#prefix__F)" d="M450.75 458.42l-5.41.41-4.63 6.61.94-15.04h9.83l-.73 8.02z"/><path fill="url(#prefix__G)" d="M553.67 453.89l.68-7.52H486.7v7.52h66.97z"/><path fill="url(#prefix__H)" d="M486.7 446.37l-49.66-.49-.29 7.52 49.95.49v-7.52z"/><path style="mix-blend-mode:screen" opacity=".5" fill="url(#prefix__j)" d="M507.57 447.38l-4.63 6.51h23.99l5.69-7.19-25.05.68z"/><path fill="#f1f5ff" d="M437 409h117v38H437z"/><path d="M437 409s50 36 117 38H437z" fill="#a8ccfe"/></g><g data-name="Layer 5"><ellipse cx="737.67" cy="409.38" rx="58.5" ry="14.5" fill="#fff"/><path fill="url(#prefix__I)" d="M673.53 652.88l15.16-210.48h5.69l-19.29 210.48h-1.56z"/><path fill="url(#prefix__J)" d="M673.53 652.88h-2.42l13.21-210.48h4.37l-15.16 210.48z"/><path fill="url(#prefix__K)" d="M811.75 652.88L787.39 442.4h-5.69l28.49 210.48h1.56z"/><path fill="url(#prefix__L)" d="M811.75 652.88h2.42L791.76 442.4h-4.37l24.36 210.48z"/><path fill="url(#prefix__M)" d="M770.24 652.88l-9.15-210.48h-5.69l13.28 210.48h1.56z"/><path fill="url(#prefix__N)" d="M770.24 652.88h2.42l-7.21-210.48h-4.36l9.15 210.48z"/><path fill="url(#prefix__O)" d="M805.9 607.83h-83.79l-44.28.78-.32 5.11 45.11.02 83.62-.53-.34-5.38z"/><path fill="url(#prefix__P)" d="M713.9 607.83l-.18 4.56 92.45-.07-.32-4.49H713.9z"/><path fill="url(#prefix__Q)" d="M716.39 652.88l3.14-210.48h5.69l-7.27 210.48h-1.56z"/><path fill="url(#prefix__R)" d="M716.39 652.88h-2.42l1.2-210.48h4.36l-3.14 210.48z"/><path style="mix-blend-mode:multiply" fill="url(#prefix__S)" d="M793.23 456.19l-3.87 3.24-4.18 8.66-2.41-17.81h9.83l.63 5.91z"/><path style="mix-blend-mode:multiply" fill="url(#prefix__T)" d="M766.03 459.19l-4.17.91-4.95 6.21-1.02-16.03h9.83l.31 8.91z"/><path style="mix-blend-mode:multiply" fill="url(#prefix__U)" d="M724.64 459.19h-5.36l-4.26 7.94.1-16.85h9.83l-.31 8.91z"/><path style="mix-blend-mode:multiply" fill="url(#prefix__V)" d="M692.92 458.3l-5.41.41-4.63 6.61.95-15.04h9.83l-.74 8.02z"/><path fill="url(#prefix__W)" d="M795.85 453.77l.67-7.53h-67.64v7.53h66.97z"/><path fill="url(#prefix__X)" d="M728.88 446.24l-49.67-.49-.29 7.53 49.96.49v-7.53z"/><path style="mix-blend-mode:screen" opacity=".5" fill="url(#prefix__Y)" d="M749.75 447.26l-4.63 6.51h23.98l5.69-7.19-25.04.68z"/><path fill="#f1f5ff" d="M679.17 408.88h117v38h-117z"/><path d="M679.17 408.88s50 36 117 38h-117z" fill="#a8ccfe"/></g><g data-name="Layer 8"><path fill="#dfd9e4" d="M674.95 386h-18.79v-71.79h18.79z"/><path d="M675 314.21s-1.42-6.78-9.36-6.78-9.43 6.78-9.43 6.78z" fill="#fff"/><path fill="#e6e3e9" d="M664.41 386h-8.25v-71.79h8.25z"/><path d="M661.27 321.64s4 4.24 0 9.59h-15.89s-4.27-.2-4.27 6.35h-9s1-15.77 12.61-15.77 16.55-.17 16.55-.17z" fill="#d5cddc"/><path d="M644.62 322.41s-6.48 4.25-6.48 15.16h-5.47s.86-15.24 11.95-15.16z" fill="#fff"/><path fill="#edecee" d="M650.13 321.79l-5.36.02 1.19-6.63h3.02l1.15 6.61z"/><path d="M649 315.18h-3a69.93 69.93 0 010-43.18h2.8s7.35 20.71.2 43.18z" fill="#f4692f"/><path d="M646.49 272h1.65a66.78 66.78 0 012.79 13.16 71.52 71.52 0 01-2.58 30h-1.51" fill="#f98962"/></g><g data-name="Layer 9"><path fill="#dfd9e4" d="M727.19 386.17H708.4v-71.79h18.79z"/><path d="M727.19 314.37s-1.42-6.77-9.35-6.77-9.43 6.77-9.43 6.77z" fill="#fff"/><path fill="#e6e3e9" d="M716.65 386.17h-8.25v-71.79h8.25z"/><path d="M713.52 321.81s4 4.24 0 9.59h-15.89s-4.28-.21-4.28 6.34h-9S685.42 322 697 322s16.52-.19 16.52-.19z" fill="#d5cddc"/><path d="M696.87 322.58s-6.49 4.24-6.49 15.16h-5.47s.86-15.25 11.96-15.16z" fill="#fff"/><path fill="#edecee" d="M702.38 321.96l-5.36.02 1.19-6.63h3.02l1.15 6.61z"/><path d="M701.23 315.35h-3a69.85 69.85 0 010-43.18H701s7.39 20.7.23 43.18z" fill="#961d23"/><path d="M698.74 272.17h1.64a66.05 66.05 0 012.8 13.16 71.69 71.69 0 01-2.58 30h-1.51" fill="#aa3939"/></g></g></svg>