<svg xmlns="http://www.w3.org/2000/svg" width="232.111" height="184.32" viewBox="0 0 232.111 184.32">
  <g id="Group_90" data-name="Group 90" transform="translate(-263.635 -437.583)">
    <g id="Group_89" data-name="Group 89" transform="translate(79 3)">
      <path id="wifi-solid" d="M182.854,35.39c-51.025-47.195-130.384-47.177-181.389,0a4.578,4.578,0,0,0-.1,6.618l9.861,9.783a4.677,4.677,0,0,0,6.451.109,110.5,110.5,0,0,1,148.968,0,4.68,4.68,0,0,0,6.451-.109l9.861-9.783a4.58,4.58,0,0,0-.1-6.618ZM92.16,92.16a18.432,18.432,0,1,0,18.432,18.432A18.431,18.431,0,0,0,92.16,92.16Zm58.369-24.074a88.415,88.415,0,0,0-116.738,0,4.553,4.553,0,0,0-.164,6.667l9.919,9.789a4.7,4.7,0,0,0,6.35.23,64.865,64.865,0,0,1,84.525,0,4.7,4.7,0,0,0,6.35-.23l9.919-9.789A4.553,4.553,0,0,0,150.529,68.086Z" transform="translate(416.746 434.583) rotate(90)"/>
      <g id="Rectangle_24" data-name="Rectangle 24" transform="matrix(0.966, -0.259, 0.259, 0.966, 184.635, 502.676)" stroke="#000" stroke-width="1">
        <rect width="132.102" height="78.198" rx="8" stroke="none"/>
        <rect x="0.5" y="0.5" width="131.102" height="77.198" rx="7.5" fill="none"/>
      </g>
    </g>
    <text id="Contactless" transform="matrix(0.966, -0.259, 0.259, 0.966, 338, 533)" fill="#faf5f5" font-size="18" font-family="Lato-Bold, Lato" font-weight="700"><tspan x="-47.354" y="0">Contactless</tspan></text>
  </g>
</svg>
